<svg width="79" height="101" viewBox="0 0 79 101" fill="none" xmlns="http://www.w3.org/2000/svg">
<g clip-path="url(#clip0_2001_11)">
<path d="M39.3225 42.9385C40.1638 42.1113 40.9331 41.2119 41.6858 40.2988C42.6403 40.3183 43.5241 40.7501 44.4595 40.9077C45.3573 41.0643 46.253 41.2342 47.1203 41.5326C47.1409 43.6422 47.3267 45.7448 47.6742 47.8288C48.3353 51.6673 48.8911 55.5258 49.8026 59.312C50.7463 63.3023 51.6126 67.3229 53.0068 71.1864C53.5521 72.888 54.033 74.6222 54.6197 76.3173C55.4059 78.4167 56.3356 80.4591 57.1275 82.5567C57.6983 84.0804 58.5225 85.4816 59.2598 86.9222C59.8579 86.8316 60.4575 86.7657 61.0585 86.7245C61.939 86.685 62.8127 86.3831 63.6964 86.5944C63.5642 86.8684 63.4487 87.156 63.2942 87.418C61.8439 89.4224 60.9005 91.7422 59.8572 93.9797C59.2494 95.2006 58.9861 96.7936 57.7448 97.5304C56.9801 97.6034 56.2318 97.369 55.4879 97.2088C53.1979 96.6202 50.9025 96.0145 48.6643 95.2525C48.1111 95.1277 47.5615 94.4539 47.9738 93.9233C48.6001 92.9422 48.8581 91.7729 49.4267 90.7656C50.0619 90.2541 50.7996 89.8935 51.488 89.4537C50.1868 87.1925 49.0086 84.8681 47.959 82.4787C46.653 79.5011 45.3831 76.4997 44.4264 73.3888C43.1553 69.3423 42.1049 65.2276 41.2352 61.0758C40.4833 57.5047 40.0794 53.8763 39.7918 50.2434C39.1944 47.8526 39.0861 45.3796 39.3225 42.9385ZM41.8933 41.2296C41.3477 41.7701 40.8186 42.3243 40.2655 42.8607C41.7186 42.9085 43.1638 43.091 44.6096 43.2354C44.9624 42.8932 45.3096 42.5527 45.6624 42.2105C44.3834 41.964 43.0886 41.7665 41.8933 41.2296ZM58.2187 87.3641C57.6342 85.8762 56.8266 84.4888 56.2438 83.0065C55.0715 80.0001 53.7047 77.0665 52.7608 73.9768C51.8413 70.8859 50.769 67.8422 50.0153 64.7062C49.0187 60.6252 48.0147 56.5402 47.4397 52.3791C46.9975 49.1278 46.3324 45.8573 46.5963 42.5638C46.062 43.1008 45.4631 43.5695 44.8242 43.9688C45.0835 46.6092 45.1999 49.2686 45.5681 51.9004C46.4955 58.7423 48.2148 65.4588 50.2873 72.0344C51.4055 75.6873 52.8219 79.2417 54.3177 82.7525C55.2536 84.8749 56.2157 87.0017 57.5548 88.9047C57.7811 88.3939 57.9999 87.879 58.2187 87.3641ZM61.1976 88.5959C61.4605 88.2437 61.6176 87.8299 61.8285 87.4497C60.9693 87.5582 60.1049 87.6494 59.2489 87.7884C59.0295 88.3412 58.7969 88.8918 58.5626 89.4367C59.4431 89.1768 60.3491 88.9593 61.1976 88.5959ZM49.9833 91.242C49.7663 91.7626 49.5436 92.2849 49.3209 92.8073C50.2933 92.1033 51.2692 91.4107 52.258 90.7394C52.1721 90.6023 52.0022 90.3337 51.9146 90.1908C51.2727 90.5406 50.6252 90.8922 49.9833 91.242ZM42.8421 63.1227C44.0109 67.7802 45.2208 72.4501 46.9836 76.9237C48.4848 80.6722 50.0745 84.406 52.0843 87.9151C52.7155 88.973 53.3217 90.0701 54.1942 90.9462C53.8742 91.4546 53.5334 91.9758 53.0249 92.3158C51.9482 93.0836 50.835 93.7934 49.7108 94.4877C52.2716 95.3703 54.8853 96.1232 57.542 96.6548C58.5911 94.6361 59.2269 92.424 60.2649 90.3897C59.3377 90.6389 58.3173 90.9674 57.3822 90.5704C56.6059 90.1053 56.2174 89.2305 55.7629 88.4832C54.0927 85.4105 52.8254 82.1375 51.5579 78.8835C49.9883 74.8539 48.7319 70.7147 47.6375 66.538C46.1296 60.9653 44.9234 55.3054 44.2717 49.5747C44.0749 47.8975 43.9853 46.2059 43.6927 44.5395C42.5028 44.4606 41.3328 44.2056 40.1512 44.0738C39.9313 45.7667 40.4058 47.4398 40.5311 49.1266C40.9899 53.8338 41.6929 58.5284 42.8421 63.1227Z" fill="#333333"/>
</g>
<path d="M8.65805 38.0627C8.25224 38.1223 7.93811 38.1396 7.71566 38.1147C7.24822 38.0681 6.86418 37.923 6.56356 37.6792C6.47307 37.6119 6.3907 37.5606 6.31644 37.5255C6.25181 37.4774 6.20822 37.455 6.18568 37.4583C6.06168 37.4765 5.85252 37.346 5.5582 37.0668C5.2735 36.7746 5.00157 36.4518 4.74242 36.0983C4.4816 35.7335 4.33548 35.4441 4.30405 35.2299C4.27923 35.0608 4.20617 34.9161 4.08486 34.7957C3.82767 34.5341 3.6147 33.8283 3.44594 32.6785C3.34306 31.8991 3.54524 31.4721 4.05251 31.3977C4.36813 31.3514 4.62771 31.3939 4.83123 31.5252C5.00259 31.6728 5.20021 32.1562 5.42409 32.9755C5.56452 33.4615 5.66721 33.7689 5.73215 33.8976C5.7759 33.9602 5.81845 34.1325 5.85981 34.4143L5.90448 34.7186C5.92103 34.8314 5.98416 34.9085 6.09389 34.9499C6.24405 35.0315 6.40331 35.1751 6.57167 35.3807C6.66712 35.4819 6.77467 35.587 6.89432 35.6961C7.02524 35.8036 7.14076 35.8845 7.24087 35.9389C7.39102 36.0205 7.58245 36.1478 7.81513 36.321C8.00738 36.454 8.14296 36.5147 8.22187 36.5031C8.2895 36.4932 8.34819 36.4615 8.39794 36.4082C8.45895 36.3531 8.52726 36.3086 8.60286 36.2744C8.68973 36.2387 8.76135 36.2166 8.81771 36.2084C8.9868 36.1835 9.10898 36.1138 9.18427 35.9991C9.25791 35.8731 9.371 35.7414 9.52354 35.6038C9.7613 35.4193 10.0311 34.9824 10.333 34.2932L10.75 33.3684C10.8714 33.0972 10.8974 32.7249 10.8279 32.2515C10.727 31.5638 10.4827 30.88 10.095 30.1999C9.70561 29.5086 9.34837 28.9968 9.02323 28.6645C8.70771 28.3193 8.15418 27.8823 7.36264 27.3536C7.09118 27.1516 6.95379 27.0394 6.95048 27.0168C6.94552 26.983 6.91801 26.9525 6.86796 26.9253C6.8179 26.8981 6.76304 26.8774 6.70337 26.8631C6.64204 26.8376 6.54276 26.7888 6.40553 26.7168C6.26664 26.6336 6.12047 26.5399 5.967 26.4357C5.6309 26.1857 5.38544 26.0432 5.23063 26.0083C5.08543 25.9606 4.8892 25.8397 4.64193 25.6456C4.40428 25.4387 4.17543 25.2132 3.95536 24.9691C3.73529 24.7251 3.57655 24.5065 3.47914 24.3136C3.39299 24.1189 3.29175 23.9783 3.17541 23.8918C2.74686 23.4825 2.46971 22.8496 2.34397 21.9929C2.23116 21.1458 2.2682 20.2997 2.45509 19.4547C2.6516 18.5968 2.98828 17.9486 3.46515 17.5101C3.60807 17.3855 3.77339 17.2173 3.96109 17.0055C4.44892 16.4848 5.07046 16.169 5.82571 16.0582C6.8966 15.901 7.7595 16.1313 8.41443 16.7491C8.64577 16.9915 8.82923 17.1431 8.96481 17.2038C9.11 17.2516 9.25385 17.3687 9.39636 17.555C9.44341 17.6402 9.49527 17.719 9.55194 17.7913C9.60696 17.8523 9.65303 17.8916 9.69016 17.9092C9.93277 18.1499 10.2719 18.7738 10.7076 19.7808C10.9077 20.2811 11.0293 20.6778 11.0723 20.9709C11.1169 21.2753 11.0937 21.509 11.0024 21.6721C10.9096 21.8239 10.6796 21.944 10.3126 22.0324C10.1322 22.0589 9.95886 22.0152 9.79247 21.9015C9.62442 21.7765 9.52881 21.635 9.50565 21.4772C9.4891 21.3645 9.42416 21.2358 9.31082 21.0913C9.1892 20.8903 9.10306 20.6957 9.05239 20.5074C9.00172 20.319 8.94324 20.1952 8.87695 20.1358C8.81066 20.0765 8.6786 19.8828 8.48077 19.5549C8.39163 19.4183 8.30978 19.2921 8.23522 19.1764C8.17027 19.0477 8.13532 18.9665 8.13036 18.9327C8.11216 18.8087 7.98672 18.6601 7.75403 18.487C7.52135 18.3139 7.26379 18.1674 6.98136 18.0477C6.70855 17.915 6.49241 17.8546 6.33294 17.8665C5.63736 17.9916 5.09834 18.3989 4.71589 19.0884C4.33179 19.7666 4.14547 20.3409 4.15694 20.8113C4.16841 21.2818 4.18325 21.579 4.20145 21.703C4.2941 22.3342 4.55553 22.8601 4.98573 23.2806C5.10208 23.3672 5.17814 23.4539 5.21392 23.5408C5.25601 23.5922 5.3498 23.682 5.49531 23.8104C5.65043 23.9258 5.83058 24.0548 6.03576 24.1974C6.24093 24.34 6.45904 24.4923 6.69007 24.6541C7.15544 25.0004 7.50762 25.2423 7.74661 25.38C7.91301 25.4937 8.0519 25.577 8.16327 25.6297C8.51199 25.8089 8.9966 26.1293 9.61709 26.5909C9.85143 26.7753 9.97108 26.8844 9.97604 26.9182C9.98101 26.9521 10.0846 27.0693 10.2868 27.2699C10.4936 27.4238 10.6376 27.5812 10.7188 27.742C10.8775 27.9605 11.0102 28.1195 11.117 28.219C11.2916 28.3891 11.4351 28.6214 11.5474 28.9158C11.5994 29.0348 11.6515 29.1539 11.7035 29.2729C11.7651 29.379 11.8105 29.453 11.8397 29.4947C12.2072 29.959 12.4687 30.7209 12.6243 31.7805C12.6855 32.1976 12.7006 32.5754 12.6697 32.9139C12.6464 33.1476 12.6334 33.3338 12.6307 33.4723C12.6157 33.7624 12.5061 34.1528 12.3017 34.6434C12.107 35.121 11.8839 35.5626 11.6325 35.968C11.3923 36.3717 11.2046 36.5835 11.0693 36.6033C10.9453 36.6215 10.8369 36.7066 10.744 36.8584C10.6512 37.0102 10.5089 37.1002 10.3173 37.1283C10.1369 37.1547 10.0235 37.2059 9.97709 37.2818C9.929 37.3465 9.8471 37.4161 9.73137 37.4906C9.6687 37.5344 9.63902 37.5675 9.64233 37.5901L9.66172 37.6045C9.75686 37.6251 9.80692 37.6523 9.81188 37.6861C9.82346 37.765 9.63446 37.8503 9.24489 37.942C9.06784 37.9911 8.87223 38.0313 8.65805 38.0627ZM18.9491 46.8643C18.8025 46.8858 18.626 46.8598 18.4195 46.7865C18.1871 46.694 18.0086 46.5762 17.884 46.4333C17.7723 46.3 17.6737 46.0208 17.5883 45.5958C17.5029 45.1707 17.3842 44.4799 17.2323 43.5234C17.0652 42.3849 16.8953 41.3447 16.7225 40.4028L16.2086 37.49C16.1292 36.9489 16.095 36.6373 16.106 36.555C16.1282 36.4712 16.1343 36.3954 16.1244 36.3278C16.1178 36.2827 16.0999 36.2393 16.0707 36.1975C15.9915 36.1285 15.7151 34.6375 15.2415 31.7246L15.182 31.3188C15.1092 30.8228 15.0503 30.3823 15.0053 29.9974L14.9552 29.5384C14.9072 29.2115 14.8735 29.0207 14.8539 28.966C14.789 28.8373 14.735 28.6265 14.692 28.3334C14.6357 27.9501 14.6155 27.4982 14.6312 26.9777C14.6339 26.8392 14.6303 26.7361 14.6203 26.6684C14.5991 26.6024 14.5675 26.5437 14.5254 26.4923C14.4542 26.3992 14.4086 26.2849 14.3888 26.1497C14.3424 25.834 14.4241 25.4881 14.6337 25.1119C14.7617 24.8858 14.9103 24.7604 15.0794 24.7356C15.6543 24.6512 16.0556 25.1105 16.2835 26.1134L16.5288 27.0792C16.5696 27.1999 16.6125 27.2569 16.6576 27.2503C16.7703 27.2338 16.8778 27.1029 16.9799 26.8576C17.0118 26.7608 17.0228 26.6785 17.0128 26.6109C16.9946 26.4869 16.9983 26.3943 17.0239 26.3329C17.0494 26.2716 17.1096 26.2109 17.2044 26.151C17.3056 26.0555 17.3855 25.8941 17.4443 25.6667C17.4791 25.5119 17.5198 25.3965 17.5662 25.3206C17.6239 25.243 17.7058 25.1734 17.8119 25.1118C17.979 24.9951 18.0689 24.9013 18.0815 24.8304C18.0941 24.7595 18.1752 24.6842 18.3248 24.6047L18.8192 24.3249C18.9767 24.2211 19.0892 24.1643 19.1569 24.1544C19.2696 24.1378 19.4574 24.1621 19.7203 24.2272C20.0654 24.3032 20.2782 24.341 20.3588 24.3407C20.5103 24.353 20.6653 24.4282 20.8237 24.5661C20.9934 24.7024 21.1148 24.8631 21.1881 25.0481C21.2709 25.2202 21.373 25.3664 21.4943 25.4868C21.6252 25.5943 21.7508 25.7831 21.8711 26.0533C21.9913 26.3236 22.0924 26.6196 22.1742 26.9416C22.199 27.1107 22.2551 27.2579 22.3426 27.3832C22.3605 27.4267 22.3885 27.578 22.4265 27.8373C22.4759 28.0949 22.5245 28.3871 22.5725 28.714C22.674 29.5628 22.7129 30.0235 22.689 30.0961C22.6651 30.1687 22.6634 30.3532 22.6838 30.6495C22.6966 31.0507 22.6067 31.536 22.4139 32.1055C22.3326 32.3363 22.2598 32.4679 22.1955 32.5003C22.1424 32.5312 22.1192 32.5691 22.1258 32.6142C22.1291 32.6367 22.1445 32.6633 22.172 32.6938C22.24 32.7644 22.2806 32.8448 22.2938 32.935C22.3517 33.3295 22.0255 33.9705 21.3151 34.8578C20.8581 35.4315 20.173 35.7854 19.26 35.9194C18.9669 35.9624 18.6471 35.9806 18.3007 35.9738L18.1629 35.9768C18.0727 35.99 18.0157 36.0329 17.9918 36.1055C17.9775 36.1652 17.9812 36.2683 18.0027 36.4148L18.1581 37.2384C18.1862 37.43 18.1812 37.592 18.143 37.7243C18.1161 37.8549 18.1068 37.9484 18.1151 38.0047C18.1234 38.0611 18.164 38.1415 18.2369 38.2459C18.3211 38.3487 18.3969 38.5909 18.4644 38.9726L18.7266 40.5232L19.0115 42.3468C19.0545 42.6399 19.0624 42.8115 19.0352 42.8616C19.0097 42.9229 18.9865 42.9608 18.9656 42.9754C18.9576 42.9996 18.9488 43.0182 18.9392 43.0311C18.8702 43.1103 18.8374 43.1612 18.8407 43.1837C18.8423 43.195 18.8657 43.1973 18.9108 43.1907C18.9559 43.1841 19.0076 43.2226 19.0659 43.3061C19.1259 43.401 19.1658 43.516 19.1857 43.6513C19.275 44.26 19.3897 44.7671 19.5299 45.1726C19.5723 45.3046 19.6026 45.4326 19.6208 45.5566C19.6803 45.9624 19.6196 46.2937 19.4385 46.5506C19.3151 46.7299 19.152 46.8345 18.9491 46.8643ZM18.9626 34.0112C19.143 33.9847 19.3376 33.8986 19.5465 33.7528C20.4146 33.2338 20.7999 32.0143 20.7023 30.094C20.6848 29.7396 20.6741 29.4706 20.6702 29.2869C20.6663 29.1032 20.6641 28.9711 20.6638 28.8905C20.6731 28.7971 20.6866 28.7317 20.7042 28.6946C20.7201 28.6462 20.7247 28.5995 20.7181 28.5544C20.7032 28.4529 20.665 28.3492 20.6033 28.243C20.4947 28.0517 20.4034 27.783 20.3296 27.4369C20.2541 27.0794 20.1613 26.8397 20.0513 26.7177L19.7356 26.3322C19.6385 26.2198 19.5167 26.1743 19.3701 26.1958C19.0545 26.2422 18.8353 26.4355 18.7125 26.776L18.3294 27.6959C18.1217 28.1639 18.027 28.46 18.0452 28.584C18.0617 28.6967 18.0196 28.8411 17.9187 29.0171C17.8179 29.1931 17.7724 29.3149 17.7824 29.3825L17.7923 29.4502C17.7989 29.4953 17.7936 29.5767 17.7763 29.6943C17.759 29.812 17.7313 29.937 17.6932 30.0693C17.655 30.2016 17.6127 30.3056 17.5663 30.3815C17.5294 30.4445 17.5226 30.5549 17.5458 30.7127L17.5582 30.7973C17.5764 30.9213 17.5792 31.0188 17.5666 31.0897C17.5539 31.1606 17.5131 31.2357 17.4442 31.3149C17.3752 31.3942 17.3118 31.4725 17.2541 31.5501C17.4113 32.621 17.5152 33.2506 17.5659 33.4389C17.6149 33.616 17.679 33.739 17.7582 33.808C17.8487 33.8753 17.9714 33.9264 18.1262 33.9612C18.4584 34.0276 18.6752 34.0534 18.7766 34.0385L18.9626 34.0112ZM28.6486 35.0423C28.5246 35.0605 28.423 35.0351 28.3438 34.9662C28.2662 34.9085 28.2233 34.8514 28.2151 34.7951C28.2051 34.7274 28.1663 34.6986 28.0987 34.7085C27.9973 34.7234 27.8759 34.7988 27.7346 34.9347C27.6511 34.993 27.5529 35.0304 27.4402 35.047C27.2373 35.0767 26.9769 35.0286 26.659 34.9025C26.1087 34.6839 25.6618 34.3062 25.3181 33.7693C24.7043 32.9612 24.3305 32.1006 24.1964 31.1875C24.1534 30.8945 24.15 30.6359 24.1862 30.4118C24.2224 30.1877 24.2356 30.0418 24.2256 29.9742C24.219 29.9291 24.2011 29.8856 24.172 29.8439C24.0878 29.7411 24.0333 29.6051 24.0085 29.436C23.982 29.2557 23.9638 29.1317 23.9539 29.064C23.8662 28.4666 23.8652 27.9889 23.9508 27.6308C24.0491 27.2019 24.1106 26.8762 24.1356 26.6537C24.1877 26.3812 24.2801 26.1085 24.4128 25.8357C24.5568 25.5613 24.655 25.3281 24.7074 25.1361C24.7598 24.9442 24.8935 24.7173 25.1084 24.4554L25.4188 24.099C25.6931 23.7708 25.9274 23.5234 26.1217 23.3567C26.5859 22.9892 26.8913 22.7947 27.0379 22.7731C27.1844 22.7516 27.3308 22.6898 27.477 22.5878C27.5719 22.5278 27.6587 22.492 27.7377 22.4804C27.794 22.4722 27.852 22.4752 27.9117 22.4894C28.0778 22.5226 28.2696 22.5348 28.4871 22.5259C28.7158 22.5154 28.8875 22.5477 29.0022 22.623C29.1265 22.6854 29.2762 22.8419 29.4512 23.0926C29.7362 23.4653 29.8952 23.7644 29.9283 23.9898C29.9465 24.1138 29.9276 24.2203 29.8715 24.3091C29.8138 24.3867 29.7899 24.4592 29.7999 24.5269L29.8267 24.592C29.8834 24.6643 29.9175 24.7399 29.9291 24.8188C29.9473 24.9428 29.8988 25.1227 29.7837 25.3584C29.6958 25.544 29.6449 25.7069 29.6309 25.8472C29.6169 25.9874 29.5635 26.1334 29.4706 26.2852C29.389 26.4354 29.3043 26.6033 29.2164 26.7889C29.1381 26.9616 29.001 27.1257 28.805 27.2811C28.6186 27.4236 28.4631 27.6192 28.3384 27.8678C28.2136 28.1164 28.1287 28.244 28.0836 28.2506C28.0385 28.2573 27.9744 28.33 27.8911 28.4689C27.848 28.5673 27.7982 28.6207 27.7419 28.629C27.7193 28.6323 27.6549 28.6245 27.5484 28.6055C27.4516 28.5737 27.3694 28.5627 27.3018 28.5727C27.2567 28.5793 27.2181 28.5907 27.1859 28.6069C27.046 28.6735 26.9851 28.7688 27.0033 28.8928C27.0116 28.9492 27.036 28.9974 27.0764 29.0376C27.1281 29.076 27.1564 29.1122 27.1614 29.146C27.1713 29.2136 27.1314 29.2943 27.0415 29.3881C26.9019 29.5353 26.6696 29.6788 26.3446 29.8186C26.0986 29.9468 26.0103 30.2477 26.0798 30.7211C26.1477 31.1833 26.3146 31.6539 26.5807 32.1331C26.8581 32.6106 27.1767 32.938 27.5367 33.1155C27.6948 33.1729 27.9092 33.1818 28.1797 33.142C28.3488 33.1172 28.4985 33.078 28.6288 33.0243C28.8026 32.9528 28.8853 32.8888 28.877 32.8324C28.8687 32.7761 28.9521 32.6775 29.1272 32.5366C29.3119 32.3828 29.4018 32.289 29.3968 32.2552C29.3919 32.2214 29.4216 32.1883 29.4859 32.1558C29.5598 32.1104 29.6008 32.0756 29.6088 32.0514C29.6071 32.0401 29.5925 32.0192 29.565 31.9887C29.5375 31.9582 29.5213 31.926 29.5163 31.8922C29.5014 31.7908 29.5636 31.6262 29.7029 31.3985L29.9791 30.9261C30.203 30.4902 30.3623 30.2423 30.4572 30.1823C30.552 30.1223 30.6276 30.0882 30.684 30.0799C30.8192 30.0601 30.9901 30.0868 31.1966 30.1601C31.4032 30.2335 31.5542 30.3207 31.6496 30.4218C31.7451 30.523 31.8085 30.6806 31.8399 30.8948C31.8723 31.3507 31.6981 31.929 31.3173 32.6297C30.9478 33.3288 30.5244 33.8573 30.0473 34.2152L29.5916 34.5239C29.1997 34.8348 28.8853 35.0076 28.6486 35.0423ZM25.9722 27.8696C26.0173 27.863 26.1475 27.769 26.3627 27.5878C26.5971 27.3806 26.7424 27.2326 26.7984 27.1438C26.8528 27.0437 26.9066 26.9782 26.9596 26.9474C27.0239 26.9149 27.1125 26.8904 27.2252 26.8739C27.5408 26.8276 27.6854 26.7142 27.6589 26.5339C27.6507 26.4775 27.6255 26.4236 27.5834 26.3722C27.5526 26.3192 27.5339 26.2701 27.5272 26.225C27.5223 26.1912 27.5598 26.0936 27.6397 25.9321C27.8205 25.5947 27.9145 25.3333 27.9219 25.148C27.9389 24.9497 27.9424 24.8168 27.9324 24.7491C27.9027 24.5462 27.8201 24.4547 27.6849 24.4746C27.5834 24.4895 27.4558 24.6003 27.3019 24.8071C27.217 24.9348 27.0959 25.0907 26.9387 25.275C26.7109 25.5272 26.4558 26.0253 26.1734 26.7692C25.9724 27.2823 25.8851 27.6291 25.9116 27.8094C25.9182 27.8545 25.9384 27.8746 25.9722 27.8696ZM40.684 33.6041C40.5037 33.6306 40.3255 33.5934 40.1495 33.4925C40.0089 33.398 39.9039 33.3098 39.8343 33.2279C39.7743 33.1331 39.7238 32.985 39.6827 32.7838C39.6417 32.5825 39.5897 32.2677 39.5268 31.8394C39.4756 31.4899 39.4423 31.2242 39.4271 31.0422C39.4103 30.8489 39.4025 30.7176 39.4039 30.6483C39.4148 30.5661 39.4387 30.4935 39.4755 30.4305C39.5107 30.3563 39.5241 30.2909 39.5159 30.2346C39.5109 30.2008 39.5011 30.1734 39.4865 30.1525C39.4216 30.0239 39.3621 29.8541 39.3082 29.6432C39.2476 29.3873 39.1947 29.2626 39.1496 29.2692C39.1045 29.2759 39.046 29.3478 38.974 29.485L38.6113 30.0737C38.27 30.5729 38.1035 30.8507 38.1118 30.907C38.1201 30.9634 37.9254 31.2453 37.5277 31.7528C37.1414 32.2586 36.9144 32.5164 36.8467 32.5264C36.7791 32.5363 36.7093 32.6099 36.6373 32.7471C36.5269 32.936 36.3824 33.0897 36.204 33.208C36.024 33.315 35.8663 33.3784 35.7311 33.3983C35.6747 33.4066 35.6119 33.41 35.5426 33.4087C35.4716 33.3961 35.408 33.3939 35.3516 33.4022C35.2614 33.4154 35.1384 33.4795 34.9826 33.5945C34.838 33.7079 34.6643 33.7794 34.4613 33.8092C34.281 33.8357 34.0836 33.8243 33.8691 33.7752C33.4401 33.677 33.1501 33.4662 32.999 33.1429C32.9566 33.0109 32.8391 32.8382 32.6466 32.6246C32.4636 32.3981 32.3589 32.1947 32.3324 32.0144C32.3159 31.9016 32.334 31.7896 32.3867 31.6782C32.4216 31.5234 32.4332 31.4065 32.4217 31.3276C32.4084 31.2374 32.4114 31.1794 32.4307 31.1536C32.4612 31.1261 32.5159 31.1065 32.5948 31.0949C32.7864 31.0668 32.8748 31.002 32.8599 30.9006C32.8483 30.8217 32.7643 30.7591 32.6078 30.713C32.5481 30.6987 32.5014 30.6941 32.4676 30.6991C32.4338 30.704 32.4119 30.6727 32.402 30.605C32.3755 30.4247 32.4651 30.0546 32.6708 29.4947C32.9545 28.6815 33.2136 28.1714 33.448 27.9642C33.5525 27.8913 33.672 27.7644 33.8067 27.5834C33.8899 27.4445 34.0561 27.2819 34.3051 27.0957C34.5366 26.9466 34.6868 26.8324 34.7558 26.7532C34.8247 26.674 34.9991 26.5678 35.279 26.4346C35.5701 26.2997 35.8316 26.198 36.0633 26.1294C36.3932 26.0234 36.5839 25.9494 36.6353 25.9073C36.7994 25.8487 37.1464 25.7805 37.6762 25.7027L37.8452 25.6779C38.2736 25.615 38.5166 25.5448 38.5743 25.4673C38.6433 25.388 38.6687 25.2864 38.6505 25.1624C38.6323 25.0384 38.581 24.8848 38.4965 24.7014C38.2848 24.1222 38.0641 23.717 37.8344 23.4858C37.6031 23.2434 37.29 23.1109 36.8951 23.0882C36.6614 23.065 36.4663 23.0303 36.3099 22.9841C36.163 22.9251 36.0147 22.895 35.8648 22.894C35.6361 22.9045 35.4804 22.864 35.3979 22.7725C35.2832 22.6972 35.1864 22.6654 35.1075 22.677C34.9948 22.6935 34.9372 22.8113 34.9348 23.0305C34.9514 23.1432 34.9477 23.2359 34.9238 23.3085C34.8999 23.3811 34.843 23.4643 34.7532 23.5581C34.6039 23.7181 34.5152 23.8981 34.487 24.098C34.4571 24.2867 34.4076 24.4206 34.3387 24.4998C34.2793 24.5661 34.1763 24.61 34.0298 24.6315C33.8945 24.6514 33.8302 24.6838 33.8368 24.7289L33.8885 24.9632C33.9183 25.1661 33.8204 25.2841 33.595 25.3172C33.471 25.3354 33.3235 25.311 33.1524 25.2439C32.7844 25.0907 32.5732 24.828 32.5186 24.456C32.4921 24.2757 32.4978 24.0791 32.5357 23.8663C32.5971 23.5003 32.725 23.2339 32.9193 23.0672C33.0655 22.9651 33.1489 22.8665 33.1695 22.7714C33.2027 22.6053 33.3534 22.4162 33.6217 22.2041C33.8996 21.9791 34.2211 21.7764 34.5861 21.5962C35.0268 21.3818 35.4557 21.244 35.8728 21.1828C37.4396 20.9528 38.5788 21.3787 39.2903 22.4603C39.4182 22.6258 39.5016 22.723 39.5404 22.7518C39.7309 22.8735 39.931 23.3739 40.1407 24.2528C40.3486 25.1205 40.5221 26.0278 40.6611 26.9746L40.8079 28.0931C40.9039 28.7469 40.9873 29.2759 41.0581 29.68C41.1806 30.5142 41.2647 31.2446 41.3106 31.8712C41.3678 32.4961 41.3798 32.8917 41.3466 33.0577C41.2557 33.3014 41.1338 33.4517 40.981 33.5087C40.8394 33.564 40.7404 33.5958 40.684 33.6041ZM34.6862 31.928C34.7876 31.9131 34.9179 31.8594 35.0771 31.767C35.2346 31.6633 35.4545 31.4352 35.7367 31.0829C36.0302 30.7289 36.3043 30.3605 36.559 29.9776C36.825 29.5931 36.9851 29.3106 37.0391 29.1299C37.0932 28.9492 37.173 28.7475 37.2785 28.5248C37.3827 28.3713 37.4682 28.209 37.5353 28.038C37.6119 27.854 37.6461 27.7338 37.6378 27.6775C37.6312 27.6324 37.5546 27.6206 37.4081 27.6421C36.7092 27.7447 36.0764 28.0621 35.5096 28.5944C35.2254 28.8549 35.0185 29.0925 34.8888 29.3073C34.5578 29.9547 34.3597 30.4098 34.2946 30.6727C34.2279 30.9243 34.2078 31.1403 34.2343 31.3207C34.2508 31.4334 34.2835 31.538 34.3322 31.6345C34.3941 31.8212 34.4549 31.9216 34.5146 31.9359C34.5839 31.9373 34.6411 31.9346 34.6862 31.928ZM50.962 32.0783C50.8381 32.0965 50.6995 32.0938 50.5463 32.0702C50.3239 32.0453 50.0259 31.8587 49.6523 31.5105C49.4939 31.3726 49.4081 31.2585 49.3948 31.1683C49.3915 31.1458 49.393 31.1168 49.3993 31.0813C49.404 31.0345 49.403 30.9886 49.3964 30.9435C49.3716 30.7744 49.3028 30.6982 49.1901 30.7147C49.0886 30.7296 48.9603 30.6793 48.8052 30.5639C48.6501 30.4485 48.4884 30.288 48.32 30.0824C48.1629 29.8752 48.0181 29.7122 47.8855 29.5935C47.7625 29.4618 47.6911 29.3283 47.6713 29.1931C47.658 29.1029 47.6377 29.0425 47.6102 29.012C47.5939 28.9799 47.5512 28.9631 47.4819 28.9618C47.4239 28.9588 47.3156 28.8883 47.1572 28.7503C47.01 28.6107 46.8621 28.4655 46.7132 28.3146C46.574 28.1508 46.4987 28.0294 46.4871 27.9505C46.4656 27.804 46.4072 27.7204 46.3121 27.6998C46.2282 27.6776 46.1187 27.6764 45.9834 27.6962C45.4198 27.779 45.1537 27.9274 45.1851 28.1416C45.1934 28.1979 45.2258 28.2623 45.2825 28.3346C45.3766 28.505 45.4541 28.7585 45.515 29.095C45.6474 29.9968 45.7298 30.6756 45.7621 31.1315C45.7981 31.6904 45.7826 32.0555 45.7156 32.2265C45.6068 32.4267 45.4799 32.5432 45.335 32.576L45.0814 32.6132C44.8334 32.6496 44.6133 32.6013 44.421 32.4683C44.1883 32.2952 44.0367 32.0468 43.9662 31.7232L43.8173 30.7087C43.7809 30.4607 43.7459 30.1434 43.7122 29.7569C43.6774 29.5202 43.6077 29.2022 43.5031 28.803L43.4832 28.6677C43.4276 28.4456 43.3907 28.2725 43.3725 28.1485C43.3576 28.0471 43.3798 27.9632 43.4392 27.8969C43.5082 27.8177 43.5344 27.7217 43.5178 27.609C43.5046 27.5188 43.4551 27.4167 43.3692 27.3026C43.3271 27.2512 43.2774 27.1088 43.2202 26.8754C43.1907 26.7531 43.0957 26.1452 42.9352 25.0518L42.7178 23.8055C42.6814 23.5575 42.6728 23.4206 42.692 23.3947C42.7096 23.3576 42.7401 23.3301 42.7835 23.3122C42.827 23.2943 42.8454 23.2628 42.8388 23.2177C42.8338 23.1839 42.7989 23.1027 42.7339 22.974C42.6802 22.8437 42.6426 22.7053 42.6211 22.5587L42.5963 22.3896C42.5715 22.2206 42.5185 22.0556 42.4373 21.8948C42.3658 21.7211 42.3209 21.5722 42.3027 21.4482C42.2911 21.3693 42.2908 21.2887 42.3018 21.2065C42.324 21.1226 42.3302 21.0469 42.3202 20.9792C42.312 20.9229 42.2932 20.8738 42.2641 20.832C42.1829 20.6712 41.9041 18.9676 41.4276 15.7211C41.2108 14.2444 41.1167 13.4464 41.1453 13.3271C41.1741 13.2883 41.1853 13.2463 41.1786 13.2012C41.172 13.1562 41.1404 13.0975 41.0837 13.0252C41.0254 12.9416 40.9846 12.8209 40.9615 12.6631C40.9135 12.3362 40.909 11.9914 40.9479 11.6287C40.9991 11.1145 41.2276 10.8277 41.6334 10.7681C42.0279 10.7102 42.3502 10.945 42.6004 11.4726C42.6491 11.569 42.6965 11.7348 42.7425 11.9699C42.7998 12.2033 42.8738 12.5897 42.9645 13.1291C43.1382 14.3128 43.4008 15.9842 43.7522 18.1436C43.8711 18.8746 43.9427 19.2844 43.9672 19.373L44.004 19.5057C44.0172 19.5959 44.0063 19.6781 43.9711 19.7524C43.92 19.875 43.8293 19.9632 43.699 20.0169C43.5687 20.0705 43.5052 20.1087 43.5085 20.1312C43.5184 20.1988 43.5549 20.2511 43.6179 20.2879C43.6808 20.3247 43.7574 20.3365 43.8476 20.3232C43.9491 20.3084 44.0218 20.3725 44.0659 20.5158C44.1212 20.6573 44.2023 21.0139 44.3092 21.5855C44.481 22.6773 44.5887 23.2545 44.6325 23.3172C44.6875 23.3782 44.7263 23.4071 44.7488 23.4037C44.8277 23.3922 44.9395 23.1339 45.0842 22.6291C45.2259 22.1822 45.4772 21.7365 45.838 21.292C45.9839 21.1094 46.0851 21.014 46.1414 21.0057C46.2091 20.9958 46.3198 20.8874 46.4737 20.6806C46.9546 20.0342 47.4656 19.6713 48.0067 19.5919C48.1758 19.5671 48.349 19.5705 48.5263 19.602C49.5938 19.8138 50.2161 20.5228 50.3931 21.729C50.4791 22.3151 50.372 22.9584 50.0718 23.6589C49.9922 23.9009 49.95 24.0452 49.9454 24.092C49.9105 24.2468 49.8402 24.3953 49.7344 24.5375C49.5775 24.8023 49.4775 24.984 49.4344 25.0824C49.3912 25.1809 49.3128 25.3133 49.199 25.4797C49.0836 25.6348 48.9674 25.7843 48.8503 25.9282C48.7316 26.0607 48.6553 26.1295 48.6215 26.1345C48.2608 26.1874 48.1019 26.3604 48.1449 26.6535C48.1879 26.9466 48.4245 27.3034 48.8548 27.7239C49.0844 27.955 49.2318 28.1349 49.2967 28.2636C49.4312 28.4741 49.5761 28.6371 49.7312 28.7526C49.938 28.9064 50.438 29.4491 51.2311 30.3806C51.4578 30.6698 51.5885 30.9327 51.6232 31.1694C51.648 31.3385 51.6301 31.4909 51.5694 31.6264C51.4688 31.883 51.2664 32.0336 50.962 32.0783ZM45.9218 25.5116C46.0346 25.4951 46.2461 25.4064 46.5565 25.2457C46.7173 25.1646 46.8491 25.0819 46.9519 24.9977C47.2619 24.7564 47.5853 24.4096 47.9219 23.9571C48.1769 23.6548 48.4566 23.4814 48.761 23.4367C48.8399 23.4251 48.8873 23.3951 48.9032 23.3467C48.9288 23.2854 48.9399 23.2435 48.9366 23.2209C48.93 23.1758 48.9073 23.1389 48.8685 23.11C48.8281 23.0699 48.7954 22.9653 48.7706 22.7962C48.7474 22.6384 48.7599 22.5272 48.808 22.4625C48.8674 22.3962 48.8904 22.318 48.8772 22.2278C48.8656 22.1489 48.8243 22.1031 48.7534 22.0905C48.6629 22.0232 48.5933 21.9413 48.5446 21.8448C48.4568 21.6389 48.334 21.5475 48.1762 21.5707C48.0973 21.5823 48.0064 21.6302 47.9036 21.7143C47.7992 21.7872 47.644 21.8676 47.4381 21.9554C47.3287 21.9945 47.2057 22.0586 47.0691 22.1477C47.0177 22.1898 46.9525 22.2167 46.8736 22.2282L46.7697 22.2262C46.7358 22.2312 46.7231 22.2619 46.7313 22.3182C46.7396 22.3746 46.7663 22.3994 46.8114 22.3928C46.8339 22.3895 46.8556 22.3806 46.8765 22.366C46.9087 22.3498 46.9417 22.3392 46.9755 22.3342L47.0093 22.3292C47.0226 22.4194 46.9283 22.6405 46.7267 22.9925C46.6451 23.1427 46.5698 23.2574 46.5008 23.3366C46.3373 23.5564 46.2605 23.7001 46.2704 23.7677C46.2804 23.8353 46.1994 24.1466 46.0275 24.7015C45.8712 25.1275 45.7997 25.3856 45.8129 25.4758C45.8179 25.5096 45.8542 25.5215 45.9218 25.5116ZM56.6156 30.9376C56.4916 30.9558 56.39 30.9304 56.3108 30.8614C56.2332 30.8037 56.1903 30.7467 56.182 30.6903C56.1721 30.6227 56.1333 30.5939 56.0657 30.6038C55.9642 30.6187 55.8429 30.6941 55.7016 30.8299C55.6181 30.8883 55.5199 30.9257 55.4072 30.9422C55.2043 30.972 54.9439 30.9239 54.626 30.7978C54.0757 30.5792 53.6287 30.2014 53.2851 29.6646C52.6713 28.8565 52.2974 27.9959 52.1634 27.0828C52.1204 26.7897 52.117 26.5312 52.1532 26.307C52.1894 26.0829 52.2025 25.9371 52.1926 25.8694C52.186 25.8243 52.1681 25.7809 52.1389 25.7391C52.0548 25.6363 52.0003 25.5004 51.9755 25.3313C51.949 25.1509 51.9308 25.0269 51.9209 24.9593C51.8332 24.3619 51.8321 23.8841 51.9178 23.5261C52.016 23.0971 52.0776 22.7714 52.1026 22.549C52.1547 22.2765 52.2471 22.0038 52.3798 21.731C52.5237 21.4565 52.6219 21.2233 52.6744 21.0314C52.7268 20.8395 52.8605 20.6126 53.0754 20.3507L53.3858 19.9942C53.6601 19.6661 53.8944 19.4187 54.0887 19.252C54.5529 18.8845 54.8583 18.6899 55.0049 18.6684C55.1514 18.6469 55.2978 18.5851 55.444 18.4831C55.5389 18.4231 55.6257 18.3873 55.7046 18.3757C55.761 18.3674 55.819 18.3704 55.8787 18.3847C56.0448 18.4179 56.2366 18.4301 56.454 18.4212C56.6828 18.4106 56.8545 18.443 56.9692 18.5183C57.0935 18.5807 57.2432 18.7372 57.4181 18.9879C57.7031 19.3606 57.8622 19.6597 57.8953 19.8851C57.9135 20.0091 57.8946 20.1155 57.8385 20.2044C57.7808 20.2819 57.7569 20.3545 57.7668 20.4222L57.7937 20.4873C57.8503 20.5596 57.8845 20.6352 57.896 20.7141C57.9142 20.8381 57.8658 21.018 57.7507 21.2536C57.6628 21.4393 57.6118 21.6022 57.5979 21.7424C57.5839 21.8827 57.5305 22.0287 57.4376 22.1805C57.356 22.3307 57.2713 22.4986 57.1834 22.6842C57.1051 22.8569 56.9679 23.021 56.772 23.1764C56.5856 23.3189 56.4301 23.5145 56.3053 23.7631C56.1806 24.0117 56.0957 24.1393 56.0506 24.1459C56.0055 24.1525 55.9414 24.2253 55.8581 24.3642C55.815 24.4626 55.7652 24.516 55.7089 24.5243C55.6863 24.5276 55.6218 24.5198 55.5154 24.5008C55.4186 24.469 55.3364 24.458 55.2688 24.4679C55.2237 24.4746 55.1851 24.486 55.1529 24.5022C55.013 24.5688 54.9521 24.6641 54.9703 24.7881C54.9786 24.8445 55.0029 24.8927 55.0434 24.9328C55.0951 24.9713 55.1234 25.0075 55.1284 25.0413C55.1383 25.1089 55.0983 25.1896 55.0085 25.2834C54.8688 25.4306 54.6366 25.5741 54.3116 25.7139C54.0656 25.8421 53.9773 26.143 54.0468 26.6164C54.1146 27.0786 54.2816 27.5492 54.5477 28.0284C54.825 28.5058 55.1437 28.8333 55.5037 29.0108C55.6618 29.0682 55.8762 29.077 56.1467 29.0373C56.3158 29.0125 56.4655 28.9733 56.5958 28.9196C56.7695 28.848 56.8523 28.7841 56.844 28.7277C56.8357 28.6713 56.9191 28.5727 57.0942 28.4319C57.2789 28.2781 57.3688 28.1843 57.3638 28.1505C57.3589 28.1167 57.3885 28.0835 57.4529 28.0511C57.5268 28.0057 57.5678 27.9709 57.5757 27.9467C57.5741 27.9354 57.5595 27.9145 57.532 27.884C57.5045 27.8535 57.4882 27.8213 57.4833 27.7875C57.4684 27.6861 57.5306 27.5215 57.6699 27.2937L57.946 26.8214C58.1699 26.3855 58.3293 26.1376 58.4241 26.0776C58.519 26.0176 58.5946 25.9835 58.6509 25.9752C58.7862 25.9553 58.9571 25.9821 59.1636 26.0554C59.3702 26.1287 59.5211 26.216 59.6166 26.3171C59.712 26.4183 59.7755 26.5759 59.8069 26.7901C59.8393 27.246 59.6651 27.8243 59.2843 28.525C58.9148 29.2241 58.4914 29.7526 58.0142 30.1105L57.5586 30.4192C57.1667 30.7301 56.8523 30.9029 56.6156 30.9376ZM53.9392 23.7649C53.9843 23.7583 54.1145 23.6643 54.3297 23.483C54.5641 23.2759 54.7094 23.1279 54.7654 23.0391C54.8198 22.939 54.8735 22.8735 54.9266 22.8427C54.9909 22.8102 55.0795 22.7857 55.1922 22.7692C55.5078 22.7228 55.6524 22.6095 55.6259 22.4291C55.6176 22.3728 55.5925 22.3189 55.5504 22.2675C55.5196 22.2144 55.5008 22.1654 55.4942 22.1203C55.4893 22.0865 55.5267 21.9888 55.6067 21.8274C55.7875 21.49 55.8815 21.2286 55.8889 21.0433C55.9058 20.845 55.9094 20.7121 55.8994 20.6444C55.8697 20.4415 55.7871 20.35 55.6519 20.3698C55.5504 20.3847 55.4227 20.4956 55.2688 20.7024C55.1839 20.83 55.0629 20.986 54.9057 21.1703C54.6779 21.4225 54.4228 21.9206 54.1404 22.6644C53.9394 23.1776 53.8521 23.5243 53.8786 23.7047C53.8852 23.7498 53.9054 23.7699 53.9392 23.7649ZM62.9241 29.7872C62.7663 29.8103 62.6092 29.7988 62.4527 29.7527C62.2057 29.6393 62.0147 29.3967 61.8795 29.025C61.754 28.6404 61.673 28.3241 61.6366 28.0761C61.5952 27.7943 61.5829 27.514 61.5995 27.2352C61.6152 27.1062 61.6172 27.0023 61.6056 26.9234C61.5844 26.8574 61.5455 26.7883 61.4888 26.716C61.4142 26.6002 61.3612 26.4353 61.3298 26.2211L61.3124 26.1028C61.2611 25.7533 61.1994 25.4112 61.1272 25.0763L60.7866 23.2263C60.6482 22.4405 60.5252 21.877 60.4176 21.5359C60.3702 21.3701 60.3399 21.2421 60.3267 21.1519C60.3118 21.0505 60.314 20.9868 60.3332 20.961C60.3571 20.8884 60.3351 20.621 60.2673 20.1588L60.1829 19.5839C60.0903 18.9527 60.0871 18.5386 60.1733 18.3417C60.2579 18.1335 60.4411 18.0087 60.7229 17.9674C61.1062 17.9111 61.3681 17.9302 61.5087 18.0248C61.6588 18.1064 61.7851 18.2606 61.8875 18.4874C61.9607 18.6724 62.0198 18.7616 62.0649 18.755L62.1495 18.7425C62.2509 18.7277 62.4205 18.6279 62.6583 18.4433C63.3573 17.9492 63.9506 17.6376 64.4384 17.5084C64.9373 17.3776 65.2939 17.2965 65.5081 17.265C65.9815 17.1956 66.4029 17.2028 66.7722 17.2868C67.3302 17.4007 67.6414 17.6774 67.7059 18.117C67.7224 18.2298 67.7043 18.3418 67.6516 18.4532C67.6085 18.5516 67.5475 18.6067 67.4686 18.6182C67.4573 18.6199 67.3866 18.6878 67.2566 18.8221C67.1028 19.0289 66.8342 19.1604 66.4509 19.2167C66.3382 19.2332 66.2069 19.241 66.0571 19.24C65.9185 19.2373 65.7646 19.2483 65.5956 19.2731C65.1559 19.3377 64.7174 19.4884 64.2801 19.7253C63.6723 20.0563 63.2097 20.4351 62.8923 20.8617C62.5749 21.2883 62.4402 21.6651 62.4882 21.992C62.4981 22.0596 62.5137 22.1264 62.5349 22.1924C62.5674 22.2567 62.5877 22.3171 62.596 22.3734C62.6043 22.4298 62.6004 22.4822 62.5845 22.5306C62.5669 22.5677 62.5623 22.6144 62.5706 22.6708C62.5821 22.7497 62.6139 22.8487 62.6659 22.9677C62.7292 23.0851 62.7791 23.2678 62.8155 23.5158L62.8879 24.127C62.9392 24.4764 62.9885 24.734 63.0359 24.8998C63.0816 25.0543 63.1111 25.1766 63.1243 25.2668C63.1263 25.3587 63.1121 25.4586 63.0819 25.5667C63.0501 25.6635 63.0416 25.7626 63.0565 25.8641L63.0957 26.0138C63.224 26.2598 63.3013 26.473 63.3278 26.6533C63.3526 26.8224 63.3378 26.957 63.2834 27.0571C63.2386 27.1443 63.1987 27.225 63.1635 27.2993L63.3624 27.4774C63.5145 27.6508 63.6162 27.9122 63.6675 28.2617C63.7204 28.6224 63.6933 28.9085 63.5862 29.12C63.5381 29.1846 63.4597 29.317 63.3509 29.5173C63.2885 29.6416 63.2074 29.7168 63.1076 29.743C63.0078 29.7691 62.9467 29.7839 62.9241 29.7872ZM72.7521 28.1374C72.5492 28.1672 72.3382 28.1809 72.119 28.1785C71.8548 28.1828 71.6396 28.1683 71.4736 28.1351C71.3075 28.1019 71.1485 28.0389 70.9967 27.946C70.7852 27.8388 70.5898 27.7236 70.4105 27.6002C70.2408 27.4639 70.1526 27.3732 70.146 27.3281C70.1394 27.283 70.0544 27.1746 69.891 27.0028C69.5755 26.6576 69.372 26.3305 69.2806 26.0215C69.2004 25.7108 69.1521 25.4991 69.1356 25.3864C69.0925 25.0933 69.1239 24.8757 69.2297 24.7335C69.3451 24.5783 69.4367 24.4958 69.5043 24.4859C69.5719 24.476 69.6197 24.5265 69.6475 24.6376C69.6866 24.747 69.7399 24.7968 69.8076 24.7868C69.8752 24.7769 69.9515 24.7081 70.0364 24.5805C70.1309 24.44 70.2345 24.3614 70.3473 24.3449C70.5389 24.3168 70.7442 24.4997 70.9633 24.8936C71.2764 25.4579 71.4631 25.8278 71.5234 26.0032C71.5608 26.1013 71.6506 26.2033 71.7928 26.3091L72.0061 26.4678C72.3327 26.3393 72.5129 26.2725 72.5467 26.2676C72.743 26.1927 72.8781 26.1326 72.9521 26.0872C73.0357 26.0288 73.0765 25.9537 73.0745 25.8619C73.0725 25.7701 73.0624 25.6622 73.0442 25.5382L73.012 25.3184C72.9226 24.7096 72.6278 24.0735 72.1273 23.41C71.6594 22.8108 71.1987 22.4178 70.7452 22.231C70.5983 22.172 70.4512 22.0323 70.3037 21.8122C70.2325 21.719 70.1935 21.6498 70.1869 21.6048C70.1803 21.5597 70.0275 21.4209 69.7285 21.1884C69.4408 20.9543 69.2468 20.7697 69.1463 20.6347C68.7914 20.0996 68.5834 19.6234 68.5222 19.2063C68.4758 18.8907 68.5046 18.6159 68.6084 18.3818C68.7235 18.1462 68.7753 17.9889 68.7637 17.91C68.7505 17.8198 68.8095 17.6729 68.9409 17.4694C69.5064 16.6149 70.2513 16.1198 71.1756 15.9841C71.5363 15.9312 71.8539 15.9767 72.1284 16.1207C72.2172 16.1767 72.4029 16.2646 72.6853 16.3844C72.9306 16.4866 73.1149 16.6438 73.2382 16.856C73.4082 17.0728 73.5101 17.1788 73.5439 17.1738C73.589 17.1672 73.6538 17.2556 73.7383 17.4389C73.8211 17.611 73.8766 17.7929 73.9047 17.9845C73.951 18.3001 73.9236 18.5057 73.8225 18.6011C73.7197 18.6853 73.5781 18.7406 73.3977 18.7671C73.161 18.8019 72.9306 18.8011 72.7065 18.7649C72.5646 18.7397 72.3498 18.61 72.0621 18.3759C71.7857 18.1401 71.6007 18.0175 71.5072 18.0082C71.4234 17.986 71.3589 17.9782 71.3138 17.9848C71.2236 17.998 71.1263 18.0411 71.0219 18.114C70.6409 18.3426 70.476 18.6317 70.5273 18.9811C70.5918 19.4208 70.9975 19.9485 71.7442 20.5644C72.2696 21.0054 72.5914 21.3152 72.7097 21.4936C72.828 21.672 72.8953 21.7773 72.9115 21.8094C73.002 21.8767 73.0698 21.9071 73.1149 21.9005C73.2309 21.9065 73.3431 21.9649 73.4515 22.0756C73.4936 22.127 73.6214 22.2522 73.8348 22.4512C73.9933 22.5891 74.1033 22.7112 74.1649 22.8173C74.2266 22.9234 74.3359 23.0801 74.493 23.2873C74.5901 23.3997 74.6599 23.5219 74.7023 23.6539C74.7559 23.7842 74.8147 23.9886 74.8786 24.2671C74.9737 24.6792 75.0361 24.9867 75.0658 25.1896C75.0956 25.3925 75.0923 25.5658 75.0558 25.7093C75.0305 25.8512 74.9756 26.0262 74.891 26.2344C74.5021 27.3509 73.7892 27.9852 72.7521 28.1374Z" fill="#333333"/>
<defs>
<clipPath id="clip0_2001_11">
<rect width="59.4209" height="17.4767" fill="white" transform="matrix(0.29568 0.955287 0.955287 -0.29568 32 43.2969)"/>
</clipPath>
</defs>
</svg>
