<svg width="79" height="100" viewBox="0 0 79 100" fill="none" xmlns="http://www.w3.org/2000/svg">
<g clip-path="url(#clip0_2001_20)">
<path d="M39.3225 42.8091C40.1638 41.9819 40.9331 41.0826 41.6858 40.1694C42.6403 40.1889 43.5241 40.6207 44.4595 40.7783C45.3573 40.9349 46.253 41.1048 47.1203 41.4032C47.1409 43.5128 47.3267 45.6154 47.6742 47.6994C48.3353 51.5379 48.8911 55.3964 49.8026 59.1826C50.7463 63.1729 51.6126 67.1935 53.0068 71.057C53.5521 72.7586 54.033 74.4928 54.6197 76.1879C55.4059 78.2873 56.3356 80.3297 57.1275 82.4273C57.6983 83.951 58.5225 85.3522 59.2598 86.7928C59.8579 86.7022 60.4575 86.6363 61.0585 86.5951C61.939 86.5556 62.8127 86.2537 63.6964 86.465C63.5642 86.739 63.4487 87.0266 63.2942 87.2886C61.8439 89.293 60.9005 91.6129 59.8572 93.8503C59.2494 95.0712 58.9861 96.6642 57.7448 97.401C56.9801 97.474 56.2318 97.2396 55.4879 97.0794C53.1979 96.4909 50.9025 95.8851 48.6643 95.1231C48.1111 94.9983 47.5615 94.3245 47.9738 93.7939C48.6001 92.8128 48.8581 91.6435 49.4267 90.6362C50.0619 90.1247 50.7996 89.7641 51.488 89.3243C50.1868 87.0632 49.0086 84.7387 47.959 82.3493C46.653 79.3717 45.3831 76.3703 44.4264 73.2594C43.1553 69.2129 42.1049 65.0982 41.2352 60.9464C40.4833 57.3753 40.0794 53.7469 39.7918 50.114C39.1944 47.7232 39.0861 45.2502 39.3225 42.8091ZM41.8933 41.1002C41.3477 41.6407 40.8186 42.1949 40.2655 42.7314C41.7186 42.7791 43.1638 42.9616 44.6096 43.106C44.9624 42.7638 45.3096 42.4234 45.6624 42.0811C44.3834 41.8346 43.0886 41.6371 41.8933 41.1002ZM58.2187 87.2347C57.6342 85.7468 56.8266 84.3594 56.2438 82.8772C55.0715 79.8707 53.7047 76.9371 52.7608 73.8474C51.8413 70.7565 50.769 67.7128 50.0153 64.5768C49.0187 60.4958 48.0147 56.4108 47.4397 52.2497C46.9975 48.9984 46.3324 45.7279 46.5963 42.4344C46.062 42.9714 45.4631 43.4401 44.8242 43.8394C45.0835 46.4798 45.1999 49.1392 45.5681 51.771C46.4955 58.6129 48.2148 65.3294 50.2873 71.905C51.4055 75.5579 52.8219 79.1123 54.3177 82.6231C55.2536 84.7455 56.2157 86.8723 57.5548 88.7753C57.7811 88.2645 57.9999 87.7496 58.2187 87.2347ZM61.1976 88.4665C61.4605 88.1143 61.6176 87.7005 61.8285 87.3203C60.9693 87.4288 60.1049 87.52 59.2489 87.659C59.0295 88.2118 58.7969 88.7624 58.5626 89.3073C59.4431 89.0474 60.3491 88.8299 61.1976 88.4665ZM49.9833 91.1126C49.7663 91.6332 49.5436 92.1555 49.3209 92.6779C50.2933 91.9739 51.2692 91.2813 52.258 90.61C52.1721 90.4729 52.0022 90.2043 51.9146 90.0614C51.2727 90.4112 50.6252 90.7628 49.9833 91.1126ZM42.8421 62.9933C44.0109 67.6508 45.2208 72.3207 46.9836 76.7944C48.4848 80.5428 50.0745 84.2766 52.0843 87.7857C52.7155 88.8436 53.3217 89.9407 54.1942 90.8168C53.8742 91.3252 53.5334 91.8464 53.0249 92.1864C51.9482 92.9542 50.835 93.664 49.7108 94.3583C52.2716 95.2409 54.8853 95.9938 57.542 96.5254C58.5911 94.5067 59.2269 92.2946 60.2649 90.2604C59.3377 90.5096 58.3173 90.838 57.3822 90.441C56.6059 89.9759 56.2174 89.1011 55.7629 88.3538C54.0927 85.2811 52.8254 82.0081 51.5579 78.7541C49.9883 74.7245 48.7319 70.5853 47.6375 66.4086C46.1296 60.8359 44.9234 55.176 44.2717 49.4453C44.0749 47.7681 43.9853 46.0765 43.6927 44.4101C42.5028 44.3312 41.3328 44.0762 40.1512 43.9444C39.9313 45.6373 40.4058 47.3104 40.5311 48.9972C40.9899 53.7044 41.6929 58.399 42.8421 62.9933Z" fill="#333333"/>
</g>
<path d="M8.65805 37.9334C8.25224 37.993 7.93811 38.0103 7.71566 37.9854C7.24822 37.9389 6.86418 37.7937 6.56356 37.5499C6.47307 37.4826 6.3907 37.4314 6.31644 37.3962C6.25181 37.3481 6.20822 37.3257 6.18568 37.329C6.06168 37.3472 5.85252 37.2167 5.5582 36.9375C5.2735 36.6453 5.00157 36.3225 4.74242 35.969C4.4816 35.6043 4.33548 35.3148 4.30405 35.1006C4.27923 34.9315 4.20617 34.7868 4.08486 34.6664C3.82767 34.4048 3.6147 33.6991 3.44594 32.5493C3.34306 31.7698 3.54524 31.3429 4.05251 31.2684C4.36813 31.2221 4.62771 31.2646 4.83123 31.3959C5.00259 31.5435 5.20021 32.0269 5.42409 32.8462C5.56452 33.3323 5.66721 33.6396 5.73215 33.7683C5.7759 33.831 5.81845 34.0032 5.85981 34.285L5.90448 34.5894C5.92103 34.7021 5.98416 34.7792 6.09389 34.8207C6.24405 34.9023 6.40331 35.0459 6.57167 35.2515C6.66712 35.3526 6.77467 35.4577 6.89432 35.5668C7.02524 35.6743 7.14076 35.7552 7.24087 35.8096C7.39102 35.8912 7.58245 36.0186 7.81513 36.1917C8.00738 36.3247 8.14296 36.3854 8.22187 36.3738C8.2895 36.3639 8.34819 36.3322 8.39794 36.2789C8.45895 36.2239 8.52726 36.1793 8.60286 36.1452C8.68973 36.1094 8.76135 36.0874 8.81771 36.0791C8.9868 36.0543 9.10898 35.9845 9.18427 35.8698C9.25791 35.7439 9.371 35.6121 9.52354 35.4746C9.7613 35.29 10.0311 34.8531 10.333 34.1639L10.75 33.2391C10.8714 32.9679 10.8974 32.5956 10.8279 32.1222C10.727 31.4346 10.4827 30.7507 10.095 30.0706C9.70561 29.3793 9.34837 28.8675 9.02323 28.5352C8.70771 28.19 8.15418 27.753 7.36264 27.2244C7.09118 27.0224 6.95379 26.9101 6.95048 26.8876C6.94552 26.8538 6.91801 26.8232 6.86796 26.796C6.8179 26.7688 6.76304 26.7481 6.70337 26.7338C6.64204 26.7083 6.54276 26.6595 6.40553 26.5875C6.26664 26.5043 6.12047 26.4106 5.967 26.3065C5.6309 26.0564 5.38544 25.9139 5.23063 25.8791C5.08543 25.8313 4.8892 25.7104 4.64193 25.5164C4.40428 25.3094 4.17543 25.0839 3.95536 24.8399C3.73529 24.5958 3.57655 24.3773 3.47914 24.1843C3.39299 23.9897 3.29175 23.8491 3.17541 23.7625C2.74686 23.3533 2.46971 22.7203 2.34397 21.8636C2.23116 21.0165 2.2682 20.1705 2.45509 19.3254C2.6516 18.4675 2.98828 17.8193 3.46515 17.3808C3.60807 17.2562 3.77339 17.088 3.96109 16.8762C4.44892 16.3555 5.07046 16.0397 5.82571 15.9289C6.8966 15.7717 7.7595 16.002 8.41443 16.6199C8.64577 16.8623 8.82923 17.0138 8.96481 17.0745C9.11 17.1223 9.25385 17.2394 9.39636 17.4258C9.44341 17.511 9.49527 17.5897 9.55194 17.662C9.60696 17.723 9.65303 17.7623 9.69016 17.7799C9.93277 18.0207 10.2719 18.6445 10.7076 19.6515C10.9077 20.1518 11.0293 20.5486 11.0723 20.8416C11.1169 21.146 11.0937 21.3797 11.0024 21.5428C10.9096 21.6946 10.6796 21.8147 10.3126 21.9031C10.1322 21.9296 9.95886 21.886 9.79247 21.7722C9.62442 21.6472 9.52881 21.5058 9.50565 21.3479C9.4891 21.2352 9.42416 21.1066 9.31082 20.962C9.1892 20.761 9.10306 20.5664 9.05239 20.3781C9.00172 20.1898 8.94324 20.0659 8.87695 20.0066C8.81066 19.9472 8.6786 19.7535 8.48077 19.4256C8.39163 19.289 8.30978 19.1628 8.23522 19.0471C8.17027 18.9184 8.13532 18.8372 8.13036 18.8034C8.11216 18.6794 7.98672 18.5308 7.75403 18.3577C7.52135 18.1846 7.26379 18.0381 6.98136 17.9184C6.70855 17.7857 6.49241 17.7253 6.33294 17.7372C5.63736 17.8623 5.09834 18.2696 4.71589 18.9591C4.33179 19.6373 4.14547 20.2116 4.15694 20.682C4.16841 21.1525 4.18325 21.4497 4.20145 21.5737C4.2941 22.205 4.55553 22.7308 4.98573 23.1513C5.10208 23.2379 5.17814 23.3246 5.21392 23.4115C5.25601 23.4629 5.3498 23.5528 5.49531 23.6811C5.65043 23.7965 5.83058 23.9255 6.03576 24.0682C6.24093 24.2108 6.45904 24.363 6.69007 24.5249C7.15544 24.8711 7.50762 25.1131 7.74661 25.2507C7.91301 25.3645 8.0519 25.4477 8.16327 25.5005C8.51199 25.6796 8.9966 26 9.61709 26.4616C9.85143 26.646 9.97108 26.7551 9.97604 26.789C9.98101 26.8228 10.0846 26.94 10.2868 27.1406C10.4936 27.2945 10.6376 27.4519 10.7188 27.6127C10.8775 27.8312 11.0102 27.9902 11.117 28.0897C11.2916 28.2598 11.4351 28.4921 11.5474 28.7865C11.5994 28.9056 11.6515 29.0246 11.7035 29.1436C11.7651 29.2498 11.8105 29.3237 11.8397 29.3655C12.2072 29.8297 12.4687 30.5916 12.6243 31.6513C12.6855 32.0683 12.7006 32.4461 12.6697 32.7846C12.6464 33.0183 12.6334 33.2045 12.6307 33.3431C12.6157 33.6331 12.5061 34.0235 12.3017 34.5141C12.107 34.9918 11.8839 35.4333 11.6325 35.8387C11.3923 36.2424 11.2046 36.4542 11.0693 36.4741C10.9453 36.4923 10.8369 36.5773 10.744 36.7291C10.6512 36.8809 10.5089 36.9709 10.3173 36.999C10.1369 37.0255 10.0235 37.0767 9.97709 37.1526C9.929 37.2172 9.8471 37.2868 9.73137 37.3614C9.6687 37.4051 9.63902 37.4383 9.64233 37.4608L9.66172 37.4752C9.75686 37.4958 9.80692 37.523 9.81188 37.5568C9.82346 37.6357 9.63446 37.721 9.24489 37.8128C9.06784 37.8618 8.87223 37.902 8.65805 37.9334ZM18.9491 46.735C18.8025 46.7565 18.626 46.7306 18.4195 46.6573C18.1871 46.5647 18.0086 46.4469 17.884 46.304C17.7723 46.1707 17.6737 45.8915 17.5883 45.4665C17.5029 45.0414 17.3842 44.3507 17.2323 43.3942C17.0652 42.2557 16.8953 41.2154 16.7225 40.2735L16.2086 37.3607C16.1292 36.8196 16.095 36.508 16.106 36.4258C16.1282 36.3419 16.1343 36.2661 16.1244 36.1985C16.1178 36.1534 16.0999 36.11 16.0707 36.0682C15.9915 35.9992 15.7151 34.5083 15.2415 31.5953L15.182 31.1895C15.1092 30.6935 15.0503 30.2531 15.0053 29.8681L14.9552 29.4091C14.9072 29.0822 14.8735 28.8914 14.8539 28.8367C14.789 28.7081 14.735 28.4972 14.692 28.2041C14.6357 27.8208 14.6155 27.369 14.6312 26.8485C14.6339 26.7099 14.6303 26.6068 14.6203 26.5391C14.5991 26.4732 14.5675 26.4145 14.5254 26.3631C14.4542 26.2699 14.4086 26.1557 14.3888 26.0204C14.3424 25.7048 14.4241 25.3588 14.6337 24.9826C14.7617 24.7566 14.9103 24.6311 15.0794 24.6063C15.6543 24.5219 16.0556 24.9812 16.2835 25.9841L16.5288 26.95C16.5696 27.0706 16.6125 27.1277 16.6576 27.1211C16.7703 27.1045 16.8778 26.9736 16.9799 26.7283C17.0118 26.6315 17.0228 26.5493 17.0128 26.4816C16.9946 26.3576 16.9983 26.265 17.0239 26.2037C17.0494 26.1423 17.1096 26.0817 17.2044 26.0217C17.3056 25.9262 17.3855 25.7648 17.4443 25.5374C17.4791 25.3826 17.5198 25.2672 17.5662 25.1913C17.6239 25.1138 17.7058 25.0442 17.8119 24.9825C17.979 24.8659 18.0689 24.7721 18.0815 24.7011C18.0941 24.6302 18.1752 24.555 18.3248 24.4754L18.8192 24.1956C18.9767 24.0919 19.0892 24.035 19.1569 24.0251C19.2696 24.0086 19.4574 24.0328 19.7203 24.0979C20.0654 24.1739 20.2782 24.2118 20.3588 24.2114C20.5103 24.2238 20.6653 24.2989 20.8237 24.4368C20.9934 24.5732 21.1148 24.7338 21.1881 24.9188C21.2709 25.0909 21.373 25.2371 21.4943 25.3575C21.6252 25.465 21.7508 25.6538 21.8711 25.9241C21.9913 26.1943 22.0924 26.4904 22.1742 26.8123C22.199 26.9814 22.2551 27.1286 22.3426 27.2539C22.3605 27.2974 22.3885 27.4487 22.4265 27.708C22.4759 27.9656 22.5245 28.2579 22.5725 28.5848C22.674 29.4335 22.7129 29.8942 22.689 29.9668C22.6651 30.0394 22.6634 30.2239 22.6838 30.5203C22.6966 30.9214 22.6067 31.4068 22.4139 31.9763C22.3326 32.207 22.2598 32.3386 22.1955 32.3711C22.1424 32.4019 22.1192 32.4398 22.1258 32.4849C22.1291 32.5075 22.1445 32.534 22.172 32.5645C22.24 32.6351 22.2806 32.7155 22.2938 32.8057C22.3517 33.2003 22.0255 33.8412 21.3151 34.7285C20.8581 35.3022 20.173 35.6561 19.26 35.7901C18.9669 35.8331 18.6471 35.8513 18.3007 35.8446L18.1629 35.8475C18.0727 35.8607 18.0157 35.9037 17.9918 35.9763C17.9775 36.0359 17.9812 36.139 18.0027 36.2856L18.1581 37.1091C18.1862 37.3008 18.1812 37.4627 18.143 37.595C18.1161 37.7256 18.1068 37.8191 18.1151 37.8755C18.1234 37.9318 18.164 38.0122 18.2369 38.1167C18.3211 38.2195 18.3969 38.4617 18.4644 38.8433L18.7266 40.3939L19.0115 42.2176C19.0545 42.5107 19.0624 42.6822 19.0352 42.7323C19.0097 42.7936 18.9865 42.8316 18.9656 42.8461C18.9576 42.8703 18.9488 42.8889 18.9392 42.9018C18.8702 42.981 18.8374 43.0319 18.8407 43.0545C18.8423 43.0657 18.8657 43.0681 18.9108 43.0615C18.9559 43.0548 19.0076 43.0933 19.0659 43.1769C19.1259 43.2717 19.1658 43.3868 19.1857 43.522C19.275 44.1307 19.3897 44.6378 19.5299 45.0433C19.5723 45.1753 19.6026 45.3033 19.6208 45.4273C19.6803 45.8331 19.6196 46.1644 19.4385 46.4213C19.3151 46.6006 19.152 46.7052 18.9491 46.735ZM18.9626 33.8819C19.143 33.8555 19.3376 33.7693 19.5465 33.6235C20.4146 33.1046 20.7999 31.885 20.7023 29.9647C20.6848 29.6103 20.6741 29.3413 20.6702 29.1576C20.6663 28.9739 20.6641 28.8418 20.6638 28.7613C20.6731 28.6678 20.6866 28.6025 20.7042 28.5653C20.7201 28.5169 20.7247 28.4702 20.7181 28.4251C20.7032 28.3237 20.665 28.2199 20.6033 28.1138C20.4947 27.9225 20.4034 27.6537 20.3296 27.3076C20.2541 26.9502 20.1613 26.7105 20.0513 26.5884L19.7356 26.2029C19.6385 26.0905 19.5167 26.0451 19.3701 26.0666C19.0545 26.1129 18.8353 26.3063 18.7125 26.6467L18.3294 27.5666C18.1217 28.0347 18.027 28.3307 18.0452 28.4547C18.0617 28.5674 18.0196 28.7118 17.9187 28.8878C17.8179 29.0638 17.7724 29.1856 17.7824 29.2533L17.7923 29.3209C17.7989 29.366 17.7936 29.4474 17.7763 29.5651C17.759 29.6828 17.7313 29.8077 17.6932 29.94C17.655 30.0723 17.6127 30.1764 17.5663 30.2523C17.5294 30.3153 17.5226 30.4257 17.5458 30.5835L17.5582 30.668C17.5764 30.792 17.5792 30.8895 17.5666 30.9604C17.5539 31.0314 17.5131 31.1064 17.4442 31.1857C17.3752 31.2649 17.3118 31.3433 17.2541 31.4208C17.4113 32.4917 17.5152 33.1213 17.5659 33.3096C17.6149 33.4867 17.679 33.6097 17.7582 33.6787C17.8487 33.746 17.9714 33.7971 18.1262 33.832C18.4584 33.8984 18.6752 33.9241 18.7766 33.9092L18.9626 33.8819ZM28.6486 34.9131C28.5246 34.9313 28.423 34.9059 28.3438 34.8369C28.2662 34.7792 28.2233 34.7221 28.2151 34.6658C28.2051 34.5982 28.1663 34.5693 28.0987 34.5792C27.9973 34.5941 27.8759 34.6695 27.7346 34.8054C27.6511 34.8637 27.5529 34.9012 27.4402 34.9177C27.2373 34.9475 26.9769 34.8993 26.659 34.7733C26.1087 34.5546 25.6618 34.1769 25.3181 33.64C24.7043 32.8319 24.3305 31.9713 24.1964 31.0583C24.1534 30.7652 24.15 30.5066 24.1862 30.2825C24.2224 30.0584 24.2356 29.9125 24.2256 29.8449C24.219 29.7998 24.2011 29.7564 24.172 29.7146C24.0878 29.6118 24.0333 29.4758 24.0085 29.3068C23.982 29.1264 23.9638 29.0024 23.9539 28.9348C23.8662 28.3373 23.8652 27.8596 23.9508 27.5016C24.0491 27.0726 24.1106 26.7469 24.1356 26.5244C24.1877 26.2519 24.2801 25.9793 24.4128 25.7065C24.5568 25.432 24.655 25.1988 24.7074 25.0068C24.7598 24.8149 24.8935 24.588 25.1084 24.3262L25.4188 23.9697C25.6931 23.6416 25.9274 23.3941 26.1217 23.2274C26.5859 22.8599 26.8913 22.6654 27.0379 22.6439C27.1844 22.6224 27.3308 22.5606 27.477 22.4585C27.5719 22.3985 27.6587 22.3627 27.7377 22.3512C27.794 22.3429 27.852 22.3459 27.9117 22.3602C28.0778 22.3934 28.2696 22.4055 28.4871 22.3966C28.7158 22.3861 28.8875 22.4185 29.0022 22.4937C29.1265 22.5561 29.2762 22.7126 29.4512 22.9633C29.7362 23.336 29.8952 23.6351 29.9283 23.8606C29.9465 23.9846 29.9276 24.091 29.8715 24.1798C29.8138 24.2574 29.7899 24.33 29.7999 24.3976L29.8267 24.4628C29.8834 24.5351 29.9175 24.6107 29.9291 24.6896C29.9473 24.8136 29.8988 24.9934 29.7837 25.2291C29.6958 25.4147 29.6449 25.5776 29.6309 25.7179C29.6169 25.8581 29.5635 26.0041 29.4706 26.1559C29.389 26.3061 29.3043 26.474 29.2164 26.6596C29.1381 26.8323 29.001 26.9964 28.805 27.1518C28.6186 27.2943 28.4631 27.4899 28.3384 27.7385C28.2136 27.9871 28.1287 28.1147 28.0836 28.1214C28.0385 28.128 27.9744 28.2007 27.8911 28.3396C27.848 28.4381 27.7982 28.4914 27.7419 28.4997C27.7193 28.503 27.6549 28.4952 27.5484 28.4763C27.4516 28.4444 27.3694 28.4335 27.3018 28.4434C27.2567 28.45 27.2181 28.4614 27.1859 28.4777C27.046 28.5443 26.9851 28.6396 27.0033 28.7636C27.0116 28.8199 27.036 28.8682 27.0764 28.9083C27.1281 28.9468 27.1564 28.9829 27.1614 29.0167C27.1713 29.0844 27.1314 29.1651 27.0415 29.2589C26.9019 29.406 26.6696 29.5495 26.3446 29.6893C26.0986 29.8176 26.0103 30.1184 26.0798 30.5918C26.1477 31.054 26.3146 31.5247 26.5807 32.0038C26.8581 32.4813 27.1767 32.8088 27.5367 32.9862C27.6948 33.0436 27.9092 33.0525 28.1797 33.0128C28.3488 32.988 28.4985 32.9487 28.6288 32.895C28.8026 32.8235 28.8853 32.7595 28.877 32.7032C28.8687 32.6468 28.9521 32.5482 29.1272 32.4073C29.3119 32.2536 29.4018 32.1598 29.3968 32.1259C29.3919 32.0921 29.4216 32.059 29.4859 32.0265C29.5598 31.9811 29.6008 31.9463 29.6088 31.9221C29.6071 31.9108 29.5925 31.8899 29.565 31.8594C29.5375 31.8289 29.5213 31.7968 29.5163 31.763C29.5014 31.6615 29.5636 31.4969 29.7029 31.2692L29.9791 30.7968C30.203 30.3609 30.3623 30.113 30.4572 30.053C30.552 29.993 30.6276 29.9589 30.684 29.9506C30.8192 29.9308 30.9901 29.9575 31.1966 30.0309C31.4032 30.1042 31.5542 30.1914 31.6496 30.2926C31.7451 30.3937 31.8085 30.5514 31.8399 30.7655C31.8723 31.2214 31.6981 31.7997 31.3173 32.5004C30.9478 33.1995 30.5244 33.728 30.0473 34.086L29.5916 34.3947C29.1997 34.7055 28.8853 34.8783 28.6486 34.9131ZM25.9722 27.7403C26.0173 27.7337 26.1475 27.6398 26.3627 27.4585C26.5971 27.2513 26.7424 27.1034 26.7984 27.0145C26.8528 26.9144 26.9066 26.849 26.9596 26.8181C27.0239 26.7857 27.1125 26.7612 27.2252 26.7446C27.5408 26.6983 27.6854 26.5849 27.6589 26.4046C27.6507 26.3482 27.6255 26.2943 27.5834 26.2429C27.5526 26.1899 27.5339 26.1408 27.5272 26.0957C27.5223 26.0619 27.5598 25.9643 27.6397 25.8029C27.8205 25.4654 27.9145 25.204 27.9219 25.0187C27.9389 24.8204 27.9424 24.6875 27.9324 24.6199C27.9027 24.417 27.8201 24.3254 27.6849 24.3453C27.5834 24.3602 27.4558 24.471 27.3019 24.6779C27.217 24.8055 27.0959 24.9614 26.9387 25.1457C26.7109 25.398 26.4558 25.896 26.1734 26.6399C25.9724 27.153 25.8851 27.4998 25.9116 27.6801C25.9182 27.7252 25.9384 27.7453 25.9722 27.7403ZM40.684 33.4748C40.5037 33.5013 40.3255 33.4641 40.1495 33.3633C40.0089 33.2687 39.9039 33.1805 39.8343 33.0986C39.7743 33.0038 39.7238 32.8557 39.6827 32.6545C39.6417 32.4532 39.5897 32.1384 39.5268 31.7101C39.4756 31.3606 39.4423 31.0949 39.4271 30.9129C39.4103 30.7196 39.4025 30.5883 39.4039 30.519C39.4148 30.4368 39.4387 30.3642 39.4755 30.3012C39.5107 30.227 39.5241 30.1617 39.5159 30.1053C39.5109 30.0715 39.5011 30.0441 39.4865 30.0233C39.4216 29.8946 39.3621 29.7248 39.3082 29.514C39.2476 29.258 39.1947 29.1333 39.1496 29.14C39.1045 29.1466 39.046 29.2185 38.974 29.3557L38.6113 29.9444C38.27 30.4436 38.1035 30.7214 38.1118 30.7778C38.1201 30.8341 37.9254 31.116 37.5277 31.6235C37.1414 32.1293 36.9144 32.3872 36.8467 32.3971C36.7791 32.407 36.7093 32.4806 36.6373 32.6178C36.5269 32.8068 36.3824 32.9604 36.204 33.0787C36.024 33.1857 35.8663 33.2492 35.7311 33.269C35.6747 33.2773 35.6119 33.2808 35.5426 33.2794C35.4716 33.2668 35.408 33.2646 35.3516 33.2729C35.2614 33.2861 35.1384 33.3502 34.9826 33.4652C34.838 33.5786 34.6643 33.6501 34.4613 33.6799C34.281 33.7064 34.0836 33.6951 33.8691 33.6459C33.4401 33.5477 33.1501 33.3369 32.999 33.0136C32.9566 32.8817 32.8391 32.7089 32.6466 32.4954C32.4636 32.2689 32.3589 32.0654 32.3324 31.8851C32.3159 31.7724 32.334 31.6603 32.3867 31.5489C32.4216 31.3941 32.4332 31.2773 32.4217 31.1983C32.4084 31.1082 32.4114 31.0502 32.4307 31.0243C32.4612 30.9968 32.5159 30.9772 32.5948 30.9657C32.7864 30.9375 32.8748 30.8727 32.8599 30.7713C32.8483 30.6924 32.7643 30.6299 32.6078 30.5837C32.5481 30.5695 32.5014 30.5648 32.4676 30.5698C32.4338 30.5747 32.4119 30.5434 32.402 30.4758C32.3755 30.2954 32.4651 29.9253 32.6708 29.3654C32.9545 28.5522 33.2136 28.0421 33.448 27.8349C33.5525 27.762 33.672 27.6351 33.8067 27.4541C33.8899 27.3152 34.0561 27.1527 34.3051 26.9664C34.5366 26.8173 34.6868 26.7031 34.7558 26.6239C34.8247 26.5447 34.9991 26.4385 35.279 26.3053C35.5701 26.1704 35.8316 26.0687 36.0633 26.0002C36.3932 25.8942 36.5839 25.8201 36.6353 25.778C36.7994 25.7194 37.1464 25.6512 37.6762 25.5735L37.8452 25.5486C38.2736 25.4858 38.5166 25.4155 38.5743 25.338C38.6433 25.2588 38.6687 25.1572 38.6505 25.0332C38.6323 24.9092 38.581 24.7555 38.4965 24.5721C38.2848 23.9929 38.0641 23.5877 37.8344 23.3566C37.6031 23.1141 37.29 22.9816 36.8951 22.959C36.6614 22.9357 36.4663 22.901 36.3099 22.8549C36.163 22.7958 36.0147 22.7658 35.8648 22.7647C35.6361 22.7753 35.4804 22.7348 35.3979 22.6432C35.2832 22.568 35.1864 22.5361 35.1075 22.5477C34.9948 22.5642 34.9372 22.6821 34.9348 22.9012C34.9514 23.0139 34.9477 23.1066 34.9238 23.1792C34.8999 23.2518 34.843 23.335 34.7532 23.4288C34.6039 23.5889 34.5152 23.7689 34.487 23.9688C34.4571 24.1574 34.4076 24.2913 34.3387 24.3705C34.2793 24.4368 34.1763 24.4807 34.0298 24.5022C33.8945 24.5221 33.8302 24.5546 33.8368 24.5997L33.8885 24.8339C33.9183 25.0368 33.8204 25.1548 33.595 25.1879C33.471 25.2061 33.3235 25.1817 33.1524 25.1147C32.7844 24.9614 32.5732 24.6988 32.5186 24.3268C32.4921 24.1464 32.4978 23.9498 32.5357 23.737C32.5971 23.371 32.725 23.1046 32.9193 22.9379C33.0655 22.8359 33.1489 22.7373 33.1695 22.6421C33.2027 22.476 33.3534 22.2869 33.6217 22.0748C33.8996 21.8498 34.2211 21.6472 34.5861 21.4669C35.0268 21.2525 35.4557 21.1147 35.8728 21.0535C37.4396 20.8236 38.5788 21.2494 39.2903 22.3311C39.4182 22.4965 39.5016 22.5937 39.5404 22.6225C39.7309 22.7443 39.931 23.2446 40.1407 24.1235C40.3486 24.9912 40.5221 25.8985 40.6611 26.8454L40.8079 27.9638C40.9039 28.6176 40.9873 29.1466 41.0581 29.5508C41.1806 30.3849 41.2647 31.1153 41.3106 31.7419C41.3678 32.3669 41.3798 32.7624 41.3466 32.9285C41.2557 33.1721 41.1338 33.3224 40.981 33.3794C40.8394 33.4347 40.7404 33.4665 40.684 33.4748ZM34.6862 31.7987C34.7876 31.7838 34.9179 31.7302 35.0771 31.6377C35.2346 31.534 35.4545 31.306 35.7367 30.9536C36.0302 30.5996 36.3043 30.2312 36.559 29.8484C36.825 29.4639 36.9851 29.1813 37.0391 29.0006C37.0932 28.82 37.173 28.6182 37.2785 28.3955C37.3827 28.242 37.4682 28.0798 37.5353 27.9087C37.6119 27.7247 37.6461 27.6046 37.6378 27.5482C37.6312 27.5031 37.5546 27.4913 37.4081 27.5128C36.7092 27.6154 36.0764 27.9328 35.5096 28.4651C35.2254 28.7256 35.0185 28.9632 34.8888 29.178C34.5578 29.8254 34.3597 30.2806 34.2946 30.5434C34.2279 30.7951 34.2078 31.011 34.2343 31.1914C34.2508 31.3041 34.2835 31.4087 34.3322 31.5052C34.3941 31.6919 34.4549 31.7924 34.5146 31.8066C34.5839 31.808 34.6411 31.8053 34.6862 31.7987ZM50.962 31.949C50.8381 31.9672 50.6995 31.9645 50.5463 31.941C50.3239 31.916 50.0259 31.7295 49.6523 31.3812C49.4939 31.2433 49.4081 31.1292 49.3948 31.039C49.3915 31.0165 49.393 30.9875 49.3993 30.952C49.404 30.9053 49.403 30.8594 49.3964 30.8143C49.3716 30.6452 49.3028 30.5689 49.1901 30.5854C49.0886 30.6003 48.9603 30.5501 48.8052 30.4347C48.6501 30.3192 48.4884 30.1587 48.32 29.9531C48.1629 29.7459 48.0181 29.5829 47.8855 29.4642C47.7625 29.3325 47.6911 29.1991 47.6713 29.0638C47.658 28.9736 47.6377 28.9133 47.6102 28.8828C47.5939 28.8506 47.5512 28.8338 47.4819 28.8325C47.4239 28.8295 47.3156 28.759 47.1572 28.6211C47.01 28.4814 46.8621 28.3362 46.7132 28.1853C46.574 28.0215 46.4987 27.9001 46.4871 27.8212C46.4656 27.6747 46.4072 27.5911 46.3121 27.5705C46.2282 27.5483 46.1187 27.5471 45.9834 27.567C45.4198 27.6497 45.1537 27.7981 45.1851 28.0123C45.1934 28.0687 45.2258 28.133 45.2825 28.2053C45.3766 28.3757 45.4541 28.6292 45.515 28.9657C45.6474 29.8675 45.7298 30.5463 45.7621 31.0022C45.7981 31.5612 45.7826 31.9262 45.7156 32.0972C45.6068 32.2974 45.4799 32.4139 45.335 32.4467L45.0814 32.484C44.8334 32.5203 44.6133 32.472 44.421 32.3391C44.1883 32.1659 44.0367 31.9176 43.9662 31.594L43.8173 30.5795C43.7809 30.3315 43.7459 30.0142 43.7122 29.6276C43.6774 29.3909 43.6077 29.0729 43.5031 28.6737L43.4832 28.5385C43.4276 28.3163 43.3907 28.1433 43.3725 28.0193C43.3576 27.9178 43.3798 27.8339 43.4392 27.7676C43.5082 27.6884 43.5344 27.5925 43.5178 27.4797C43.5046 27.3896 43.4551 27.2874 43.3692 27.1734C43.3271 27.122 43.2774 26.9796 43.2202 26.7461C43.1907 26.6238 43.0957 26.0159 42.9352 24.9225L42.7178 23.6762C42.6814 23.4282 42.6728 23.2913 42.692 23.2654C42.7096 23.2283 42.7401 23.2008 42.7835 23.1829C42.827 23.165 42.8454 23.1335 42.8388 23.0884C42.8338 23.0546 42.7989 22.9734 42.7339 22.8447C42.6802 22.7144 42.6426 22.576 42.6211 22.4295L42.5963 22.2604C42.5715 22.0913 42.5185 21.9263 42.4373 21.7655C42.3658 21.5918 42.3209 21.4429 42.3027 21.3189C42.2911 21.24 42.2908 21.1594 42.3018 21.0772C42.324 20.9934 42.3302 20.9176 42.3202 20.85C42.312 20.7936 42.2932 20.7445 42.2641 20.7028C42.1829 20.5419 41.9041 18.8383 41.4276 15.5918C41.2108 14.1151 41.1167 13.3171 41.1453 13.1978C41.1741 13.159 41.1853 13.1171 41.1786 13.072C41.172 13.0269 41.1404 12.9682 41.0837 12.8959C41.0254 12.8123 40.9846 12.6917 40.9615 12.5338C40.9135 12.2069 40.909 11.8621 40.9479 11.4995C40.9991 10.9853 41.2276 10.6984 41.6334 10.6388C42.0279 10.5809 42.3502 10.8158 42.6004 11.3433C42.6491 11.4398 42.6965 11.6056 42.7425 11.8406C42.7998 12.074 42.8738 12.4604 42.9645 12.9999C43.1382 14.1835 43.4008 15.855 43.7522 18.0143C43.8711 18.7454 43.9427 19.1552 43.9672 19.2437L44.004 19.3765C44.0172 19.4666 44.0063 19.5489 43.9711 19.6231C43.92 19.7458 43.8293 19.8339 43.699 19.8876C43.5687 19.9413 43.5052 19.9794 43.5085 20.0019C43.5184 20.0696 43.5549 20.1218 43.6179 20.1586C43.6808 20.1954 43.7574 20.2072 43.8476 20.194C43.9491 20.1791 44.0218 20.2433 44.0659 20.3865C44.1212 20.5281 44.2023 20.8847 44.3092 21.4562C44.481 22.548 44.5887 23.1252 44.6325 23.1879C44.6875 23.2489 44.7263 23.2778 44.7488 23.2745C44.8277 23.2629 44.9395 23.0047 45.0842 22.4998C45.2259 22.0529 45.4772 21.6072 45.838 21.1628C45.9839 20.9801 46.0851 20.8847 46.1414 20.8764C46.2091 20.8665 46.3198 20.7581 46.4737 20.5513C46.9546 19.9049 47.4656 19.5421 48.0067 19.4626C48.1758 19.4378 48.349 19.4412 48.5263 19.4727C49.5938 19.6845 50.2161 20.3935 50.3931 21.5997C50.4791 22.1859 50.372 22.8292 50.0718 23.5296C49.9922 23.7716 49.95 23.916 49.9454 23.9627C49.9105 24.1175 49.8402 24.266 49.7344 24.4082C49.5775 24.6731 49.4775 24.8547 49.4344 24.9532C49.3912 25.0516 49.3128 25.184 49.199 25.3504C49.0836 25.5056 48.9674 25.655 48.8503 25.7989C48.7316 25.9315 48.6553 26.0002 48.6215 26.0052C48.2608 26.0582 48.1019 26.2312 48.1449 26.5243C48.1879 26.8173 48.4245 27.1741 48.8548 27.5946C49.0844 27.8258 49.2318 28.0057 49.2967 28.1343C49.4312 28.3449 49.5761 28.5079 49.7312 28.6233C49.938 28.7772 50.438 29.3199 51.2311 30.2513C51.4578 30.5405 51.5885 30.8034 51.6232 31.0402C51.648 31.2093 51.6301 31.3616 51.5694 31.4972C51.4688 31.7537 51.2664 31.9044 50.962 31.949ZM45.9218 25.3823C46.0346 25.3658 46.2461 25.2772 46.5565 25.1165C46.7173 25.0353 46.8491 24.9526 46.9519 24.8684C47.2619 24.6272 47.5853 24.2803 47.9219 23.8279C48.1769 23.5256 48.4566 23.3521 48.761 23.3074C48.8399 23.2958 48.8873 23.2659 48.9032 23.2175C48.9288 23.1561 48.9399 23.1142 48.9366 23.0917C48.93 23.0466 48.9073 23.0096 48.8685 22.9807C48.8281 22.9406 48.7954 22.836 48.7706 22.6669C48.7474 22.5091 48.7599 22.3979 48.808 22.3332C48.8674 22.267 48.8904 22.1887 48.8772 22.0985C48.8656 22.0196 48.8243 21.9739 48.7534 21.9613C48.6629 21.8939 48.5933 21.812 48.5446 21.7155C48.4568 21.5096 48.334 21.4183 48.1762 21.4414C48.0973 21.453 48.0064 21.5009 47.9036 21.5851C47.7992 21.658 47.644 21.7383 47.4381 21.8261C47.3287 21.8652 47.2057 21.9293 47.0691 22.0185C47.0177 22.0606 46.9525 22.0874 46.8736 22.099L46.7697 22.097C46.7358 22.1019 46.7231 22.1326 46.7313 22.1889C46.7396 22.2453 46.7663 22.2702 46.8114 22.2636C46.8339 22.2602 46.8556 22.2513 46.8765 22.2367C46.9087 22.2205 46.9417 22.2099 46.9755 22.2049L47.0093 22.2C47.0226 22.2901 46.9283 22.5112 46.7267 22.8633C46.6451 23.0134 46.5698 23.1281 46.5008 23.2073C46.3373 23.4271 46.2605 23.5708 46.2704 23.6384C46.2804 23.7061 46.1994 24.0173 46.0275 24.5723C45.8712 24.9982 45.7997 25.2563 45.8129 25.3465C45.8179 25.3803 45.8542 25.3923 45.9218 25.3823ZM56.6156 30.8083C56.4916 30.8265 56.39 30.8012 56.3108 30.7322C56.2332 30.6745 56.1903 30.6174 56.182 30.5611C56.1721 30.4934 56.1333 30.4646 56.0657 30.4745C55.9642 30.4894 55.8429 30.5648 55.7016 30.7007C55.6181 30.759 55.5199 30.7964 55.4072 30.813C55.2043 30.8428 54.9439 30.7946 54.626 30.6685C54.0757 30.4499 53.6287 30.0722 53.2851 29.5353C52.6713 28.7272 52.2974 27.8666 52.1634 26.9536C52.1204 26.6605 52.117 26.4019 52.1532 26.1778C52.1894 25.9537 52.2025 25.8078 52.1926 25.7402C52.186 25.6951 52.1681 25.6516 52.1389 25.6099C52.0548 25.5071 52.0003 25.3711 51.9755 25.202C51.949 25.0217 51.9308 24.8977 51.9209 24.83C51.8332 24.2326 51.8321 23.7549 51.9178 23.3968C52.016 22.9679 52.0776 22.6422 52.1026 22.4197C52.1547 22.1472 52.2471 21.8746 52.3798 21.6017C52.5237 21.3273 52.6219 21.0941 52.6744 20.9021C52.7268 20.7102 52.8605 20.4833 53.0754 20.2214L53.3858 19.865C53.6601 19.5368 53.8944 19.2894 54.0887 19.1227C54.5529 18.7552 54.8583 18.5607 55.0049 18.5392C55.1514 18.5176 55.2978 18.4559 55.444 18.3538C55.5389 18.2938 55.6257 18.258 55.7046 18.2464C55.761 18.2382 55.819 18.2412 55.8787 18.2554C56.0448 18.2886 56.2366 18.3008 56.454 18.2919C56.6828 18.2814 56.8545 18.3137 56.9692 18.389C57.0935 18.4514 57.2432 18.6079 57.4181 18.8586C57.7031 19.2313 57.8622 19.5304 57.8953 19.7559C57.9135 19.8798 57.8946 19.9863 57.8385 20.0751C57.7808 20.1527 57.7569 20.2253 57.7668 20.2929L57.7937 20.358C57.8503 20.4303 57.8845 20.5059 57.896 20.5848C57.9142 20.7088 57.8658 20.8887 57.7507 21.1244C57.6628 21.31 57.6118 21.4729 57.5979 21.6132C57.5839 21.7534 57.5305 21.8994 57.4376 22.0512C57.356 22.2014 57.2713 22.3693 57.1834 22.5549C57.1051 22.7276 56.9679 22.8917 56.772 23.0471C56.5856 23.1896 56.4301 23.3852 56.3053 23.6338C56.1806 23.8824 56.0957 24.01 56.0506 24.0166C56.0055 24.0233 55.9414 24.096 55.8581 24.2349C55.815 24.3334 55.7652 24.3867 55.7089 24.395C55.6863 24.3983 55.6218 24.3905 55.5154 24.3716C55.4186 24.3397 55.3364 24.3287 55.2688 24.3387C55.2237 24.3453 55.1851 24.3567 55.1529 24.3729C55.013 24.4395 54.9521 24.5348 54.9703 24.6588C54.9786 24.7152 55.0029 24.7634 55.0434 24.8036C55.0951 24.842 55.1234 24.8782 55.1284 24.912C55.1383 24.9796 55.0983 25.0604 55.0085 25.1542C54.8688 25.3013 54.6366 25.4448 54.3116 25.5846C54.0656 25.7128 53.9773 26.0137 54.0468 26.4871C54.1146 26.9493 54.2816 27.42 54.5477 27.8991C54.825 28.3766 55.1437 28.704 55.5037 28.8815C55.6618 28.9389 55.8762 28.9478 56.1467 28.9081C56.3158 28.8832 56.4655 28.844 56.5958 28.7903C56.7695 28.7188 56.8523 28.6548 56.844 28.5984C56.8357 28.5421 56.9191 28.4435 57.0942 28.3026C57.2789 28.1488 57.3688 28.055 57.3638 28.0212C57.3589 27.9874 57.3885 27.9543 57.4529 27.9218C57.5268 27.8764 57.5678 27.8416 57.5757 27.8174C57.5741 27.8061 57.5595 27.7852 57.532 27.7547C57.5045 27.7242 57.4882 27.6921 57.4833 27.6582C57.4684 27.5568 57.5306 27.3922 57.6699 27.1645L57.946 26.6921C58.1699 26.2562 58.3293 26.0083 58.4241 25.9483C58.519 25.8883 58.5946 25.8542 58.6509 25.8459C58.7862 25.8261 58.9571 25.8528 59.1636 25.9261C59.3702 25.9995 59.5211 26.0867 59.6166 26.1878C59.712 26.289 59.7755 26.4466 59.8069 26.6608C59.8393 27.1167 59.6651 27.695 59.2843 28.3957C58.9148 29.0948 58.4914 29.6233 58.0142 29.9812L57.5586 30.2899C57.1667 30.6008 56.8523 30.7736 56.6156 30.8083ZM53.9392 23.6356C53.9843 23.629 54.1145 23.535 54.3297 23.3538C54.5641 23.1466 54.7094 22.9986 54.7654 22.9098C54.8198 22.8097 54.8735 22.7442 54.9266 22.7134C54.9909 22.6809 55.0795 22.6564 55.1922 22.6399C55.5078 22.5936 55.6524 22.4802 55.6259 22.2999C55.6176 22.2435 55.5925 22.1896 55.5504 22.1382C55.5196 22.0852 55.5008 22.0361 55.4942 21.991C55.4893 21.9572 55.5267 21.8596 55.6067 21.6981C55.7875 21.3607 55.8815 21.0993 55.8889 20.914C55.9058 20.7157 55.9094 20.5828 55.8994 20.5152C55.8697 20.3122 55.7871 20.2207 55.6519 20.2406C55.5504 20.2555 55.4227 20.3663 55.2688 20.5732C55.1839 20.7008 55.0629 20.8567 54.9057 21.041C54.6779 21.2932 54.4228 21.7913 54.1404 22.5352C53.9394 23.0483 53.8521 23.3951 53.8786 23.5754C53.8852 23.6205 53.9054 23.6406 53.9392 23.6356ZM62.9241 29.6579C62.7663 29.6811 62.6092 29.6696 62.4527 29.6235C62.2057 29.51 62.0147 29.2674 61.8795 28.8957C61.754 28.5111 61.673 28.1948 61.6366 27.9468C61.5952 27.665 61.5829 27.3847 61.5995 27.1059C61.6152 26.9769 61.6172 26.873 61.6056 26.7941C61.5844 26.7281 61.5455 26.659 61.4888 26.5867C61.4142 26.471 61.3612 26.306 61.3298 26.0918L61.3124 25.9735C61.2611 25.624 61.1994 25.2819 61.1272 24.947L60.7866 23.097C60.6482 22.3112 60.5252 21.7478 60.4176 21.4066C60.3702 21.2408 60.3399 21.1128 60.3267 21.0226C60.3118 20.9212 60.314 20.8575 60.3332 20.8317C60.3571 20.7591 60.3351 20.4917 60.2673 20.0295L60.1829 19.4546C60.0903 18.8234 60.0871 18.4093 60.1733 18.2124C60.2579 18.0042 60.4411 17.8795 60.7229 17.8381C61.1062 17.7818 61.3681 17.801 61.5087 17.8955C61.6588 17.9771 61.7851 18.1313 61.8875 18.3581C61.9607 18.5431 62.0198 18.6323 62.0649 18.6257L62.1495 18.6133C62.2509 18.5984 62.4205 18.4986 62.6583 18.3141C63.3573 17.8199 63.9506 17.5083 64.4384 17.3791C64.9373 17.2483 65.2939 17.1672 65.5081 17.1358C65.9815 17.0663 66.4029 17.0735 66.7722 17.1575C67.3302 17.2714 67.6414 17.5481 67.7059 17.9878C67.7224 18.1005 67.7043 18.2125 67.6516 18.3239C67.6085 18.4224 67.5475 18.4774 67.4686 18.489C67.4573 18.4906 67.3866 18.5586 67.2566 18.6928C67.1028 18.8996 66.8342 19.0312 66.4509 19.0874C66.3382 19.104 66.2069 19.1117 66.0571 19.1107C65.9185 19.108 65.7646 19.1191 65.5956 19.1439C65.1559 19.2084 64.7174 19.3591 64.2801 19.596C63.6723 19.9271 63.2097 20.3059 62.8923 20.7325C62.5749 21.159 62.4402 21.5358 62.4882 21.8627C62.4981 21.9303 62.5137 21.9971 62.5349 22.0631C62.5674 22.1274 62.5877 22.1878 62.596 22.2441C62.6043 22.3005 62.6004 22.3529 62.5845 22.4013C62.5669 22.4384 62.5623 22.4852 62.5706 22.5415C62.5821 22.6204 62.6139 22.7194 62.6659 22.8384C62.7292 22.9558 62.7791 23.1385 62.8155 23.3865L62.8879 23.9977C62.9392 24.3471 62.9885 24.6047 63.0359 24.7705C63.0816 24.925 63.1111 25.0474 63.1243 25.1376C63.1263 25.2294 63.1121 25.3293 63.0819 25.4374C63.0501 25.5342 63.0416 25.6333 63.0565 25.7348L63.0957 25.8845C63.224 26.1305 63.3013 26.3437 63.3278 26.5241C63.3526 26.6932 63.3378 26.8277 63.2834 26.9279C63.2386 27.015 63.1987 27.0958 63.1635 27.17L63.3624 27.3481C63.5145 27.5215 63.6162 27.783 63.6675 28.1324C63.7204 28.4931 63.6933 28.7792 63.5862 28.9907C63.5381 29.0554 63.4597 29.1878 63.3509 29.388C63.2885 29.5123 63.2074 29.5875 63.1076 29.6137C63.0078 29.6399 62.9467 29.6546 62.9241 29.6579ZM72.7521 28.0082C72.5492 28.0379 72.3382 28.0516 72.119 28.0493C71.8548 28.0535 71.6396 28.039 71.4736 28.0058C71.3075 27.9726 71.1485 27.9096 70.9967 27.8167C70.7852 27.7096 70.5898 27.5943 70.4105 27.4709C70.2408 27.3346 70.1526 27.2439 70.146 27.1988C70.1394 27.1537 70.0544 27.0453 69.891 26.8735C69.5755 26.5283 69.372 26.2012 69.2806 25.8922C69.2004 25.5815 69.1521 25.3698 69.1356 25.2571C69.0925 24.964 69.1239 24.7464 69.2297 24.6042C69.3451 24.4491 69.4367 24.3665 69.5043 24.3566C69.5719 24.3467 69.6197 24.3973 69.6475 24.5083C69.6866 24.6177 69.7399 24.6675 69.8076 24.6576C69.8752 24.6476 69.9515 24.5789 70.0364 24.4513C70.1309 24.3107 70.2345 24.2322 70.3473 24.2156C70.5389 24.1875 70.7442 24.3704 70.9633 24.7643C71.2764 25.3287 71.4631 25.6985 71.5234 25.8739C71.5608 25.9721 71.6506 26.074 71.7928 26.1798L72.0061 26.3385C72.3327 26.21 72.5129 26.1432 72.5467 26.1383C72.743 26.0634 72.8781 26.0033 72.9521 25.9579C73.0357 25.8996 73.0765 25.8245 73.0745 25.7326C73.0725 25.6408 73.0624 25.5329 73.0442 25.4089L73.012 25.1891C72.9226 24.5804 72.6278 23.9442 72.1273 23.2807C71.6594 22.6815 71.1987 22.2885 70.7452 22.1017C70.5983 22.0427 70.4512 21.9031 70.3037 21.6829C70.2325 21.5897 70.1935 21.5206 70.1869 21.4755C70.1803 21.4304 70.0275 21.2916 69.7285 21.0591C69.4408 20.825 69.2468 20.6404 69.1463 20.5055C68.7914 19.9703 68.5834 19.4941 68.5222 19.0771C68.4758 18.7614 68.5046 18.4866 68.6084 18.2526C68.7235 18.0169 68.7753 17.8596 68.7637 17.7807C68.7505 17.6905 68.8095 17.5437 68.9409 17.3401C69.5064 16.4856 70.2513 15.9905 71.1756 15.8549C71.5363 15.8019 71.8539 15.8474 72.1284 15.9914C72.2172 16.0474 72.4029 16.1353 72.6853 16.2551C72.9306 16.3573 73.1149 16.5145 73.2382 16.7267C73.4082 16.9436 73.5101 17.0495 73.5439 17.0446C73.589 17.0379 73.6538 17.1263 73.7383 17.3097C73.8211 17.4818 73.8766 17.6636 73.9047 17.8552C73.951 18.1709 73.9236 18.3764 73.8225 18.4719C73.7197 18.556 73.5781 18.6114 73.3977 18.6378C73.161 18.6726 72.9306 18.6719 72.7065 18.6357C72.5646 18.6104 72.3498 18.4807 72.0621 18.2466C71.7857 18.0108 71.6007 17.8882 71.5072 17.8789C71.4234 17.8567 71.3589 17.8489 71.3138 17.8555C71.2236 17.8687 71.1263 17.9118 71.0219 17.9847C70.6409 18.2134 70.476 18.5024 70.5273 18.8519C70.5918 19.2915 70.9975 19.8192 71.7442 20.4351C72.2696 20.8762 72.5914 21.1859 72.7097 21.3643C72.828 21.5427 72.8953 21.648 72.9115 21.6801C73.002 21.7475 73.0698 21.7778 73.1149 21.7712C73.2309 21.7772 73.3431 21.8356 73.4515 21.9464C73.4936 21.9977 73.6214 22.1229 73.8348 22.3219C73.9933 22.4599 74.1033 22.5819 74.1649 22.688C74.2266 22.7941 74.3359 22.9508 74.493 23.1581C74.5901 23.2705 74.6599 23.3927 74.7023 23.5246C74.7559 23.6549 74.8147 23.8593 74.8786 24.1378C74.9737 24.5499 75.0361 24.8575 75.0658 25.0604C75.0956 25.2633 75.0923 25.4365 75.0558 25.58C75.0305 25.7219 74.9756 25.897 74.891 26.1051C74.5021 27.2216 73.7892 27.856 72.7521 28.0082Z" fill="#333333"/>
<defs>
<clipPath id="clip0_2001_20">
<rect width="59.4209" height="17.4767" fill="white" transform="matrix(0.29568 0.955287 0.955287 -0.29568 32 43.1675)"/>
</clipPath>
</defs>
</svg>
