<svg width="96" height="55" viewBox="0 0 96 55" fill="none" xmlns="http://www.w3.org/2000/svg">
<path d="M17.595 53.4625C19.6033 52.4938 19.3906 48.8316 16.957 48.6898C13.153 48.359 9.30181 47.8865 5.68686 46.4453C3.96207 45.8546 1.31583 44.7441 0.299864 47.0123C-1.04689 49.8239 2.44995 51.6905 4.67091 52.3521C8.80566 53.3444 13.4838 55.0928 17.595 53.4625Z" fill="#FFD600"/>
<path d="M41.3639 51.7379C43.3722 51.1236 45.5223 50.4384 46.8927 48.7608C48.1213 47.2251 47.2235 44.4607 45.0734 44.3662C42.9942 44.886 41.0804 46.0201 38.9303 46.3981C36.8039 46.7053 34.6538 46.1618 32.5037 46.3036C30.5899 47.2487 30.5663 49.9658 32.1729 51.2181C34.8428 53.1555 38.4105 52.3994 41.3639 51.7379Z" fill="#FFD600"/>
<path d="M63.2899 42.3342C67.1175 40.8693 70.8506 38.8374 73.7804 35.9312C76.4739 34.0647 76.2377 28.2524 72.032 29.2211C69.9056 31.3003 68.1571 33.9465 65.2274 35.057C62.6048 36.6164 58.5882 36.7818 57.3359 39.9951C56.9342 43.4683 61.069 43.7282 63.2899 42.3342Z" fill="#FFD600"/>
<path d="M93.1782 0.0887527C90.6737 -0.549181 90.2248 2.40422 89.7287 4.15263C88.5709 9.13796 83.9873 12.1386 81.6718 16.4388C80.8212 18.9196 84.0581 21.1878 86.0192 19.3685C89.9177 16.0844 92.9183 11.6897 94.903 6.98792C95.7536 4.79059 96.2734 0.679432 93.1782 0.0887527Z" fill="#FFD600"/>
</svg>
