<svg width="110" height="103" viewBox="0 0 110 103" fill="none" xmlns="http://www.w3.org/2000/svg">
<path d="M17.7256 39.8752C17.4923 39.8208 17.2786 39.748 17.0847 39.6567C16.8975 39.5362 16.7464 39.2935 16.6316 38.9285C16.5201 38.5489 16.4563 38.1958 16.4401 37.8691C16.442 37.5313 16.4649 37.2676 16.5091 37.078C16.5363 36.9614 16.5763 36.8554 16.6293 36.7601C16.6802 36.5413 16.6886 36.2742 16.6545 35.9588C16.6071 35.5019 16.6148 35.0732 16.6773 34.6726C16.7398 34.2721 16.7822 33.8591 16.8044 33.4338L16.8506 32.2453C16.8956 31.6562 16.9171 31.2999 16.9151 31.1764C16.8999 30.9115 16.9027 30.6354 16.9235 30.3482C16.9623 30.0497 16.9606 29.4958 16.9185 28.6865C16.9077 28.4688 16.7638 28.3276 16.4867 28.2631C16.3554 28.2325 16.1972 28.2187 16.012 28.2217C15.8448 28.2135 15.5811 28.1905 15.2209 28.1527C14.8641 28.1004 14.4798 28.0339 14.0681 27.9534C13.3467 27.8161 12.5456 27.691 11.6648 27.5781C11.3775 27.5574 11.1065 27.5327 10.8518 27.5041C10.6151 27.4643 10.4529 27.4343 10.3654 27.4139C10.0883 27.3493 9.87228 27.3528 9.71725 27.4243C9.58021 27.4847 9.45194 27.6393 9.33247 27.8882C9.13427 28.211 8.96765 28.4643 8.83259 28.6481C8.70093 28.8173 8.56298 29.0466 8.41873 29.3359C8.33181 29.577 8.12293 29.9127 7.79209 30.343C7.52537 30.696 7.37333 30.9527 7.33596 31.1131L7.32217 31.2713C7.26443 31.5193 7.15104 31.808 6.98202 32.1377C6.76345 32.548 6.39573 33.1696 5.87888 34.0024C5.75161 34.2188 5.62944 34.4133 5.51236 34.5859C5.40987 34.7619 5.34284 34.8846 5.31127 34.9542C5.13785 35.2366 4.90121 35.4275 4.60134 35.5268C4.31945 35.6149 4.02538 35.6233 3.71912 35.5519C3.44543 35.4728 3.28642 35.2974 3.24208 35.0257L3.14561 34.4497C3.11345 34.2577 3.11096 34.1034 3.13813 33.9868C3.18909 33.768 3.33852 33.6875 3.58644 33.7452C3.74686 33.7826 3.84286 33.7665 3.87442 33.697L3.91009 33.5439C3.93726 33.4272 3.92409 33.2858 3.87055 33.1195C3.86616 33.0724 3.87245 33.0124 3.88944 32.9395C3.94718 32.6915 4.11571 32.331 4.39502 31.858C4.54366 31.6159 4.65734 31.4578 4.73605 31.3839C4.83275 31.2988 4.90488 31.1542 4.95243 30.95C4.97281 30.8625 5.01287 30.7565 5.07261 30.6321C5.14693 30.511 5.22515 30.4062 5.30726 30.3177C5.38937 30.2292 5.57348 29.9339 5.85958 29.4316C6.06017 29.0325 6.26106 28.7641 6.46224 28.6265C6.66342 28.4888 6.7708 28.3908 6.78439 28.3325C6.79458 28.2888 6.79019 28.2416 6.77121 28.1911C6.73665 28.0754 6.74315 27.9155 6.79071 27.7113C6.83147 27.5363 6.90529 27.3844 7.01218 27.2555C7.05493 27.204 7.09209 27.1434 7.12366 27.0739C7.17321 26.9932 7.21207 26.9254 7.24024 26.8705C7.31157 26.5642 7.53234 26.1774 7.90255 25.7102C8.03081 25.5556 8.18235 25.268 8.35717 24.8475C8.58933 24.3788 8.72509 24.126 8.76445 24.089C8.84996 23.9859 8.9114 23.8542 8.94876 23.6938C8.98612 23.5333 9.25644 23.0659 9.75971 22.2914C10.2372 21.4955 10.5209 21.0696 10.6108 21.0136C10.7153 20.9611 10.8346 20.8121 10.9686 20.5665C11.1061 20.3064 11.202 20.0597 11.2563 19.8264C11.3141 19.5785 11.4471 19.2712 11.6555 18.9046L12.1015 18.1782C12.168 18.0246 12.3436 17.7657 12.6283 17.4015C12.9276 17.0407 13.2402 16.4909 13.566 15.7519C13.7486 15.3639 13.8703 15.1386 13.931 15.0759C14.0379 14.947 14.1084 14.8097 14.1423 14.6638C14.1797 14.5034 14.2732 14.333 14.4228 14.1526C14.5871 13.9756 14.6845 13.8215 14.715 13.6903C14.7252 13.6465 14.7517 13.5989 14.7944 13.5473C14.8518 13.4992 14.9147 13.46 14.9832 13.4299C15.0663 13.4031 15.1096 13.3824 15.113 13.3678L15.1232 13.3241C15.13 13.2949 15.1166 13.2534 15.083 13.1994C15.0641 13.1489 15.0716 13.0507 15.1055 12.9048C15.1599 12.6715 15.3041 12.3822 15.5383 12.037C15.6869 11.7949 15.8489 11.5943 16.0244 11.4353C16.4976 11.0536 16.7547 10.7752 16.7954 10.6002C16.809 10.5419 16.808 10.4801 16.7924 10.415C16.7914 10.3533 16.7977 10.2932 16.8113 10.2349C16.8589 10.0307 16.99 9.83065 17.2048 9.63468C17.4949 9.37937 17.7566 9.2789 17.9899 9.33325C18.515 9.45553 18.9047 9.86149 19.1592 10.5511C19.4171 11.2262 19.4811 12.0406 19.3512 12.9943C19.2954 13.3657 19.2831 13.6165 19.3143 13.7468C19.3401 13.7682 19.3517 13.817 19.3493 13.8933C19.2644 14.2579 19.2448 14.507 19.2906 14.6407C19.3509 14.7777 19.3744 15.1061 19.361 15.6257C19.3334 15.9421 19.3229 16.4163 19.3294 17.0482C19.3698 18.1953 19.3649 18.9091 19.315 19.1896C19.283 19.4589 19.2585 19.63 19.2415 19.7029C19.1668 20.0238 19.0339 20.2311 18.843 20.325C18.7565 20.3664 18.6755 20.4167 18.6002 20.476C18.5395 20.5388 18.5057 20.5847 18.4989 20.6139C18.449 20.8944 18.5042 21.0533 18.6646 21.0907C18.9787 21.1946 19.0779 21.4944 18.9625 21.9903C18.8911 22.2965 18.9007 22.5524 18.9912 22.758C19.0963 22.967 19.1647 23.2673 19.1964 23.6591C19.2316 24.0363 19.2237 24.3343 19.1727 24.553C19.1252 24.7572 19.1136 24.939 19.1379 25.0984C19.1647 25.1815 19.1662 25.2741 19.1424 25.3762L18.7555 26.0471L18.7148 26.2221C18.7226 26.2547 18.7449 26.2907 18.7819 26.33C18.867 26.4267 18.9044 26.4969 18.8943 26.5407C18.8875 26.5699 18.8919 26.617 18.9074 26.6821C18.9264 26.7327 18.9527 26.7849 18.9862 26.8389C19.0757 26.9827 19.112 27.0911 19.095 27.164C18.9975 27.6487 18.9746 28.143 19.0263 28.647C19.0503 29.0062 19.0334 29.3098 18.9756 29.5577C18.9519 29.6598 18.9371 29.7563 18.9313 29.8472C18.9401 29.9415 18.9556 30.0066 18.978 30.0426C19.0821 30.1898 19.0951 30.4312 19.0169 30.7666C18.983 30.9124 18.9361 31.0476 18.8764 31.172C18.82 31.2819 18.7851 31.366 18.7715 31.4243C18.7375 31.5702 18.7468 31.6953 18.7993 31.7998C18.8719 32.0166 18.9201 32.3046 18.9441 32.6638C18.9744 33.1936 18.9573 33.597 18.8928 33.8741C18.852 34.0491 18.7828 34.1483 18.6851 34.1717C18.5908 34.1804 18.5368 34.214 18.5233 34.2723C18.5029 34.3598 18.5515 34.448 18.6692 34.537C18.7869 34.6259 18.846 34.8011 18.8466 35.0626L18.8759 35.5307C18.9937 37.2032 19.0022 38.2891 18.9013 38.7883C18.7824 39.2987 18.5224 39.6226 18.1215 39.7598C17.9339 39.8391 17.8019 39.8776 17.7256 39.8752ZM11.3337 25.633C11.4066 25.65 11.5464 25.6441 11.753 25.6153C12.1481 25.569 12.9096 25.6003 14.0373 25.7092C14.31 25.7266 14.5883 25.753 14.8722 25.7884C15.1594 25.8092 15.3867 25.8236 15.5539 25.8318C15.7357 25.8434 15.8849 25.8628 16.0016 25.89C16.1363 25.906 16.24 25.9225 16.313 25.9395C16.3713 25.953 16.4206 25.9722 16.461 25.997C16.5159 26.0252 16.5653 26.0443 16.609 26.0545C16.7111 26.0783 16.7964 26.0751 16.8649 26.045C16.9514 26.0036 17.0403 25.8859 17.1317 25.692L17.2198 25.4127C17.2334 25.3543 17.2183 25.3201 17.1745 25.3099C17.1308 25.2997 17.1018 25.193 17.0876 24.9898C17.0199 24.6205 17.0462 24.1115 17.1665 23.463C17.2684 23.0255 17.2999 22.7254 17.2609 22.5626C17.2487 22.4828 17.2613 22.3628 17.2987 22.2024L17.3868 21.9231C17.4276 21.7481 17.4224 21.5393 17.3713 21.2968C17.3347 21.0576 17.3283 20.887 17.3521 20.7849C17.3691 20.712 17.4079 20.6442 17.4687 20.5815C17.544 20.5221 17.5851 20.4779 17.5918 20.4487L17.5969 20.4269C17.5892 20.3943 17.5466 20.3459 17.4693 20.2818C17.3404 20.1749 17.2828 20.0923 17.2964 20.034L17.3372 19.859C17.3396 19.7827 17.3509 19.7008 17.3713 19.6133C17.3819 19.3697 17.3835 19.1318 17.3761 18.8994C17.3059 18.1451 17.3115 17.5929 17.393 17.2429C17.4575 16.9658 17.5661 16.8297 17.7187 16.8345C17.8894 16.8281 17.9781 16.8103 17.9849 16.7811L18.0205 16.628C18.0341 16.5697 17.9388 16.5167 17.7346 16.4692C17.3846 16.3877 17.2742 16.0698 17.4033 15.5156L17.6253 14.7602C17.6661 14.5852 17.6748 14.4488 17.6514 14.3511C17.6125 14.1883 17.5898 14.0216 17.5834 13.851C17.5916 13.6838 17.5447 13.5883 17.4426 13.5645L17.4207 13.5594C17.3118 13.5648 17.186 13.6431 17.0431 13.7943C16.9183 13.9344 16.8286 14.1211 16.7743 14.3544C16.6928 14.7044 16.1347 15.6814 15.1 17.2854C14.8624 17.6451 14.6545 18.0426 14.4763 18.4777C14.3127 18.9162 14.1419 19.2531 13.9641 19.4885L13.5757 20.0668C13.5014 20.1879 13.4473 20.3213 13.4133 20.4671C13.3827 20.5984 13.2606 20.7929 13.0468 21.0506C12.9613 21.1537 12.8848 21.2511 12.8172 21.343C12.7643 21.4383 12.7327 21.5079 12.7225 21.5516C12.6682 21.7849 12.4277 22.1902 12.0012 22.7673C11.8516 22.9477 11.7287 23.2112 11.6326 23.5578C11.5544 23.8932 11.3949 24.2481 11.154 24.6225C10.9839 24.8904 10.8836 25.09 10.8531 25.2212C10.8191 25.3671 10.8571 25.4682 10.9669 25.5245C11.0948 25.5697 11.2171 25.6058 11.3337 25.633ZM23.4795 40.9155C23.2753 40.868 23.0398 40.7901 22.7729 40.6818C22.5901 40.6084 22.477 40.4668 22.4337 40.2568C22.4049 40.0503 22.4376 39.7119 22.5317 39.2419C22.6258 38.7718 22.6833 38.3931 22.704 38.1058C22.6953 38.0115 22.7794 37.4853 22.9564 36.5272C23.1874 35.5355 23.3732 34.6717 23.5139 33.9357C23.5842 33.5677 23.7077 33.0046 23.8844 32.2462L25.0802 27.0129C25.1292 26.6707 25.5387 24.8135 26.3088 21.4413L27.2178 17.3404C27.5507 15.9112 27.8106 14.7955 27.9974 13.9934C28.2022 13.1802 28.3762 12.598 28.5195 12.247C28.6807 11.8848 28.8444 11.677 29.0107 11.6234C29.1803 11.5553 29.3963 11.5518 29.6588 11.613L30.162 11.7302C30.3256 12.414 30.4178 12.8429 30.4388 13.0169C30.4632 13.1764 30.4203 13.5584 30.3102 14.1631L29.6472 17.3066C29.457 18.1233 29.2394 19.1565 28.9944 20.4063L28.8569 20.997C28.8229 21.1428 28.7901 21.2505 28.7586 21.32C28.7304 21.3749 28.7056 21.4153 28.6842 21.4411C28.6774 21.4702 28.6651 21.4904 28.6471 21.5016C28.6291 21.5128 28.6111 21.524 28.5931 21.5352C28.5066 21.5765 28.4583 21.6191 28.4481 21.6628C28.4379 21.7066 28.4625 21.7661 28.5218 21.8414L28.5167 21.8633C28.5828 21.9094 28.604 21.9836 28.5802 22.0856C28.571 22.1911 28.5494 22.3168 28.5155 22.4626L28.0794 24.1368C27.913 24.8514 27.8322 25.3631 27.8372 25.6717C27.8602 25.9692 27.9227 26.1298 28.0248 26.1536C28.0685 26.1638 28.1426 26.1426 28.2471 26.0901C28.3662 26.0409 28.469 25.9957 28.5555 25.9543C28.6566 25.9164 28.7504 25.8767 28.8369 25.8354C29.1795 25.6845 29.5102 25.5848 29.8291 25.536C30.0143 25.5331 30.208 25.4936 30.4101 25.4177C30.7562 25.2523 31.199 25.2324 31.7386 25.3581C32.6136 25.5619 33.3888 25.9962 34.0642 26.6609C34.5121 27.1803 34.8621 27.823 35.1142 28.5889C35.3808 29.3583 35.4649 29.9544 35.3664 30.3774L35.2783 30.6566C35.2545 30.7587 35.2818 30.8727 35.3601 30.9986C35.4384 31.1244 35.4691 31.2238 35.4521 31.2967C35.4385 31.3551 35.4361 31.4314 35.4449 31.5257C35.4537 31.62 35.4608 31.7216 35.4662 31.8304C35.5115 32.1639 35.456 32.666 35.2998 33.3369C34.9261 34.941 34.3133 36.3512 33.4612 37.5672C33.1133 38.0704 32.849 38.3471 32.6682 38.3972C32.5851 38.424 32.4799 38.5455 32.3527 38.7619C31.7998 39.6171 30.9766 40.148 29.883 40.3545C28.7895 40.561 27.9364 40.593 27.3239 40.4503C26.8864 40.3484 26.4967 40.1731 26.1549 39.9243C26.0586 39.8097 25.9667 39.7421 25.8792 39.7218C25.7917 39.7014 25.6775 39.5979 25.5364 39.4113C25.3954 39.2247 25.2811 39.1212 25.1936 39.1008C25.1061 39.0804 25.0012 39.3328 24.8789 39.8578C24.7431 40.4411 24.5488 40.7802 24.2961 40.8751C24.0579 40.9734 23.7857 40.9869 23.4795 40.9155ZM27.8865 37.8369C28.2511 37.9219 28.6472 37.9373 29.0749 37.8831C30.2303 37.6756 31.2865 36.5072 32.2437 34.3778C32.5245 33.7667 32.7311 33.1767 32.8635 32.608C33.0402 31.8496 33.0814 31.1443 32.9874 30.492C32.8528 29.3537 32.5635 28.6483 32.1196 28.3758C31.6791 28.0887 31.3568 27.9213 31.1526 27.8738C30.5547 27.7345 29.8473 27.9003 29.0304 28.3711C28.7786 28.5278 28.6017 28.5942 28.4997 28.5704L28.4172 28.5281C28.3589 28.5146 28.3123 28.5498 28.2773 28.6339C28.2423 28.718 28.2001 28.8004 28.1505 28.8811C28.1156 28.9652 28.0823 29.0421 28.0507 29.1116C27.973 29.2472 27.8319 29.3912 27.6273 29.5434C27.4407 29.6844 27.3304 29.8279 27.2964 29.9737L27.2485 30.3776C27.2009 30.5818 27.1055 30.8594 26.9623 31.2104C26.8642 31.4335 26.7744 31.7201 26.6928 32.0701C26.5604 32.6389 26.4455 33.3962 26.3481 34.3422C26.29 34.7899 26.2948 35.1984 26.3625 35.5678C26.4448 35.9406 26.626 36.4825 26.9063 37.1935C27.0269 37.4676 27.2022 37.6391 27.4322 37.7081C27.6767 37.7804 27.8281 37.8234 27.8865 37.8369ZM38.875 43.5328L38.4863 43.4192C37.7731 43.1147 37.176 42.5759 36.695 41.8028C36.2319 41.0184 36.0214 40.2391 36.0634 39.4647C36.0852 39.2392 36.0751 38.9524 36.0332 38.6044C35.983 38.4236 35.9875 38.1402 36.0467 37.7543C36.0762 37.5613 36.1369 37.2679 36.2286 36.8741C36.3169 36.495 36.3938 36.1977 36.4594 35.9823C36.5249 35.767 36.623 35.5438 36.7537 35.3129C36.8989 35.0854 37.1241 34.7458 37.4292 34.2941C37.5361 34.1652 37.6458 33.9909 37.7585 33.7712C37.8251 33.6175 37.8668 33.5043 37.8838 33.4314C37.9313 33.2272 38.0703 33.0597 38.3006 32.9288L38.6294 32.7056L38.2764 32.4389C37.9448 32.1464 37.8452 31.7158 37.9777 31.147C38.1339 30.4762 38.4399 29.8556 38.8956 29.2852C39.3659 28.7183 39.8958 28.3574 40.4854 28.2026C41.2927 28.037 41.9589 28.0154 42.4839 28.1376C42.9505 28.2463 43.3047 28.4749 43.5465 28.8233C43.6214 28.9638 43.7026 29.0442 43.7901 29.0646L43.9213 29.0951C44.1547 29.1495 44.433 29.4065 44.7565 29.8662C45.1101 30.3944 45.4158 30.9961 45.6737 31.6711C45.9495 32.335 46.0484 32.8346 45.9703 33.1701C45.9363 33.3159 45.9376 33.5084 45.9742 33.7475C46.1865 34.7502 46.2167 35.6106 46.0649 36.3285C45.9164 37.032 45.8303 37.4347 45.8065 37.5368C45.5314 38.7181 45.1508 39.5596 44.665 40.0614C44.4716 40.2316 44.286 40.4344 44.1082 40.6697C43.9449 40.9084 43.8497 41.0861 43.8226 41.2028L43.8124 41.2466C43.7852 41.3632 43.6968 41.5118 43.5471 41.6922C43.4009 41.858 43.2294 42.0333 43.0326 42.2181C42.8392 42.3883 42.6757 42.4962 42.542 42.542C42.423 42.5911 42.2932 42.6531 42.1528 42.728C42.0269 42.8064 41.9156 42.8881 41.8189 42.9732C41.3918 43.2888 40.8992 43.4892 40.3412 43.5745C39.8012 43.6486 39.3125 43.6347 38.875 43.5328ZM39.4588 41.2242C39.6047 41.2582 39.7573 41.263 39.9167 41.2386C40.1379 41.2133 40.5665 40.9902 41.2026 40.5695C41.4397 40.4095 41.6118 40.2651 41.7186 40.1362C41.8897 39.9301 42.0342 39.7715 42.1523 39.6607C42.2704 39.5498 42.3779 39.3519 42.475 39.067C42.5722 38.7822 42.6618 38.5955 42.7439 38.507C42.826 38.4185 43.0236 37.8341 43.3367 36.754L43.6286 35.5997C43.7067 35.2642 43.7436 35.073 43.7392 35.0258C43.6877 34.9831 43.6755 34.9033 43.7026 34.7867C43.7298 34.67 43.7146 34.4051 43.6571 33.992C43.5099 32.9737 43.3313 32.2556 43.1211 31.8376C42.9557 31.4916 42.8329 31.1939 42.7526 30.9446C42.6868 30.6987 42.5699 30.5408 42.4017 30.4708C42.248 30.4043 42.1421 30.3642 42.0837 30.3507C41.8796 30.3031 41.6674 30.3229 41.4472 30.41C41.0944 30.6045 40.8245 30.8722 40.6375 31.213C40.4651 31.5572 40.3568 31.8241 40.3126 32.0137C40.2685 32.2033 40.2586 32.3778 40.283 32.5372C40.3433 32.6743 40.382 32.937 40.3992 33.3254C40.4164 33.7137 40.5032 34.0338 40.6599 34.2855C40.8345 34.526 40.9065 34.7119 40.8759 34.8432L40.7878 35.1225C40.7742 35.1808 40.8112 35.2202 40.8987 35.2406C41.1174 35.2915 41.1994 35.5335 41.1447 35.9667L41.1243 36.0542C40.9918 36.6229 40.5391 36.8173 39.7662 36.6372C39.3287 36.5353 39.0378 36.629 38.8935 36.9183C38.7639 37.211 38.682 37.4302 38.6481 37.5761C38.5496 37.999 38.5328 38.5332 38.5977 39.1787C38.626 39.585 38.6198 39.8757 38.5791 40.0507L38.5164 40.2206C38.496 40.3081 38.5031 40.4097 38.5377 40.5254C38.5756 40.6265 38.6311 40.6855 38.704 40.7025C38.7915 40.7229 38.8946 40.8084 39.0132 40.959C39.1353 41.0951 39.2838 41.1835 39.4588 41.2242ZM53.7781 47.373C53.7198 47.3594 53.6704 47.3403 53.6301 47.3155C53.3991 47.1848 53.2248 47.075 53.1072 46.9861C52.9895 46.8972 52.9066 46.8241 52.8585 46.7668C52.8137 46.6948 52.7852 46.619 52.7731 46.5393C52.7297 46.3294 52.7318 46.1223 52.7794 45.9181C52.8269 45.7139 52.8974 45.5766 52.9907 45.5061C53.0985 45.439 53.161 45.3689 53.178 45.296C53.1949 45.2231 53.1519 45.1439 53.0488 45.0584C52.9973 45.0156 52.9423 44.9875 52.884 44.9739C52.7236 44.9365 52.3642 45.0604 51.8058 45.3454C51.1002 45.7345 50.533 45.9253 50.1043 45.9177C49.6935 45.8989 49.4152 45.8725 49.2694 45.8386C48.8465 45.7401 48.5399 45.538 48.3497 45.2323C48.0769 44.7536 47.9164 44.4856 47.8682 44.4283C47.8235 44.3564 47.777 44.2917 47.7289 44.2344C47.6068 44.0983 47.5282 43.8417 47.4931 43.4645C47.4759 43.0762 47.45 42.8242 47.4155 42.7085C47.3755 42.4839 47.3803 42.1007 47.4296 41.5587C47.4794 40.8169 47.5603 40.2054 47.6724 39.7241C47.7505 39.3887 47.8161 39.1733 47.869 39.078C47.94 38.9716 47.9839 38.8819 48.0009 38.809C48.0145 38.7506 48.0096 38.6726 47.9862 38.5749C47.9531 38.3212 48.1182 37.4141 48.4817 35.8537C48.7364 34.7599 49.0153 33.6948 49.3182 32.6584C49.8934 30.7168 50.531 29.8275 51.231 29.9905C51.3915 30.0279 51.5529 30.127 51.7153 30.2878C51.8777 30.4486 51.9709 30.7086 51.9948 31.0678C52.0188 31.427 51.9922 31.8052 51.9151 32.2024C51.8234 32.5961 51.6813 32.909 51.4889 33.1409C51.3573 33.3101 51.2694 33.4895 51.2252 33.6791C51.1742 33.8979 51.1889 34.1319 51.2692 34.3812C51.3184 34.5003 51.202 35.165 50.92 36.3755C50.4751 38.2859 50.2674 39.3753 50.2972 39.6436C50.3196 39.6796 50.2721 40.1144 50.1548 40.9481C49.9244 42.2012 49.8635 42.925 49.9719 43.1194C50.0838 43.2992 50.1762 43.3976 50.2491 43.4146C50.4679 43.4656 50.8212 43.3019 51.309 42.9235C52.3679 42.14 53.0678 41.5112 53.4089 41.0372C53.7645 40.5665 54.0595 39.8281 54.2939 38.8218C54.552 37.7134 54.7188 37.1296 54.7941 37.0703C54.8728 36.9963 54.9308 36.8792 54.9682 36.7188L54.9856 36.4461C55.0128 36.3294 55.1252 36.2095 55.323 36.0865C55.5208 35.9634 55.6333 35.8436 55.6605 35.7269C55.691 35.5956 55.629 35.4659 55.4744 35.3376C55.2157 35.0621 55.113 34.7768 55.1664 34.4818C55.2231 34.1721 55.2617 33.9735 55.2821 33.886C55.3874 33.4339 55.5656 32.9988 55.8167 32.5807C56.1106 32.111 56.4512 31.8368 56.8386 31.7579C57.1137 31.6989 57.3388 31.6899 57.5138 31.7306C57.7908 31.7952 57.9644 31.974 58.0346 32.267C58.1334 32.7667 57.9994 33.804 57.6326 35.3791C57.4526 36.152 56.9732 38.4081 56.1945 42.1473L55.4806 45.5095C55.3379 46.122 55.2367 46.4905 55.177 46.6149C54.9866 46.9703 54.7179 47.1999 54.3708 47.3035C54.1361 47.3872 53.9385 47.4104 53.7781 47.373ZM60.0659 49.0913C59.9347 49.0607 59.8029 48.9993 59.6707 48.907C59.2831 48.5246 59.0912 47.9955 59.0948 47.3199C59.113 46.6476 59.1645 46.1292 59.2495 45.7646C59.3582 45.298 59.5347 44.8701 59.779 44.4812C59.8466 44.3893 59.8922 44.2923 59.916 44.1902C59.9296 44.1319 59.9191 44.0449 59.8845 43.9292C59.851 43.8753 59.8315 43.7939 59.8261 43.685C59.8387 43.5649 59.901 43.2643 60.0131 42.783L60.7214 39.7423C60.8267 39.2902 60.9396 38.9706 61.06 38.7834C61.1523 38.6512 61.207 38.5486 61.224 38.4756C61.2443 38.3881 61.2445 38.2883 61.2246 38.176C61.1758 37.8571 61.2296 37.3623 61.3858 36.6914C61.4504 36.4144 61.5244 36.1625 61.6079 35.936C61.7094 35.6983 61.7755 35.5138 61.806 35.3825C61.84 35.2367 61.8487 35.1003 61.8321 34.9735C61.8335 34.8354 61.8604 34.588 61.9128 34.2312C61.9831 33.8632 62.0636 33.4515 62.1543 32.996C62.4852 31.4433 62.7035 30.3411 62.8092 29.6892C62.9183 29.0228 62.9325 28.6648 62.8518 28.6152C62.8261 28.5938 62.733 28.5645 62.5725 28.5271C62.4155 28.4752 62.2787 28.4356 62.162 28.4084L61.7413 28.3335C61.085 28.1806 60.5607 27.9893 60.1684 27.7596C59.5451 27.3991 59.2674 27.0731 59.3353 26.7814C59.3693 26.6356 59.5075 26.5371 59.7501 26.486C59.9814 26.4169 60.1668 26.314 60.3063 26.1773C60.4311 26.0373 60.5531 25.9427 60.6722 25.8936C60.7912 25.8444 60.9618 25.838 61.184 25.8744C61.3882 25.922 61.691 26.0079 62.0926 26.1322C62.4212 26.2394 62.6803 26.3152 62.8699 26.3593C63.147 26.4239 63.3125 26.4394 63.3664 26.4058C63.4238 26.3577 63.493 26.2585 63.5741 26.1082C63.6586 25.9434 63.7315 25.7298 63.7926 25.4673C63.8198 25.3506 63.8273 25.2524 63.8151 25.1727C63.8053 25.0167 63.8565 24.698 63.9686 24.2168C64.2641 22.948 64.4905 22.009 64.6477 21.3999C64.9516 20.4252 65.2496 19.872 65.5417 19.7401C65.8372 19.5937 66.0578 19.5375 66.2036 19.5714C66.4078 19.619 66.5921 19.7849 66.7565 20.0692C67.0148 20.5445 67.0632 21.2937 66.9018 22.317C66.6568 23.5668 66.4831 24.5103 66.3808 25.1476C66.2931 25.7883 66.2546 26.2175 66.2654 26.4353C66.2942 26.6419 66.3596 26.757 66.4617 26.7808L66.5324 26.7742C66.685 26.779 66.8724 26.7996 67.0946 26.836C67.2987 26.8835 67.4939 26.9367 67.6801 26.9954C67.8663 27.0542 67.9852 27.1049 68.0367 27.1477C68.1028 27.1938 68.1723 27.2254 68.2453 27.2424C68.3619 27.2695 68.5219 27.276 68.725 27.2619C69.0808 27.2525 69.4337 27.2886 69.7837 27.3701C70.5421 27.5467 71.0197 27.7733 71.2167 28.0498C71.4594 28.4599 71.5711 28.7396 71.5517 28.8889L71.4906 29.1514C71.4362 29.3847 71.307 29.4776 71.1028 29.43L70.9766 29.3776C70.7579 29.3266 70.4371 29.4825 70.0144 29.8453C69.8749 29.982 68.9448 29.8499 67.2239 29.4491C66.6697 29.32 66.2799 29.2445 66.0543 29.2228C65.8322 29.1864 65.6873 29.2142 65.6198 29.3061C65.5669 29.4013 65.5268 29.5073 65.4996 29.624L65.4553 29.9135L65.1598 31.1822C65.1214 31.2809 65.0801 31.4251 65.036 31.6147L64.854 32.4948C64.5449 33.8219 64.362 34.6403 64.3053 34.9499C63.8161 37.0499 63.5344 38.1605 63.4601 38.2816C63.4207 38.3185 63.3925 38.3734 63.3756 38.4464C63.3518 38.5485 63.3521 38.6792 63.3764 38.8386C63.3994 39.1361 63.3769 39.4307 63.309 39.7223C63.1969 40.2036 62.9574 40.6706 62.5906 41.1233C62.5872 41.1378 62.586 41.176 62.587 41.2377C62.606 41.2883 62.6362 41.3568 62.6775 41.4433C62.7456 41.6129 62.7581 41.8234 62.7149 42.0747C62.5961 42.5851 62.4745 43.0411 62.3502 43.4427L62.1842 43.9575C62.1852 44.0192 62.2007 44.0843 62.2309 44.1529C62.2766 44.2865 62.2248 44.6742 62.0753 45.3159C61.9996 45.575 61.8463 46.2004 61.6153 47.192C61.4251 48.0087 61.1776 48.543 60.8729 48.7949C60.5828 49.0502 60.3138 49.149 60.0659 49.0913ZM82.5248 54.553C82.4664 54.5394 82.4003 54.4932 82.3264 54.4145C82.3006 54.3931 82.2384 54.3633 82.1397 54.3249L81.8065 54.2703L81.369 54.1684C80.8274 53.9193 80.4749 53.6834 80.3115 53.4609C80.204 53.3282 80.1079 53.1137 80.0232 52.8172C79.9877 52.6398 79.9043 52.5358 79.773 52.5052L79.7511 52.5001C79.6199 52.4696 79.4737 52.3048 79.3127 52.006C79.1697 51.6959 79.0386 51.3348 78.9193 50.9227C78.818 50.4993 78.7683 50.1188 78.7701 49.7809C78.7783 49.6137 78.7369 49.2966 78.6458 48.8295C78.5801 48.5836 78.5406 48.3899 78.5275 48.2484C78.5177 48.0924 78.5366 47.9123 78.5841 47.7081C78.6656 47.3581 78.6796 47.1 78.6261 46.9338C78.5906 46.7564 78.6002 46.4511 78.6549 46.018C78.7073 45.6612 78.7157 45.3941 78.6801 45.2167C78.6446 45.0393 78.6345 44.7525 78.6499 44.3564C78.6799 43.9636 78.7317 43.576 78.8055 43.1934C78.8704 42.7165 78.905 42.271 78.9092 41.8569C78.9168 41.4282 78.9701 40.9024 79.069 40.2797C79.1693 39.519 79.2891 38.8397 79.4284 38.2417C79.5065 37.9063 79.5703 37.6982 79.6199 37.6175C79.6874 37.5256 79.733 37.4287 79.7568 37.3266C79.7626 37.2357 79.7567 37.0959 79.7392 36.9073C79.725 36.7042 79.7468 36.4786 79.8045 36.2307C79.8385 36.0849 79.8972 35.8987 79.9807 35.6721C80.0643 35.4456 80.123 35.2594 80.157 35.1136C80.1943 34.9531 80.2086 34.8258 80.1998 34.7315C80.191 34.6372 80.2048 34.479 80.2412 34.2568C80.281 34.0201 80.3263 33.7923 80.3773 33.5736C80.4282 33.3548 80.4751 33.2197 80.5178 33.1681C80.564 33.102 80.7222 32.5546 80.9926 31.526C81.0945 31.0885 81.1884 30.7183 81.2743 30.4154C81.3782 30.1014 81.4425 29.9242 81.4673 29.8838C81.5101 29.8323 81.5773 29.6096 81.669 29.2159C81.7234 28.9826 81.768 28.8238 81.803 28.7397C81.8413 28.641 81.8931 28.5839 81.9582 28.5683C82.0379 28.5561 82.0812 28.5355 82.088 28.5063C82.0948 28.4771 82.0646 28.4086 81.9975 28.3007C81.9104 28.0806 81.9076 27.7955 81.9891 27.4455C82.1386 26.8038 82.3816 26.2224 82.7183 25.7012C82.9952 25.3044 83.2284 25.1281 83.418 25.1723L83.7024 25.2385C83.7495 25.2341 83.7962 25.1989 83.8423 25.1327C83.957 25.0364 84.0581 24.9985 84.1456 25.0189C84.3644 25.0698 84.4823 25.2895 84.4995 25.6779C84.5083 25.7721 84.521 25.8827 84.5375 26.0096C84.5721 26.1253 84.6084 26.2336 84.6463 26.3347C84.7266 26.584 84.6835 27.066 84.5171 27.7806C84.4084 28.2473 84.2637 28.7363 84.0831 29.2478C84.0346 29.3902 83.9571 29.6566 83.8508 30.047C83.7445 30.4373 83.6281 30.8714 83.5014 31.3493C83.3927 31.816 83.2835 32.2518 83.1738 32.6567C83.0641 33.0617 82.9833 33.3426 82.9313 33.4997C82.8828 33.6421 82.8296 33.8373 82.7719 34.0852C82.7175 34.3185 82.6705 34.5536 82.6307 34.7903C82.6089 35.0159 82.5114 35.5005 82.3382 36.2443L81.8359 38.2029C81.7442 38.5966 81.7013 38.9787 81.7073 39.3491C81.7224 39.614 81.7237 39.8065 81.7111 39.9265C81.633 40.262 81.5539 40.5357 81.4738 40.7476C81.4082 40.963 81.3551 41.1582 81.3143 41.3332C81.277 41.4936 81.2588 41.6047 81.2598 41.6664C81.3213 42.3265 81.3011 42.8752 81.1992 43.3127C81.1686 43.444 81.1453 43.5769 81.1293 43.7116C81.1279 43.8496 81.135 43.9512 81.1506 44.0164C81.1662 44.0815 81.1121 44.4456 80.9884 45.1086C80.839 45.7503 80.7993 46.2177 80.8694 46.5108C80.9196 46.6916 80.9442 46.9817 80.9434 47.3813C80.9182 47.6214 80.949 47.9515 81.0357 48.3714C81.1515 48.7981 81.218 49.2057 81.2352 49.594C81.3698 50.7324 81.6226 51.4293 81.9936 51.6848C82.3791 51.9438 82.6594 52.0936 82.8344 52.1344C83.2719 52.2363 83.7453 52.0852 84.2545 51.681L86.4317 49.8589C86.8083 49.5622 87.1389 49.2318 87.4236 48.8676L88.2268 47.9938C88.5946 47.6029 88.8396 47.1449 88.9619 46.6199L88.991 46.396C89.0487 46.1481 89.1208 46.0035 89.2073 45.9621C89.2938 45.9208 89.3456 45.8636 89.3626 45.7907C89.3796 45.7178 89.3489 45.6184 89.2706 45.4925C89.2103 45.3555 89.248 44.9953 89.3839 44.4119L89.6015 43.3787C89.7765 42.2971 89.9677 41.3115 90.1749 40.4219L90.7557 37.9281C90.912 37.2573 91.0302 36.8159 91.1103 36.6039C91.1632 36.5086 91.1999 36.4172 91.2203 36.3297C91.2508 36.1985 91.2489 36.075 91.2143 35.9593C91.1977 35.8325 91.253 35.4302 91.3801 34.7526C91.5163 33.9695 91.7594 32.8269 92.1093 31.3248C92.4048 30.056 92.5897 29.3611 92.664 29.24C92.7 29.2176 92.7282 29.1627 92.7486 29.0752C92.7723 28.9731 92.7849 28.853 92.7863 28.715C92.8023 28.5803 92.8239 28.4547 92.8511 28.338C92.9734 27.813 93.1565 27.4559 93.4004 27.2667C93.5836 27.1403 93.8227 27.1037 94.1178 27.1571C94.3949 27.2216 94.6365 27.3394 94.8427 27.5104C95.0668 27.6702 95.1568 27.845 95.1127 28.0345C95.1025 28.0783 95.0945 28.1456 95.0887 28.2365C95.1009 28.3162 95.1113 28.4032 95.1201 28.4975C95.1587 28.8601 95.1083 29.3404 94.969 29.9383L94.779 30.6551L94.6298 31.1969C94.5652 31.474 94.5306 31.6888 94.5258 31.8415C94.521 31.9941 94.48 32.269 94.4029 32.6661C94.3291 33.0487 94.2379 33.4733 94.1292 33.94C94.0205 34.4067 93.9147 34.8279 93.8118 35.2037C93.7123 35.5649 93.6502 35.7657 93.6254 35.806C93.6152 35.8498 93.6033 35.9008 93.5897 35.9591C93.5218 36.2508 93.4634 36.5678 93.4144 36.91C93.3664 37.3139 93.3136 37.6399 93.2558 37.8878C93.2185 38.0482 93.1716 38.1833 93.1153 38.2932C93.0769 38.3919 93.0459 38.4923 93.0221 38.5944C92.9949 38.711 92.993 38.8182 93.0164 38.9159C93.0431 38.999 93.0197 39.2319 92.9459 39.6144L92.6759 40.7738C92.5696 41.1642 92.4793 41.4199 92.4049 41.541C92.3622 41.5925 92.3357 41.6402 92.3255 41.6839C92.3051 41.7714 92.3139 41.8657 92.3519 41.9668C92.4078 42.0567 92.4171 42.1819 92.3797 42.3423L92.3018 42.5778C92.149 43.2341 92.0565 43.6968 92.0246 43.9661C91.8747 44.8076 91.7437 45.469 91.6316 45.9502L90.9132 49.0346C90.7036 50.0006 90.5704 50.6383 90.5137 50.948C90.4977 51.0826 90.4659 51.2521 90.4184 51.4562C90.362 51.5661 90.2804 51.6855 90.1735 51.8143C90.0812 51.9466 90.0317 52.0273 90.0249 52.0564L90.0045 52.1439L90.0899 52.3714C90.1522 52.6319 90.0781 53.2143 89.8675 54.1184C89.7078 54.8039 89.5622 55.2312 89.4305 55.4004C89.1021 55.7544 88.6899 55.8736 88.1941 55.7581C87.7566 55.6562 87.5786 55.4303 87.6601 55.0803C87.6907 54.949 87.6214 54.8176 87.4521 54.6859C87.2975 54.5576 87.2719 54.2057 87.3752 53.6302C87.4397 53.3531 87.479 53.0855 87.493 52.8274C87.5104 52.5547 87.504 52.3841 87.4738 52.3156C87.4772 52.301 87.4716 52.292 87.457 52.2886C87.4133 52.2784 87.2588 52.3808 86.9934 52.5957L86.5364 52.9736C85.311 54.0104 84.2146 54.493 83.2473 54.4214C83.0217 54.3996 82.8623 54.424 82.769 54.4945C82.6791 54.5505 82.5977 54.5699 82.5248 54.553ZM96.3117 56.7495C96.0492 56.6883 95.7845 56.6036 95.5176 56.4953C95.1923 56.3734 94.9361 56.2523 94.749 56.1318C94.5618 56.0113 94.3977 55.8578 94.2566 55.6712C94.0495 55.4384 93.8659 55.2035 93.7059 54.9663C93.5638 54.718 93.4996 54.5647 93.5132 54.5063C93.5268 54.448 93.4749 54.2745 93.3577 53.9858C93.1378 53.4119 93.0462 52.9139 93.083 52.492C93.1343 52.0734 93.177 51.7913 93.2109 51.6454C93.2993 51.2663 93.4423 51.0151 93.6401 50.8921C93.8559 50.7578 94.0075 50.7009 94.095 50.7213C94.1825 50.7417 94.2166 50.8265 94.1972 50.9757C94.1924 51.1283 94.2337 51.2148 94.3212 51.2352C94.4087 51.2556 94.5351 51.2082 94.7003 51.0929C94.8835 50.9665 95.048 50.9202 95.1939 50.9542C95.4418 51.0119 95.605 51.3344 95.6835 51.9215C95.7951 52.7624 95.8456 53.3046 95.835 53.5481C95.8336 53.6862 95.8945 53.8541 96.0175 54.0519L96.2021 54.3485C96.6634 54.3483 96.9159 54.3534 96.9597 54.3635C97.2357 54.3664 97.4299 54.3578 97.5422 54.3378C97.6725 54.3066 97.7585 54.2344 97.8002 54.1211C97.842 54.0079 97.8815 53.871 97.9189 53.7106L97.9851 53.4262C98.1686 52.6387 98.1138 51.7188 97.8207 50.6666C97.5365 49.7087 97.1619 49.0064 96.6971 48.5599C96.5459 48.4171 96.433 48.1755 96.3585 47.8353C96.3161 47.6871 96.3018 47.5838 96.3153 47.5254C96.3289 47.4671 96.2088 47.2239 95.9549 46.7957C95.7156 46.371 95.5669 46.052 95.509 45.8386C95.3322 45.0133 95.3067 44.3309 95.4324 43.7913C95.5275 43.3829 95.6948 43.0606 95.9344 42.8243C96.1885 42.5913 96.3274 42.4238 96.3512 42.3218C96.3784 42.2051 96.5212 42.0539 96.7798 41.8681C97.8824 41.0948 99.0316 40.8474 100.227 41.1259C100.694 41.2346 101.061 41.443 101.327 41.7511C101.409 41.8624 101.594 42.0592 101.882 42.3415C102.132 42.5844 102.282 42.8653 102.331 43.1841C102.435 43.5311 102.508 43.7097 102.552 43.7199C102.61 43.7335 102.647 43.8728 102.662 44.1377C102.681 44.388 102.661 44.6371 102.604 44.885C102.509 45.2934 102.376 45.5316 102.207 45.5997C102.04 45.6533 101.841 45.6529 101.607 45.5985C101.301 45.5272 101.019 45.4155 100.763 45.2634C100.601 45.1644 100.401 44.9024 100.162 44.4777C99.9369 44.0564 99.7696 43.8175 99.6598 43.7612C99.5679 43.6936 99.4928 43.6531 99.4344 43.6395C99.3178 43.6123 99.178 43.6182 99.0152 43.6572C98.4392 43.7536 98.0986 44.0279 97.9933 44.48C97.8608 45.0488 98.1032 45.8893 98.7205 47.0017C99.151 47.7939 99.3957 48.3275 99.4546 48.6026C99.5135 48.8777 99.5452 49.0388 99.5496 49.0859C99.6279 49.2118 99.6962 49.2815 99.7545 49.2951C99.8936 49.3582 100.003 49.4836 100.082 49.6712C100.109 49.7543 100.205 49.9689 100.37 50.3149C100.498 50.5598 100.574 50.762 100.598 50.9214C100.622 51.0809 100.681 51.3251 100.773 51.6541C100.838 51.8383 100.865 52.0213 100.853 52.2031C100.856 52.3883 100.83 52.6666 100.774 53.038C100.692 53.5878 100.62 53.9939 100.559 54.2564C100.498 54.5189 100.411 54.7292 100.297 54.8872C100.198 55.0486 100.047 55.2363 99.843 55.4502C98.8305 56.6289 97.6534 57.062 96.3117 56.7495Z" fill="#008080"/>
<g clip-path="url(#clip0_2003_13)">
<path d="M53.6138 58.3239C53.5554 57.752 53.913 56.9204 53.1878 56.6772C49.5933 54.739 45.7411 53.3225 41.7813 52.356C41.4055 52.2982 41.0272 52.3409 40.6585 52.4655C36.6477 58.6495 33.0281 65.1655 30.6653 72.1838C28.6646 76.6675 27.9877 81.6016 27.3843 86.434C25.5018 86.8906 23.5068 87.1211 21.8007 88.094C20.8085 88.6837 21.4968 90.011 22.0587 90.667C24.0516 92.7546 26.3303 94.5761 28.8504 96.0049C30.8279 97.1028 32.5526 98.6826 34.7443 99.3641C36.0904 99.7971 37.3095 100.516 38.5946 101.113C40.4262 98.7549 41.6607 96.0186 43.3722 93.5747C44.3351 92.1043 45.5979 90.7324 45.9722 88.9755C46.2605 88.0545 45.4779 87.3907 44.9631 86.7608C44.9585 86.5586 44.942 86.1332 44.9374 85.931C44.3786 85.6483 43.8185 85.3756 43.2657 85.124C45.8058 76.8682 48.5818 68.5012 53.5905 61.3652C54.3402 60.4625 54.0361 59.2848 53.6138 58.3239ZM29.2733 94.1031C27.2984 92.9854 25.5486 91.5234 23.9827 89.8831C25.599 89.2214 28.0781 89.3849 28.8062 87.4613C28.8259 86.2743 28.5131 85.0855 28.7535 83.9064C29.3501 80.0811 30.6224 76.4121 31.8524 72.7579C33.2496 68.6613 35.3184 64.8314 37.3823 61.0411C38.6158 58.7886 39.9894 56.6243 41.5388 54.5832C44.8029 55.4714 48.0245 56.5357 51.0592 58.0399C47.7218 61.6987 45.1323 65.9766 43.0139 70.4353C41.5966 73.4205 40.5585 76.5951 39.9146 79.8398C39.5657 81.9527 38.0802 83.6491 37.5764 85.712C37.6694 86.3287 38.0145 86.8664 38.2875 87.4152C39.811 87.2457 41.3404 87.1879 42.8735 87.181C41.679 89.126 40.373 90.9964 38.8924 92.7337C37.5697 94.2593 36.6162 96.0535 35.421 97.6859C33.2199 96.7613 31.3425 95.273 29.2733 94.1031Z" fill="#008080"/>
</g>
<defs>
<clipPath id="clip0_2003_13">
<rect width="28.87" height="48.77" fill="white" transform="translate(26.1865 50.376) rotate(7.23598)"/>
</clipPath>
</defs>
</svg>
