<svg width="103" height="84" viewBox="0 0 103 84" fill="none" xmlns="http://www.w3.org/2000/svg">
<g clip-path="url(#clip0_2003_14)">
<path d="M48.3744 46.0797C48.0158 47.2037 47.7544 48.358 47.5142 49.5167C46.6606 49.9445 45.6775 49.9745 44.7765 50.2711C43.9092 50.551 43.0376 50.8183 42.1312 50.9586C41.1295 49.1019 39.9849 47.3283 38.706 45.6466C36.3317 42.5589 34.0413 39.4044 31.4699 36.4797C28.7749 33.3894 26.1342 30.2362 23.0997 27.4682C21.824 26.2169 20.5901 24.907 19.2809 23.6808C17.6067 22.1899 15.8321 20.8165 14.1536 19.3298C12.9384 18.2479 11.556 17.3926 10.2321 16.4617C9.74521 16.8207 9.24552 17.1585 8.73301 17.4751C7.97246 17.9206 7.34026 18.5949 6.45986 18.8199C6.44912 18.516 6.41723 18.2076 6.43181 17.9038C6.78043 15.4545 6.53363 12.9623 6.41364 10.4965C6.3822 9.13299 5.87255 7.60098 6.62715 6.37048C7.26971 5.94942 8.041 5.80797 8.77383 5.60289C11.0741 5.05603 13.3872 4.52193 15.7226 4.15262C16.2702 4.00513 17.0704 4.34506 16.953 5.00675C16.8563 6.16663 17.1732 7.32143 17.1397 8.4776C16.8162 9.22624 16.3316 9.88916 15.9276 10.5992C18.1329 11.993 20.2589 13.5002 22.3013 15.1248C24.8448 17.1503 27.3674 19.2136 29.6641 21.5198C32.6749 24.5072 35.5223 27.6578 38.2272 30.9254C40.5572 33.7342 42.606 36.7559 44.5539 39.8359C46.197 41.6726 47.4456 43.8099 48.3744 46.0797ZM46.8967 48.79C47.1275 48.0575 47.3371 47.3206 47.5764 46.5881C46.2686 47.2232 44.905 47.7355 43.5586 48.2817C43.4059 48.7489 43.2575 49.212 43.1049 49.6793C44.3513 49.3011 45.5889 48.8722 46.8967 48.79ZM10.9472 15.5854C12.1579 16.6293 13.5192 17.4803 14.7257 18.5199C17.1644 20.6332 19.7411 22.5914 22.0165 24.8848C24.2709 27.1907 26.6384 29.3835 28.7671 31.8066C31.5512 34.9525 34.3438 38.0984 36.7923 41.5117C38.6991 44.182 40.8121 46.7653 42.114 49.802C42.3364 49.0779 42.6477 48.384 43.0268 47.7329C41.5666 45.5179 40.2239 43.2194 38.6712 41.0627C34.6613 35.442 30.0092 30.3015 25.1103 25.4502C22.4181 22.7398 19.5082 20.2555 16.5481 17.8468C14.7308 16.4054 12.8882 14.9723 10.8163 13.913C10.8543 14.4704 10.9007 15.0279 10.9472 15.5854ZM7.73755 15.8843C7.66909 16.3185 7.72307 16.7579 7.7137 17.1925C8.42322 16.696 9.14549 16.2123 9.83793 15.6904C9.77436 15.099 9.72342 14.5034 9.67673 13.9122C9.01895 14.5526 8.31877 15.1673 7.73755 15.8843ZM16.4252 8.31563C16.3745 7.75388 16.3281 7.18794 16.2816 6.622C15.7495 7.69816 15.2089 8.76579 14.6471 9.8206C14.787 9.90193 15.0625 10.0603 15.2067 10.1459C15.6115 9.53722 16.0204 8.92433 16.4252 8.31563ZM35.8514 29.8636C32.6462 26.288 29.3988 22.7205 25.7538 19.5845C22.6782 16.9681 19.5313 14.4059 16.1173 12.2383C15.0658 11.5967 14.0181 10.9086 12.8377 10.5403C12.8838 9.94133 12.9424 9.32137 13.2338 8.78351C13.8284 7.60235 14.4823 6.45543 15.1532 5.3171C12.4763 5.73007 9.81303 6.28242 7.21475 7.05055C7.22778 9.32557 7.69646 11.579 7.72644 13.8626C8.43055 13.2099 9.18023 12.4436 10.1925 12.359C11.0961 12.4085 11.8477 13.0013 12.5981 13.4506C15.5081 15.3904 18.155 17.6952 20.7934 19.9831C24.0605 22.8164 27.1015 25.8926 30.0168 29.0776C33.9487 33.3048 37.6543 37.7497 40.9023 42.5159C41.8583 43.908 42.7261 45.3627 43.7618 46.7006C44.8513 46.2157 46.0053 45.8958 47.112 45.4617C46.5174 43.8614 45.3177 42.6024 44.4205 41.1685C41.8202 37.218 39.0098 33.3924 35.8514 29.8636Z" fill="#333333"/>
</g>
<path d="M6.65411 74.5665C6.48406 74.5914 6.32663 74.5948 6.18182 74.5766C6.10225 74.5725 6.01429 74.538 5.91791 74.4732C5.82814 74.3995 5.7562 74.3666 5.70209 74.3746C5.48998 74.382 5.18438 74.2097 4.78528 73.8577L4.3247 73.4634C4.17287 73.3435 3.97744 73.0879 3.73839 72.6966C3.49935 72.3053 3.27236 71.8886 3.05743 71.4463C2.85022 71.003 2.7196 70.651 2.66557 70.3905C2.64763 70.322 2.62856 70.2459 2.60835 70.162C2.58814 70.0781 2.56577 70.0064 2.54123 69.9468C2.39062 69.5662 2.28103 69.223 2.21246 68.9172C2.14275 68.6037 2.07954 68.2537 2.02282 67.8672L1.87615 66.7872C1.84325 66.5631 1.81765 66.2273 1.79937 65.7799C1.78533 65.5766 1.78083 65.4115 1.78587 65.2844C1.78212 64.8823 1.79028 64.5613 1.81035 64.3214C1.83319 63.9391 1.89071 63.524 1.98291 63.0761C2.01113 62.9457 2.03184 62.8716 2.04503 62.8538C2.06142 62.804 2.06564 62.7521 2.05769 62.698C2.03614 62.5511 2.09043 62.3023 2.22056 61.9516C2.34956 61.5931 2.50016 61.2473 2.67234 60.914C2.85112 60.572 3.01044 60.3393 3.15028 60.2162C3.19985 60.1773 3.25545 60.1257 3.31708 60.0614C3.48217 59.895 3.58234 59.7974 3.61758 59.7685C3.65283 59.7397 3.67818 59.7241 3.69364 59.7219C3.74002 59.715 3.87348 59.656 4.09402 59.5446C4.27819 59.4544 4.41665 59.4025 4.50941 59.3889L4.55579 59.3821L4.94862 59.3955C5.26801 59.4197 5.60932 59.5394 5.97254 59.7545C6.33576 59.9697 6.62622 60.2271 6.84392 60.5268C6.96277 60.691 7.04379 60.7857 7.08698 60.8109C7.19881 60.8735 7.33868 61.0464 7.5066 61.3297C7.67339 61.6053 7.83425 61.9212 7.98919 62.2775C8.00487 62.3305 8.09347 62.5307 8.25501 62.8781C8.56148 63.5675 8.73741 64.0667 8.78279 64.3759C8.80095 64.4996 8.79853 64.5908 8.77556 64.6494C8.76463 64.6826 8.76088 64.7108 8.76428 64.734C8.76882 64.7649 8.80165 64.8272 8.86278 64.9209C9.00049 65.1059 9.10565 65.4458 9.17825 65.9405C9.19527 66.0565 9.20229 66.1581 9.19931 66.2454C9.19633 66.3327 9.19551 66.4078 9.19686 66.4708C9.19707 66.526 9.19945 66.5691 9.20398 66.6L9.29896 67.1665C9.36023 67.5839 9.38618 67.8683 9.37681 68.0197C9.36631 68.1634 9.36844 68.2854 9.38319 68.3859L9.40191 68.5135C9.428 68.6912 9.42704 68.873 9.39902 69.0587C9.36782 69.2765 9.3564 69.4677 9.36476 69.6323C9.37313 69.7969 9.35681 70.0085 9.31582 70.2672C9.28142 70.517 9.26819 70.669 9.27613 70.7231C9.28975 70.8159 9.26173 71.0016 9.19209 71.2803C9.12904 71.5501 9.05054 71.8222 8.95657 72.0966C8.8626 72.3709 8.77775 72.5729 8.70201 72.7025C8.65811 72.78 8.60056 72.899 8.52936 73.0594C8.45951 73.2829 8.29973 73.5393 8.05004 73.8286C7.94111 73.9472 7.85573 74.0111 7.79389 74.0202C7.77843 74.0225 7.7184 74.0707 7.6138 74.1651C7.4146 74.368 7.0947 74.5018 6.65411 74.5665ZM6.53138 73.2461C6.77873 73.2098 7.0068 73.0421 7.21557 72.743C7.55831 72.2268 7.7628 71.8178 7.82904 71.5159C7.86479 71.329 7.91532 71.1084 7.98063 70.854C8.05368 70.5985 8.09627 70.3238 8.1084 70.0299L8.13245 69.3867C8.11509 68.8918 8.11669 68.4455 8.13726 68.0476C8.15868 67.8708 8.15635 67.6935 8.13025 67.5157C8.11324 67.3997 8.05296 67.0967 7.94944 66.6065C7.8886 66.2996 7.83038 65.9568 7.77479 65.578L7.7013 64.9966C7.68563 64.9436 7.61646 64.7682 7.49378 64.4703C7.44585 64.3589 7.40121 64.2431 7.35987 64.1228L6.83888 62.6714C6.80754 62.5654 6.73472 62.4458 6.6204 62.3126C6.52609 62.208 6.37895 62.0124 6.17897 61.7259C5.97786 61.4317 5.79867 61.233 5.64138 61.1297C5.34227 60.9209 5.15999 60.7819 5.09453 60.7125C5.00135 60.6156 4.89293 60.5763 4.76925 60.5944C4.65331 60.6115 4.52428 60.6738 4.38216 60.7815C4.07588 61.0081 3.82469 61.3411 3.62861 61.7805C3.52464 62.0405 3.44592 62.2574 3.39245 62.431C3.33784 62.597 3.29334 62.8048 3.25894 63.0547C3.22454 63.3045 3.18511 63.6814 3.14064 64.1854C3.12447 64.2904 3.10886 64.3993 3.09383 64.5121C3.08539 64.616 3.07411 64.7005 3.06 64.7658C3.05361 64.8299 3.04939 64.8818 3.04733 64.9216C3.04414 64.9537 3.04368 64.9774 3.04595 64.9929L3.06435 65.0375C3.07116 65.0839 3.06751 65.1397 3.05339 65.205C3.04147 65.5542 3.07575 66.1374 3.15622 66.9547C3.18841 67.2816 3.21812 67.5378 3.24535 67.7233C3.29753 68.0789 3.42482 68.5695 3.62719 69.1952C3.68967 69.3518 3.79039 69.6884 3.92938 70.205C3.99433 70.4323 4.05248 70.6133 4.10382 70.7479C4.19309 70.9796 4.4377 71.3819 4.83765 71.9549C5.47983 72.8872 6.04441 73.3176 6.53138 73.2461ZM15.7879 72.9653C15.757 72.9699 15.7294 72.97 15.7051 72.9657C15.568 72.9463 15.4624 72.9263 15.3883 72.9055C15.3142 72.8848 15.26 72.8652 15.2257 72.8465C15.1902 72.8201 15.1619 72.7887 15.1408 72.7524C15.0797 72.6587 15.0412 72.5577 15.0253 72.4495C15.0094 72.3413 15.0174 72.2612 15.0492 72.2091C15.0888 72.1559 15.1057 72.11 15.1001 72.0714C15.0944 72.0327 15.0584 72.0025 14.992 71.9806C14.9588 71.9697 14.9267 71.9665 14.8958 71.9711C14.8108 71.9835 14.6599 72.1123 14.4432 72.3573C14.1749 72.6809 13.9359 72.8818 13.7263 72.96C13.5232 73.0293 13.3831 73.0696 13.3058 73.0809C13.0816 73.1138 12.8942 73.0742 12.7435 72.9621C12.5196 72.7817 12.3905 72.6823 12.3562 72.6636C12.3207 72.6372 12.2858 72.6147 12.2515 72.5961C12.1663 72.5533 12.0791 72.4437 11.9901 72.2673C11.9076 72.082 11.8469 71.9645 11.8081 71.9149C11.7458 71.8135 11.6749 71.6265 11.5954 71.3539C11.478 70.9843 11.4006 70.6719 11.3632 70.4168C11.3371 70.239 11.3278 70.1219 11.3353 70.0656C11.3494 70.0003 11.3536 69.9484 11.3479 69.9097C11.3434 69.8788 11.3261 69.8419 11.2961 69.7989C11.2316 69.682 11.1387 69.2101 11.0173 68.383C10.9322 67.8032 10.8643 67.2328 10.8135 66.6718C10.7222 65.6192 10.862 65.0657 11.2331 65.0112C11.3181 64.9987 11.4154 65.016 11.5249 65.0631C11.6345 65.1102 11.7294 65.2187 11.8096 65.3885C11.8898 65.5584 11.9491 65.7471 11.9874 65.9546C12.0181 66.1633 12.0088 66.3424 11.9596 66.4917C11.928 66.599 11.9196 66.7029 11.9343 66.8034C11.9513 66.9193 12.0031 67.0302 12.0897 67.1359C12.1363 67.1843 12.2067 67.5293 12.3009 68.1709C12.4495 69.1835 12.5566 69.7521 12.6223 69.8767C12.64 69.8899 12.7 70.1101 12.8021 70.5372C12.9295 71.1897 13.0381 71.5528 13.1278 71.6265C13.2165 71.6924 13.2801 71.7226 13.3188 71.7169C13.4347 71.6999 13.575 71.553 13.7397 71.2761C14.1043 70.6936 14.3241 70.2546 14.3992 69.9594C14.4821 69.6629 14.4843 69.2481 14.406 68.7147C14.3198 68.1272 14.2893 67.8119 14.3146 67.7687C14.3387 67.7178 14.3445 67.6499 14.332 67.5648L14.2884 67.4291C14.2793 67.3673 14.3111 67.2876 14.3836 67.1901C14.4562 67.0926 14.4879 67.0129 14.4788 66.9511C14.4686 66.8815 14.4137 66.8303 14.3142 66.7976C14.136 66.7132 14.0317 66.5942 14.0012 66.4408C13.9697 66.2796 13.9505 66.1758 13.9437 66.1294C13.9085 65.8898 13.912 65.6445 13.9541 65.3936C14.0072 65.1094 14.1202 64.9112 14.2933 64.7989C14.4156 64.7178 14.5231 64.6705 14.6159 64.6568C14.7628 64.6353 14.8812 64.689 14.9712 64.8179C15.1145 65.0416 15.2475 65.5709 15.37 66.4057C15.4302 66.8154 15.6281 68.0024 15.9637 69.9666L16.2589 71.7355C16.3065 72.0601 16.3277 72.2584 16.3225 72.3302C16.2979 72.5391 16.2112 72.7019 16.0625 72.8184C15.9645 72.9039 15.873 72.9529 15.7879 72.9653ZM18.8998 72.3783C18.7915 72.3942 18.6838 72.3863 18.5765 72.3547C18.4071 72.2769 18.2761 72.1106 18.1835 71.8557C18.0974 71.592 18.0419 71.3751 18.0169 71.205C17.9885 71.0118 17.9801 70.8196 17.9915 70.6284C18.0022 70.54 18.0036 70.4687 17.9956 70.4146C17.9811 70.3693 17.9544 70.3219 17.9155 70.2724C17.8644 70.193 17.8281 70.0799 17.8065 69.933L17.7946 69.8519C17.7594 69.6123 17.7171 69.3776 17.6676 69.148L17.434 67.8794C17.3392 67.3406 17.2548 66.9542 17.181 66.7203C17.1485 66.6066 17.1277 66.5189 17.1187 66.457C17.1085 66.3874 17.11 66.3438 17.1231 66.3261C17.1395 66.2763 17.1245 66.0929 17.0779 65.776L17.0201 65.3818C16.9566 64.9489 16.9544 64.665 17.0135 64.53C17.0715 64.3872 17.1971 64.3017 17.3904 64.2733C17.6532 64.2347 17.8328 64.2479 17.9292 64.3127C18.0321 64.3686 18.1187 64.4744 18.1889 64.6299C18.2391 64.7568 18.2797 64.8179 18.3106 64.8134L18.3686 64.8049C18.4381 64.7947 18.5544 64.7263 18.7175 64.5997C19.1968 64.2609 19.6037 64.0472 19.9381 63.9586C20.2803 63.8689 20.5248 63.8133 20.6716 63.7917C20.9963 63.7441 21.2852 63.749 21.5385 63.8066C21.921 63.8847 22.1345 64.0745 22.1787 64.3759C22.19 64.4532 22.1776 64.5301 22.1415 64.6065C22.1119 64.674 22.0701 64.7117 22.0159 64.7196C22.0082 64.7208 21.9598 64.7674 21.8706 64.8594C21.7651 65.0012 21.5809 65.0914 21.3181 65.13C21.2408 65.1413 21.1508 65.1467 21.0481 65.146C20.953 65.1441 20.8476 65.1517 20.7316 65.1687C20.4301 65.213 20.1295 65.3163 19.8296 65.4788C19.4128 65.7058 19.0956 65.9655 18.878 66.258C18.6603 66.5505 18.5679 66.8089 18.6008 67.033C18.6076 67.0794 18.6183 67.1252 18.6329 67.1705C18.6551 67.2146 18.6691 67.256 18.6748 67.2946C18.6804 67.3333 18.6778 67.3692 18.6669 67.4024C18.6548 67.4278 18.6516 67.4599 18.6573 67.4985C18.6653 67.5526 18.6871 67.6205 18.7227 67.7021C18.7661 67.7826 18.8003 67.9079 18.8253 68.0779L18.8749 68.497C18.9101 68.7367 18.9439 68.9133 18.9764 69.027C19.0077 69.1329 19.028 69.2168 19.037 69.2787C19.0384 69.3416 19.0287 69.4102 19.008 69.4843C18.9861 69.5507 18.9803 69.6186 18.9905 69.6882L19.0174 69.7908C19.1054 69.9595 19.1584 70.1057 19.1766 70.2294C19.1936 70.3454 19.1834 70.4377 19.1461 70.5063C19.1154 70.5661 19.088 70.6214 19.0639 70.6723L19.2003 70.7945C19.3046 70.9134 19.3743 71.0927 19.4095 71.3323C19.4458 71.5796 19.4272 71.7758 19.3538 71.9208C19.3208 71.9652 19.267 72.056 19.1924 72.1932C19.1496 72.2785 19.094 72.3301 19.0256 72.348C18.9572 72.366 18.9152 72.3761 18.8998 72.3783ZM32.1482 70.6471C31.8699 70.6879 31.6545 70.6998 31.5019 70.6827C31.1814 70.6508 30.9181 70.5512 30.7119 70.3841C30.6499 70.3379 30.5934 70.3028 30.5425 70.2787C30.4982 70.2457 30.4683 70.2303 30.4528 70.2326C30.3678 70.2451 30.2244 70.1556 30.0225 69.9641C29.8273 69.7638 29.6409 69.5424 29.4631 69.3C29.2843 69.0499 29.1841 68.8514 29.1626 68.7045C29.1455 68.5886 29.0954 68.4894 29.0123 68.4068C28.8359 68.2274 28.6899 67.7435 28.5741 66.955C28.5036 66.4206 28.6422 66.1278 28.9901 66.0767C29.2065 66.045 29.3845 66.0741 29.524 66.1642C29.6416 66.2654 29.7771 66.5969 29.9306 67.1587C30.0269 67.492 30.0973 67.7027 30.1418 67.7909C30.1718 67.8339 30.201 67.952 30.2294 68.1453L30.26 68.354C30.2713 68.4313 30.3146 68.4841 30.3899 68.5126C30.4928 68.5685 30.602 68.667 30.7175 68.808C30.7829 68.8773 30.8567 68.9494 30.9387 69.0242C31.0285 69.0979 31.1077 69.1534 31.1764 69.1907C31.2793 69.2467 31.4106 69.334 31.5702 69.4527C31.702 69.5439 31.7949 69.5855 31.8491 69.5776C31.8954 69.5708 31.9357 69.5491 31.9698 69.5125C32.0116 69.4748 32.0585 69.4442 32.1103 69.4208C32.1699 69.3963 32.219 69.3812 32.2576 69.3755C32.3736 69.3585 32.4574 69.3106 32.509 69.232C32.5595 69.1456 32.637 69.0553 32.7416 68.961C32.9047 68.8344 33.0897 68.5348 33.2967 68.0622L33.5826 67.4281C33.6659 67.2421 33.6837 66.9868 33.636 66.6622C33.5668 66.1907 33.3993 65.7218 33.1335 65.2554C32.8665 64.7814 32.6215 64.4304 32.3986 64.2025C32.1822 63.9658 31.8026 63.6662 31.2599 63.3037C31.0737 63.1652 30.9795 63.0882 30.9772 63.0727C30.9738 63.0496 30.955 63.0286 30.9207 63.01C30.8863 62.9913 30.8487 62.9771 30.8078 62.9673C30.7657 62.9498 30.6977 62.9164 30.6036 62.867C30.5083 62.8099 30.4081 62.7457 30.3029 62.6743C30.0724 62.5028 29.9041 62.4051 29.7979 62.3812C29.6984 62.3484 29.5638 62.2655 29.3942 62.1325C29.2313 61.9906 29.0744 61.836 28.9235 61.6686C28.7725 61.5012 28.6637 61.3514 28.5969 61.2191C28.5378 61.0856 28.4684 60.9892 28.3886 60.9298C28.0948 60.6492 27.9047 60.2152 27.8185 59.6277C27.7411 59.0469 27.7665 58.4667 27.8947 57.8873C28.0294 57.299 28.2603 56.8545 28.5873 56.5538C28.6853 56.4684 28.7987 56.353 28.9274 56.2078C29.2619 55.8508 29.6881 55.6342 30.206 55.5582C30.9403 55.4504 31.532 55.6084 31.9811 56.032C32.1397 56.1982 32.2655 56.3022 32.3585 56.3438C32.4581 56.3766 32.5567 56.4568 32.6544 56.5846C32.6867 56.6431 32.7222 56.6971 32.7611 56.7466C32.7988 56.7885 32.8304 56.8154 32.8559 56.8275C33.0222 56.9926 33.2548 57.4204 33.5536 58.1109C33.6908 58.454 33.7741 58.726 33.8036 58.927C33.8342 59.1357 33.8183 59.2959 33.7557 59.4078C33.6921 59.5119 33.5344 59.5942 33.2827 59.6549C33.159 59.673 33.0401 59.6431 32.926 59.5651C32.8108 59.4793 32.7452 59.3824 32.7294 59.2741C32.718 59.1968 32.6735 59.1086 32.5958 59.0095C32.5124 58.8717 32.4533 58.7382 32.4186 58.6091C32.3838 58.48 32.3437 58.395 32.2983 58.3543C32.2528 58.3136 32.1622 58.1808 32.0266 57.956C31.9655 57.8623 31.9093 57.7758 31.8582 57.6964C31.8137 57.6082 31.7897 57.5525 31.7863 57.5293C31.7738 57.4443 31.6878 57.3424 31.5283 57.2237C31.3687 57.105 31.1921 57.0046 30.9984 56.9224C30.8114 56.8315 30.6631 56.79 30.5538 56.7982C30.0768 56.884 29.7072 57.1633 29.445 57.6361C29.1816 58.1011 29.0538 58.4949 29.0617 58.8175C29.0695 59.1401 29.0797 59.3439 29.0922 59.4289C29.1557 59.8618 29.335 60.2224 29.63 60.5108C29.7098 60.5701 29.7619 60.6296 29.7865 60.6891C29.8153 60.7244 29.8796 60.786 29.9794 60.874C30.0858 60.9532 30.2093 61.0416 30.35 61.1394C30.4907 61.2372 30.6403 61.3416 30.7987 61.4526C31.1178 61.69 31.3593 61.8559 31.5232 61.9503C31.6373 62.0283 31.7325 62.0854 31.8089 62.1216C32.048 62.2444 32.3803 62.4641 32.8058 62.7807C32.9665 62.9071 33.0485 62.9819 33.0519 63.0051C33.0553 63.0283 33.1263 63.1087 33.265 63.2463C33.4068 63.3518 33.5056 63.4597 33.5612 63.57C33.6701 63.7198 33.7611 63.8288 33.8343 63.8971C33.954 64.0137 34.0524 64.173 34.1294 64.3749C34.1651 64.4565 34.2008 64.5381 34.2364 64.6198C34.2787 64.6925 34.3098 64.7432 34.3298 64.7719C34.5819 65.0902 34.7612 65.6127 34.8678 66.3393C34.9098 66.6253 34.9202 66.8843 34.899 67.1164C34.883 67.2767 34.8741 67.4043 34.8723 67.4994C34.862 67.6983 34.7868 67.9659 34.6467 68.3024C34.5131 68.6299 34.3601 68.9327 34.1877 69.2107C34.0231 69.4875 33.8944 69.6327 33.8016 69.6463C33.7166 69.6588 33.6422 69.7171 33.5785 69.8212C33.5149 69.9253 33.4173 69.987 33.2859 70.0063C33.1622 70.0244 33.0845 70.0595 33.0526 70.1116C33.0197 70.1559 32.9635 70.2036 32.8841 70.2548C32.8412 70.2848 32.8208 70.3075 32.8231 70.323L32.8364 70.3328C32.9016 70.347 32.9359 70.3656 32.9394 70.3888C32.9473 70.4429 32.8177 70.5014 32.5506 70.5643C32.4292 70.5979 32.295 70.6255 32.1482 70.6471ZM38.8918 69.3849L38.6814 69.4039C38.277 69.3922 37.8842 69.2445 37.503 68.961C37.1285 68.6685 36.8775 68.3303 36.7501 67.9463C36.7176 67.8326 36.6579 67.6953 36.5711 67.5343C36.5123 67.4561 36.4604 67.3176 36.4154 67.1189C36.3929 67.0195 36.3664 66.8655 36.3358 66.6568C36.3063 66.4558 36.2869 66.2968 36.2776 66.1797C36.2683 66.0627 36.2733 65.9356 36.2927 65.7985C36.3198 65.6603 36.3643 65.4524 36.4262 65.1748C36.4535 65.0919 36.4735 64.9863 36.4863 64.8581C36.4893 64.7708 36.4879 64.7078 36.4823 64.6692C36.4664 64.5609 36.5019 64.4531 36.5888 64.3456L36.7058 64.1744L36.4834 64.1123C36.2666 64.0336 36.136 63.8435 36.0918 63.542C36.0396 63.1865 36.0697 62.8267 36.1821 62.4628C36.3023 62.0977 36.4907 61.8213 36.7474 61.6336C37.1078 61.3991 37.4271 61.2615 37.7054 61.2206C37.9527 61.1843 38.1684 61.2277 38.3522 61.3507C38.4154 61.4046 38.4702 61.4282 38.5166 61.4214L38.5861 61.4111C38.7098 61.393 38.8941 61.4647 39.1388 61.6261C39.4114 61.8151 39.6747 62.0489 39.9287 62.3275C40.1894 62.5971 40.3328 62.8209 40.3589 62.9987C40.3702 63.076 40.4076 63.1692 40.471 63.2783C40.7655 63.7247 40.9444 64.1366 41.0077 64.5143C41.0699 64.8842 41.105 65.0961 41.1129 65.1503C41.2048 65.7764 41.1807 66.2576 41.0406 66.594C40.9792 66.7136 40.9277 66.8475 40.8863 66.9957C40.8526 67.1428 40.8403 67.2472 40.8494 67.3091L40.8528 67.3323C40.8619 67.3941 40.8473 67.4831 40.8091 67.5992C40.7697 67.7077 40.7199 67.8255 40.6596 67.9528C40.5982 68.0724 40.5394 68.156 40.4833 68.2037C40.4348 68.2503 40.3837 68.3052 40.3298 68.3684C40.2836 68.4305 40.2452 68.4914 40.2145 68.5512C40.0673 68.7859 39.8664 68.9773 39.6117 69.1252C39.3637 69.2643 39.1237 69.3508 38.8918 69.3849ZM38.7346 68.1524C38.8119 68.1411 38.8869 68.1143 38.9597 68.072C39.0622 68.0175 39.2278 67.8274 39.4564 67.5017C39.541 67.3787 39.5969 67.2757 39.6242 67.1928C39.6679 67.06 39.7078 66.9555 39.744 66.8791C39.7802 66.8027 39.7946 66.6861 39.7874 66.5292C39.7802 66.3724 39.7881 66.2646 39.811 66.206C39.834 66.1473 39.8184 65.8259 39.7642 65.2416L39.6856 64.6254C39.6596 64.4476 39.6409 64.3477 39.6298 64.3256C39.5966 64.3147 39.5755 64.2783 39.5664 64.2165C39.5573 64.1547 39.4994 64.0289 39.3926 63.8393C39.1268 63.373 38.9029 63.0584 38.7211 62.8956C38.5747 62.7591 38.4583 62.638 38.3717 62.5323C38.2928 62.4254 38.2059 62.3711 38.1109 62.3692C38.0236 62.3662 37.9645 62.367 37.9335 62.3716C37.8253 62.3874 37.7261 62.4375 37.6358 62.5219C37.5016 62.6837 37.4217 62.8652 37.3959 63.0664C37.3779 63.2664 37.3763 63.4167 37.391 63.5172C37.4058 63.6177 37.4343 63.7043 37.4765 63.777C37.532 63.8321 37.601 63.9522 37.6834 64.1375C37.7659 64.3228 37.8692 64.4617 37.9933 64.554C38.124 64.6375 38.1944 64.714 38.2046 64.7835L38.2152 64.936C38.2197 64.9669 38.2452 64.9789 38.2915 64.9721C38.4075 64.9551 38.4935 65.057 38.5496 65.2777L38.5564 65.3241C38.6006 65.6256 38.4179 65.8064 38.0083 65.8665C37.7764 65.9005 37.653 66.0016 37.6382 66.1696C37.6311 66.3364 37.6332 66.4585 37.6446 66.5358C37.6775 66.76 37.7713 67.0225 37.926 67.3236C38.0173 67.5155 38.0698 67.6578 38.0834 67.7506L38.0854 67.845C38.0922 67.8914 38.1151 67.9394 38.1539 67.9889C38.1917 68.0308 38.2299 68.0489 38.2685 68.0432C38.3149 68.0364 38.3813 68.0582 38.4676 68.1087C38.5529 68.1515 38.6419 68.1661 38.7346 68.1524ZM44.8927 68.4686C44.7613 68.4879 44.6199 68.4928 44.4685 68.4835C44.0884 68.4761 43.809 68.375 43.6304 68.1801L43.1797 67.7725C43.0101 67.6394 42.8676 67.5024 42.7522 67.3614C42.6433 67.2116 42.581 67.0826 42.5651 66.9743C42.5537 66.897 42.5131 66.8083 42.4431 66.708C42.2342 66.4149 42.0686 65.8509 41.946 65.0161C41.8212 64.1659 41.8044 63.513 41.8954 63.0574C41.9496 62.781 41.9733 62.6196 41.9665 62.5732C41.9586 62.5191 41.9918 62.3958 42.0662 62.2033C42.144 62.0339 42.1871 61.8973 42.1955 61.7934C42.2151 61.7116 42.2645 61.6175 42.3436 61.5111C42.4339 61.4268 42.4745 61.3537 42.4654 61.2919C42.462 61.2687 42.4762 61.2311 42.5081 61.179C42.5695 61.0594 42.6234 60.9963 42.6698 60.9895C42.7239 60.9815 42.7778 60.9183 42.8314 60.7999C42.9104 60.6383 43.0418 60.4848 43.2258 60.3393C43.4945 60.1262 43.741 60.0031 43.9652 59.9702C44.0579 59.9566 44.1309 59.9696 44.1841 60.0092C44.2439 60.0399 44.4124 60.0586 44.6898 60.0652L44.834 60.0796C45.0452 60.1197 45.2834 60.29 45.5486 60.5906C45.8215 60.8901 46.0133 61.2015 46.124 61.5248C46.1855 61.7289 46.2574 61.8961 46.3397 62.0261C46.4108 62.1341 46.4515 62.2229 46.4617 62.2925C46.4776 62.4007 46.4275 62.4633 46.3116 62.4803C46.1956 62.4973 46.1223 62.5357 46.0916 62.5955C46.0686 62.6542 46.0223 62.6886 45.9528 62.6988C45.8214 62.7181 45.6842 62.6711 45.5412 62.5579C45.4271 62.4798 45.3616 62.3829 45.3446 62.2669C45.3377 62.2205 45.3266 62.1985 45.3112 62.2008C45.2957 62.203 45.2691 62.1832 45.2314 62.1414C45.1925 62.0918 45.152 62.0307 45.1097 61.9579C44.8375 61.5557 44.5545 61.3761 44.2607 61.4192C43.9593 61.4635 43.705 61.6943 43.4977 62.1116C43.2894 62.5212 43.1859 63.0536 43.1873 63.7087C43.2167 64.4467 43.237 64.8543 43.2483 64.9316C43.2597 65.0089 43.2782 65.0812 43.3039 65.1485C43.3295 65.2158 43.3592 65.3101 43.3928 65.4315C43.4253 65.5452 43.4539 65.6595 43.4786 65.7743C43.5022 65.8814 43.5291 65.984 43.5594 66.0822C43.5962 66.1716 43.6257 66.2383 43.648 66.2824C43.6691 66.3188 43.7014 66.3772 43.7448 66.4577C43.787 66.5305 43.8254 66.6038 43.86 66.6777C43.9479 66.8464 44.03 66.9488 44.1064 66.985C44.1407 67.0037 44.1795 67.0256 44.2227 67.0509C44.2647 67.0684 44.2996 67.0909 44.3273 67.1184C44.4048 67.1623 44.49 67.1774 44.5827 67.1638C44.6368 67.1559 44.697 67.1352 44.7631 67.1018C44.933 67.0216 45.0844 66.8967 45.2175 66.7272C45.3505 66.5576 45.4299 66.3723 45.4556 66.1711C45.4739 66.0263 45.5176 65.8935 45.5867 65.7728C45.6636 65.651 45.6997 65.5746 45.6952 65.5437C45.6714 65.3814 45.7167 65.2326 45.831 65.0974C45.9532 64.961 46.0523 64.8833 46.1285 64.8642C46.2124 64.844 46.262 64.8328 46.2775 64.8305C46.4089 64.8112 46.514 64.855 46.5929 64.9619C46.614 64.9982 46.6434 65.0374 46.6812 65.0792C46.7266 65.1199 46.7721 65.1606 46.8175 65.2013C46.863 65.242 46.8942 65.3203 46.9112 65.4363C46.9203 65.4981 46.9234 65.5727 46.9204 65.66C46.9146 65.8898 46.858 66.0955 46.7504 66.2772C46.7086 66.3149 46.6774 66.3984 46.6569 66.5278C46.6364 66.6571 46.562 66.8496 46.4337 67.1054C46.3043 67.3533 46.228 67.479 46.2048 67.4824C46.1893 67.4847 46.158 67.513 46.1107 67.5673C46.0633 67.6216 46.0145 67.692 45.964 67.7784C45.6981 68.1727 45.341 68.4028 44.8927 68.4686ZM49.6707 67.6133L49.5779 67.627C49.4895 67.6162 49.4144 67.6154 49.3525 67.6245C49.283 67.6347 49.2107 67.6532 49.1356 67.68L49.0562 67.7035C49.0021 67.7115 48.9567 67.6984 48.9201 67.6643C48.8658 67.617 48.7823 67.5858 48.6695 67.5708C48.5236 67.5448 48.441 67.4661 48.4217 67.3347C48.4137 67.2806 48.418 67.2287 48.4343 67.1789C48.4573 67.1203 48.462 67.0446 48.4484 66.9518C48.3849 66.5189 48.3281 66.2667 48.2781 66.1951L48.2628 66.0907C48.2614 66.0277 48.2661 65.952 48.2768 65.8636C48.2896 65.7354 48.2914 65.6404 48.2824 65.5785C48.2767 65.5399 48.25 65.4925 48.2023 65.4363C48.13 65.3206 48.0757 65.139 48.0394 64.8917C48.0077 64.6753 48.0021 64.53 48.0228 64.4559C48.0436 64.3818 48.0511 64.3254 48.0454 64.2868C48.0397 64.2481 48.0158 64.1924 47.9735 64.1196C47.9312 64.0469 47.9044 63.9719 47.8931 63.8946C47.8874 63.8559 47.8883 63.8084 47.8958 63.752C47.9034 63.6956 47.9032 63.6404 47.8952 63.5863C47.8873 63.5322 47.8689 63.4875 47.84 63.4523C47.8189 63.4159 47.8004 63.3436 47.7845 63.2354C47.7697 63.1349 47.7576 62.9985 47.7481 62.8262C47.7418 62.6218 47.7318 62.4732 47.7182 62.3805C47.698 62.2966 47.6668 62.2182 47.6245 62.1455C47.59 62.0716 47.5625 61.9651 47.5421 61.8259L47.4468 61.1767C47.3781 60.5471 47.4397 60.1867 47.6316 60.0954C47.7573 60.0375 47.8472 60.0045 47.9013 59.9966C48.0405 59.9762 48.1831 60.0065 48.3293 60.0877C48.5286 60.2085 48.6598 60.4301 48.7229 60.7525C48.7411 60.8761 48.7614 60.9877 48.7839 61.087C48.8064 61.1864 48.8232 61.2471 48.8343 61.2691C48.8454 61.2912 48.8527 61.3138 48.8561 61.337C48.8641 61.3911 48.8544 61.4596 48.8271 61.5426C48.7998 61.6256 48.7901 61.6941 48.798 61.7482C48.8026 61.7791 48.8198 61.8161 48.8498 61.8591C48.9798 62.0453 49.1253 62.6872 49.2864 63.7848C49.4078 64.6119 49.4911 65.1524 49.5363 65.4063L49.6738 66.2626C49.6342 66.3158 49.5919 66.3773 49.5469 66.4471C49.5007 66.5091 49.4805 66.5595 49.4862 66.5981C49.493 66.6445 49.5543 66.6592 49.6703 66.6422C49.7244 66.6342 49.7628 66.7076 49.7855 66.8621C49.8138 67.0554 49.809 67.2377 49.771 67.4091C49.735 67.5407 49.7016 67.6088 49.6707 67.6133ZM47.4785 58.6492C47.4012 58.6605 47.3261 58.6597 47.2531 58.6467C46.9101 58.5154 46.7199 58.3223 46.6825 58.0672L46.6719 57.9148C46.6939 57.5799 46.9178 57.3575 47.3439 57.2476C47.6917 57.1965 47.9305 57.2365 48.0603 57.3675C48.1889 57.4907 48.2595 57.5949 48.272 57.6799C48.289 57.7959 48.2475 57.9164 48.1474 58.0417C48.0726 58.1237 48.0215 58.2062 47.9942 58.2892C47.921 58.4895 47.7491 58.6094 47.4785 58.6492ZM56.2886 67.2698C56.1649 67.2879 56.0427 67.2624 55.9221 67.1933C55.8257 67.1285 55.7536 67.068 55.7059 67.0118C55.6648 66.9468 55.6301 66.8453 55.602 66.7073C55.5738 66.5693 55.5382 66.3534 55.4951 66.0597C55.4599 65.8201 55.4371 65.6378 55.4267 65.513C55.4152 65.3805 55.4098 65.2905 55.4108 65.243C55.4183 65.1866 55.4347 65.1368 55.4599 65.0936C55.484 65.0427 55.4932 64.9979 55.4876 64.9593C55.4842 64.9361 55.4775 64.9173 55.4675 64.903C55.4229 64.8148 55.3822 64.6984 55.3451 64.5538C55.3036 64.3783 55.2674 64.2928 55.2364 64.2973C55.2055 64.3018 55.1654 64.3512 55.116 64.4453L54.8673 64.8489C54.6333 65.1912 54.5191 65.3817 54.5248 65.4204C54.5305 65.459 54.397 65.6523 54.1243 66.0003C53.8593 66.3471 53.7037 66.524 53.6573 66.5308C53.6109 66.5376 53.5631 66.588 53.5137 66.6821C53.438 66.8117 53.3389 66.917 53.2166 66.9982C53.0931 67.0715 52.985 67.1151 52.8923 67.1287C52.8536 67.1343 52.8105 67.1367 52.763 67.1358C52.7144 67.1271 52.6707 67.1256 52.6321 67.1313C52.5702 67.1404 52.4859 67.1844 52.379 67.2632C52.2799 67.3409 52.1607 67.39 52.0216 67.4104C51.8979 67.4286 51.7626 67.4208 51.6155 67.3871C51.3213 67.3198 51.1225 67.1752 51.0189 66.9535C50.9898 66.8631 50.9092 66.7446 50.7772 66.5982C50.6517 66.4428 50.5799 66.3034 50.5618 66.1797C50.5504 66.1024 50.5629 66.0256 50.599 65.9492C50.6229 65.843 50.6309 65.7629 50.623 65.7088C50.6139 65.6469 50.6159 65.6072 50.6291 65.5894C50.6501 65.5706 50.6876 65.5572 50.7417 65.5492C50.8731 65.5299 50.9337 65.4855 50.9235 65.4159C50.9155 65.3618 50.8579 65.319 50.7506 65.2873C50.7097 65.2775 50.6776 65.2744 50.6545 65.2778C50.6313 65.2812 50.6163 65.2597 50.6095 65.2133C50.5913 65.0896 50.6528 64.8358 50.7938 64.4519C50.9884 63.8943 51.166 63.5445 51.3268 63.4024C51.3984 63.3524 51.4804 63.2654 51.5727 63.1413C51.6298 63.0461 51.7437 62.9346 51.9145 62.8069C52.0732 62.7046 52.1762 62.6263 52.2235 62.572C52.2708 62.5177 52.3904 62.4449 52.5823 62.3535C52.7819 62.2611 52.9612 62.1913 53.1201 62.1443C53.3463 62.0716 53.4771 62.0209 53.5123 61.992C53.6248 61.9518 53.8628 61.905 54.2261 61.8517L54.342 61.8347C54.6357 61.7916 54.8024 61.7434 54.842 61.6902C54.8893 61.6359 54.9067 61.5662 54.8942 61.4812C54.8817 61.3962 54.8465 61.2908 54.7886 61.1651C54.6434 60.7679 54.4921 60.49 54.3346 60.3315C54.176 60.1653 53.9613 60.0744 53.6905 60.0589C53.5302 60.0429 53.3965 60.0192 53.2892 59.9875C53.1885 59.947 53.0867 59.9264 52.984 59.9257C52.8271 59.9329 52.7204 59.9052 52.6638 59.8424C52.5852 59.7908 52.5188 59.769 52.4647 59.7769C52.3874 59.7882 52.3479 59.869 52.3463 60.0193C52.3576 60.0966 52.3551 60.1601 52.3387 60.2099C52.3224 60.2597 52.2833 60.3168 52.2217 60.3811C52.1194 60.4909 52.0585 60.6143 52.0392 60.7514C52.0187 60.8807 51.9848 60.9725 51.9375 61.0269C51.8968 61.0723 51.8262 61.1024 51.7257 61.1172C51.6329 61.1308 51.5888 61.153 51.5934 61.184L51.6288 61.3446C51.6492 61.4837 51.5821 61.5646 51.4275 61.5873C51.3425 61.5998 51.2413 61.5831 51.1241 61.5371C50.8717 61.432 50.7269 61.2519 50.6894 60.9968C50.6713 60.8732 50.6752 60.7384 50.7011 60.5924C50.7433 60.3414 50.831 60.1588 50.9642 60.0445C51.0645 59.9745 51.1217 59.9069 51.1358 59.8416C51.1586 59.7278 51.2619 59.5981 51.4459 59.4527C51.6364 59.2983 51.8569 59.1594 52.1072 59.0358C52.4094 58.8888 52.7034 58.7943 52.9894 58.7523C54.0639 58.5946 54.845 58.8866 55.3329 59.6283C55.4206 59.7418 55.4778 59.8084 55.5044 59.8282C55.6351 59.9117 55.7723 60.2548 55.916 60.8575C56.0586 61.4525 56.1775 62.0746 56.2728 62.7239L56.3736 63.4908C56.4394 63.9391 56.4965 64.3019 56.5451 64.579C56.6291 65.151 56.6868 65.6518 56.7183 66.0815C56.7575 66.51 56.7657 66.7813 56.7429 66.8951C56.6806 67.0622 56.597 67.1653 56.4922 67.2044C56.3951 67.2423 56.3273 67.2641 56.2886 67.2698ZM52.1758 66.1205C52.2453 66.1103 52.3347 66.0735 52.4438 66.0101C52.5518 65.9389 52.7026 65.7826 52.8961 65.541C53.0974 65.2982 53.2854 65.0456 53.46 64.7831C53.6424 64.5194 53.7522 64.3256 53.7893 64.2018C53.8263 64.0779 53.8811 63.9396 53.9534 63.7868C54.0248 63.6816 54.0835 63.5703 54.1294 63.453C54.182 63.3269 54.2054 63.2445 54.1998 63.2058C54.1952 63.1749 54.1427 63.1668 54.0422 63.1816C53.563 63.2519 53.1291 63.4696 52.7404 63.8345C52.5456 64.0132 52.4037 64.1761 52.3147 64.3234C52.0877 64.7673 51.9519 65.0794 51.9073 65.2597C51.8616 65.4322 51.8478 65.5803 51.8659 65.704C51.8773 65.7813 51.8996 65.853 51.933 65.9192C51.9755 66.0472 52.0172 66.1161 52.0581 66.1259C52.1056 66.1268 52.1449 66.125 52.1758 66.1205ZM59.5211 66.6177L59.2013 66.6172C59.0997 66.6243 59.0145 66.6091 58.9459 66.5718C58.885 66.5334 58.7979 66.4514 58.6848 66.3259C58.6304 66.2786 58.5565 66.017 58.463 65.5412C58.4124 65.3038 58.3678 65.0537 58.3292 64.7909C58.3099 64.6595 58.2982 64.4994 58.2942 64.3105L58.2803 64.1348C58.2701 64.0653 58.2511 64.0167 58.2234 63.9892C58.2022 63.9528 58.1843 63.8844 58.1695 63.7839C58.1537 63.6757 58.1376 63.5122 58.1213 63.2935C58.1115 63.066 58.0953 62.8749 58.0726 62.7203C58.05 62.5657 58.0078 62.3863 57.9463 62.1822C57.8925 61.9769 57.8553 61.8046 57.8349 61.6655C57.8156 61.5341 57.8062 61.3894 57.8067 61.2314C57.8138 61.0645 57.8123 60.9463 57.8021 60.8768C57.7907 60.7995 57.7572 60.7057 57.7016 60.5954C57.6325 60.4476 57.5843 60.281 57.5571 60.0955C57.5193 59.7299 57.4861 59.4505 57.4578 59.2573C57.4217 59.0651 57.3863 58.9045 57.3515 58.7754C57.3313 58.6915 57.3133 58.5954 57.2974 58.4872C57.2972 58.432 57.3113 58.3667 57.3397 58.2915C57.3857 58.1742 57.403 58.0769 57.3916 57.9996C57.3826 57.9378 57.3503 57.8793 57.2948 57.8243C57.2471 57.7682 57.1892 57.5082 57.1212 57.0444C57.0678 56.6811 57.0465 56.4552 57.0572 56.3668C57.0757 56.2772 57.0792 56.1938 57.0679 56.1165C57.0645 56.0933 57.0566 56.0668 57.0444 56.0371C57.0321 56.0073 57.0237 55.9769 57.0192 55.946C57.0078 55.8687 57.0176 55.8278 57.0485 55.8233C57.064 55.821 57.0834 55.8458 57.1068 55.8976C57.1379 55.9483 57.1657 55.9758 57.19 55.9802L57.248 55.9716C57.2866 55.966 57.3224 55.941 57.3554 55.8967C57.3686 55.8789 57.3746 55.8662 57.3735 55.8585C57.3701 55.8353 57.328 55.8178 57.2473 55.8059C57.0107 55.7538 56.8748 55.6079 56.8396 55.3683C56.8283 55.291 56.8463 55.2252 56.8936 55.1709C56.9397 55.1088 56.9594 55.0546 56.9526 55.0082C56.9458 54.9619 56.9125 54.9233 56.8527 54.8926C56.7918 54.8542 56.7339 54.7284 56.6789 54.5154C56.6408 54.3631 56.6081 54.1942 56.5808 54.0087C56.5275 53.6454 56.5038 53.3764 56.5098 53.2018C56.5224 53.0184 56.5099 52.7991 56.4725 52.544C56.4416 52.2801 56.4388 52.1265 56.4641 52.0833C56.4959 52.0313 56.509 51.9859 56.5033 51.9473C56.4965 51.9009 56.5278 51.845 56.5972 51.7795C56.6654 51.7063 56.7304 51.6652 56.7922 51.6561C56.8927 51.6414 56.9784 51.6604 57.0493 51.7132C57.1203 51.7659 57.1591 51.8155 57.1659 51.8619C57.1693 51.8851 57.1683 51.905 57.1628 51.9215C57.1465 51.9713 57.1405 52.0117 57.1451 52.0426C57.1473 52.0581 57.1535 52.0729 57.1635 52.0873C57.1735 52.1016 57.1901 52.1071 57.2133 52.1037C57.2287 52.1014 57.2436 52.0953 57.2579 52.0853C57.2723 52.0753 57.291 52.0686 57.3142 52.0651C57.376 52.0561 57.4314 52.0835 57.4802 52.1474C57.5291 52.2113 57.5603 52.2896 57.574 52.3824C57.5978 52.5447 57.563 52.684 57.4695 52.8004C57.4156 52.8636 57.3938 52.93 57.404 52.9995C57.4153 53.0768 57.462 53.1529 57.5441 53.2277C57.7115 53.4005 57.8151 53.6222 57.8549 53.8927C57.8673 53.9778 57.8604 54.038 57.834 54.0735C57.8154 54.1078 57.8168 54.1984 57.8384 54.3452C57.8588 54.4844 57.8913 54.598 57.9358 54.6863C58.0001 54.7479 58.2022 55.8829 58.5422 58.0913L58.8557 59.9049C59.183 61.7045 59.3858 62.8711 59.4641 63.4044L59.6002 64.332C59.7227 65.1668 59.773 65.7516 59.7511 66.0865C59.7292 66.4213 59.6526 66.5984 59.5211 66.6177ZM68.1634 65.6217C68.0475 65.6387 67.9462 65.5943 67.8596 65.4886C67.823 65.4545 67.7903 65.4198 67.7615 65.3846C67.7315 65.3416 67.707 65.3096 67.6882 65.2887C67.6659 65.2446 67.6334 65.1309 67.5907 64.9477C67.5546 64.7556 67.5219 64.559 67.4924 64.3581C67.464 64.1648 67.453 64.0361 67.4594 63.972C67.4646 63.9002 67.4639 63.8411 67.457 63.7947C67.4491 63.7406 67.4351 63.6992 67.4151 63.6706C67.394 63.6342 67.38 63.5928 67.3732 63.5464C67.3653 63.4923 67.3645 63.4332 67.3709 63.3691C67.3839 63.2962 67.3864 63.2326 67.3785 63.1785C67.3716 63.1321 67.3477 63.0764 67.3065 63.0114C67.2654 62.9464 67.2245 62.8023 67.1839 62.5793C67.1034 62.0305 67.0505 61.6435 67.0253 61.4182C66.9909 61.0758 66.9812 60.8482 66.9962 60.7355C67.0049 60.6868 67.0046 60.6316 66.9956 60.5697C66.9888 60.5234 66.9637 60.4599 66.9203 60.3794C66.8769 60.2989 66.8518 60.2355 66.8449 60.1891C66.8381 60.1428 66.8451 60.0825 66.8658 60.0084C66.8854 59.9266 66.8962 59.8658 66.8982 59.826C66.8926 59.7873 66.8759 59.7543 66.8481 59.7267C66.7948 59.6319 66.7323 59.341 66.6608 58.8541C66.6075 58.4908 66.5889 58.2566 66.6051 58.1516C66.6281 58.0929 66.6373 58.0482 66.6328 58.0172C66.6282 57.9863 66.6038 57.9544 66.5595 57.9214C66.5218 57.8796 66.4768 57.6809 66.4246 57.3253C66.4042 57.1862 66.396 57.0768 66.4002 56.9972C66.4068 56.9884 66.4089 56.9762 66.4066 56.9607C66.4044 56.9453 66.3971 56.9227 66.3848 56.8929C66.3714 56.8554 66.3575 56.814 66.3429 56.7687C66.335 56.7146 66.3288 56.6721 66.3242 56.6412C66.3106 56.5485 66.312 56.4772 66.3284 56.4274C66.3723 56.3499 66.388 56.2686 66.3755 56.1836C66.3619 56.0908 66.32 55.9667 66.2498 55.8112C66.1784 55.6479 66.1016 55.3394 66.0192 54.8856L65.9089 54.2149C66.0187 54.0487 66.0758 53.9535 66.0801 53.9292C66.0922 53.9037 66.0965 53.8794 66.0931 53.8562C66.0829 53.7866 66.0161 53.6543 65.8927 53.4592C65.8282 53.3423 65.7835 53.1989 65.7585 53.0288C65.7335 52.8588 65.7269 52.7058 65.7385 52.5698C65.7579 52.4327 65.7946 52.3602 65.8487 52.3523C65.9105 52.3432 65.9711 52.2988 66.0305 52.219C66.0503 52.1924 66.0585 52.1675 66.0551 52.1443C66.0528 52.1289 65.9914 52.1142 65.8709 52.1003C65.7571 52.0775 65.6873 52.0325 65.6616 51.9652C65.6437 51.8968 65.6336 51.8548 65.6313 51.8394C65.6165 51.7389 65.6399 51.6289 65.7013 51.5093C65.7475 51.4473 65.7721 51.4002 65.7753 51.3681C65.7629 51.2831 65.7488 51.2141 65.7331 51.1611C65.6963 51.0718 65.6728 50.9923 65.6626 50.9228C65.6546 50.8687 65.6765 50.8023 65.7281 50.7236C65.7875 50.6439 65.8635 50.5972 65.9563 50.5836C66.0568 50.5688 66.134 50.5298 66.1879 50.4667C66.2306 50.3814 66.2791 50.3348 66.3332 50.3269C66.395 50.3178 66.508 50.3881 66.6721 50.5377C66.9393 50.7985 67.0952 50.9731 67.1398 51.0613C67.1832 51.1418 67.2077 51.2013 67.2134 51.24C67.2259 51.325 67.2068 51.4107 67.1564 51.4971C67.1027 51.6155 67.0792 51.6979 67.086 51.7443C67.094 51.7984 67.1327 51.8204 67.2023 51.8101C67.2487 51.8033 67.3016 51.7877 67.3612 51.7631C67.4197 51.7309 67.4721 51.7113 67.5184 51.7045C67.5659 51.7054 67.6769 51.8155 67.8512 52.0347C68.0721 52.3023 68.1882 52.4748 68.1995 52.5521C68.2018 52.5676 68.2141 52.5973 68.2363 52.6415C68.2652 52.6767 68.2979 52.7114 68.3345 52.7455C68.4288 52.8501 68.4777 52.914 68.4811 52.9372C68.4845 52.9604 68.5012 52.9934 68.5312 53.0364C68.5689 53.0783 68.6072 53.124 68.6461 53.1735C68.6915 53.2142 68.7292 53.2561 68.7592 53.2991C68.7958 53.3332 68.8158 53.3618 68.8192 53.385C68.8226 53.4082 68.9265 53.5509 69.1308 53.8131C69.2285 53.9408 69.2979 54.0373 69.339 54.1023C69.3879 54.1662 69.4163 54.2252 69.4242 54.2793C69.4277 54.3025 69.4245 54.3345 69.4147 54.3754C69.4049 54.4164 69.4034 54.46 69.4102 54.5064C69.4213 54.5284 69.4568 54.5548 69.5166 54.5855C69.6052 54.6515 69.6512 54.6961 69.6546 54.7192C69.658 54.7424 69.7424 54.8327 69.9076 54.9901C70.0428 55.1045 70.192 55.2602 70.3552 55.4574C70.504 55.6645 70.6055 55.7641 70.6596 55.7562C70.706 55.7494 70.7647 55.6381 70.8357 55.4224C70.863 55.3394 70.8771 55.2742 70.878 55.2267C70.8865 55.1228 70.9252 55.0105 70.9944 54.8898L71.106 54.601C71.1135 54.5446 71.1403 54.4854 71.1865 54.4233C71.2393 54.3524 71.2605 54.2822 71.2503 54.2126C71.2276 54.058 71.2743 53.9722 71.3902 53.9552C71.4211 53.9507 71.462 53.9605 71.513 53.9846C71.5705 53.9998 71.6186 54.0046 71.6572 53.9989C71.75 53.9853 71.7873 53.9167 71.7691 53.793C71.7555 53.7002 71.6899 53.6033 71.5724 53.5021C71.5358 53.468 71.5119 53.4123 71.5005 53.335C71.4756 53.1649 71.5199 52.9018 71.6334 52.5456C71.7044 52.3299 71.7579 52.1562 71.7938 52.0246C71.8375 51.8918 71.8736 51.7878 71.902 51.7126C71.9325 51.5976 71.9455 51.5246 71.9409 51.4937C71.9364 51.4628 71.9636 51.3522 72.0225 51.1619C72.0892 50.9705 72.1203 50.8593 72.1157 50.8284C72.1101 50.7898 72.127 50.7439 72.1666 50.6907C72.2127 50.6286 72.2411 50.5258 72.2516 50.3821C72.2819 50.2118 72.3267 50.0868 72.386 50.007C72.452 49.9184 72.4804 49.8431 72.4713 49.7813C72.4623 49.7195 72.4996 49.6508 72.5833 49.5754C72.6658 49.4922 72.7573 49.4432 72.8578 49.4285C73.0279 49.4035 73.1832 49.4399 73.3239 49.5377C73.4712 49.6267 73.5562 49.7484 73.5789 49.903C73.5868 49.9571 73.6003 50.0223 73.6194 50.0984C73.6451 50.1657 73.6735 50.2247 73.7046 50.2754C73.7357 50.3261 73.7569 50.3625 73.768 50.3846C73.7791 50.4066 73.7858 50.4254 73.7881 50.4408C73.7915 50.464 73.7734 50.5022 73.7339 50.5554C73.7009 50.5997 73.6884 50.6489 73.6963 50.703C73.7108 50.7483 73.7647 50.8193 73.8579 50.9162C73.9811 51.0561 74.0534 51.1994 74.075 51.3463C74.084 51.4081 74.0798 51.4601 74.0623 51.5021L74.081 51.6297C74.0912 51.6992 74.1115 51.7831 74.1417 51.8813C74.1719 51.9795 74.1921 52.0634 74.2023 52.133C74.2114 52.1948 74.2104 52.2424 74.1995 52.2755C74.1875 52.301 74.1848 52.3369 74.1916 52.3833C74.1973 52.4219 74.2202 52.4699 74.2601 52.5272C74.299 52.5768 74.3213 52.6209 74.3269 52.6595C74.3338 52.7059 74.3334 52.7573 74.3259 52.8137C74.3172 52.8623 74.3163 52.9098 74.3231 52.9562C74.3288 52.9949 74.3428 53.0362 74.365 53.0804C74.4152 53.2072 74.5213 53.7957 74.6834 54.8458C74.7592 55.3085 74.8287 55.7286 74.892 56.1062C74.9631 56.4827 75.0148 56.7278 75.0473 56.8415C75.0798 56.9551 75.1017 57.0506 75.1131 57.1279C75.121 57.182 75.1239 57.229 75.1219 57.2687C75.1046 57.366 75.0432 57.4856 74.9376 57.6274C74.8398 57.7681 74.7983 57.8887 74.8131 57.9892C74.8376 58.0488 74.8924 58.0723 74.9774 58.0598L75.0917 58.0312C75.1535 58.0221 75.2168 58.1037 75.2815 58.2758C75.3529 58.439 75.41 58.6399 75.4529 58.8784C75.4892 59.1257 75.5028 59.3527 75.4936 59.5594L75.3313 59.5832C75.2463 59.5957 75.1873 59.6241 75.1543 59.6684L75.1628 59.7264C75.2426 59.7857 75.3555 59.856 75.5017 59.9372C75.5726 59.99 75.6193 60.066 75.6418 60.1654C75.6631 60.257 75.6863 60.3878 75.7112 60.5579C75.807 61.0492 75.8622 61.3174 75.8767 61.3627C75.8901 61.4002 75.8997 61.4383 75.9053 61.4769C75.9167 61.5542 75.913 61.61 75.8944 61.6444C75.8835 61.6775 75.8905 61.7792 75.9154 61.9492C75.9381 62.1038 75.9836 62.3064 76.052 62.5569C76.147 62.8273 76.2109 63.0745 76.2438 63.2987C76.2823 63.5615 76.2766 63.7913 76.2265 63.9882C76.158 64.2746 76.0156 64.4337 75.7991 64.4654C75.5982 64.4949 75.4249 64.4177 75.2795 64.2338C75.1341 64.0498 75.0483 63.8689 75.0222 63.6911C75.0074 63.5907 75.0187 63.5061 75.056 63.4374C75.0692 63.4197 75.073 63.3915 75.0673 63.3529C75.0571 63.2833 75.0263 63.1812 74.975 63.0466C74.908 62.8591 74.8574 62.6493 74.8234 62.4174C74.8105 62.2219 74.8271 62.0932 74.8733 62.0311C74.9008 62.0034 74.9134 61.9818 74.9112 61.9663C74.9089 61.9509 74.8995 61.9404 74.8829 61.9349C74.874 61.9284 74.869 61.9212 74.8679 61.9135C74.8645 61.8903 74.8837 61.8598 74.9255 61.8221C74.9662 61.7766 74.9826 61.7269 74.9747 61.6727C74.9656 61.6109 74.9218 61.5542 74.8431 61.5025C74.7988 61.4696 74.7616 61.4316 74.7316 61.3886C74.7016 61.3456 74.6715 61.275 74.6413 61.1768C74.6177 61.0698 74.5873 60.9163 74.5501 60.7165C74.3553 59.7659 74.208 58.9505 74.1081 58.2703L73.8032 56.112C73.7794 55.9497 73.7873 55.842 73.8268 55.7888C73.8653 55.7279 73.8794 55.6626 73.8692 55.5931C73.8544 55.4926 73.7905 55.3796 73.6773 55.254C73.6241 55.2145 73.5873 55.1251 73.5669 54.986C73.5467 54.9021 73.4929 54.5626 73.4055 53.9674C73.3658 53.6968 73.3292 53.5009 73.2956 53.3795L73.1249 52.5399C73.0614 52.107 73.0065 51.894 72.9601 51.9008C72.9292 51.9053 72.8964 52.0049 72.8618 52.1995C72.8095 52.3809 72.7178 52.6707 72.5867 53.0689C72.531 53.2271 72.4877 53.3361 72.457 53.3959C72.4329 53.4468 72.4237 53.4916 72.4294 53.5303C72.4441 53.6308 72.3938 53.7724 72.2785 53.9551C72.2214 54.0504 72.1898 54.1576 72.1836 54.277C72.1763 54.3886 72.1435 54.4606 72.085 54.4928C72.0255 54.5174 71.9763 54.5325 71.9377 54.5381C71.8836 54.5461 71.8233 54.5391 71.757 54.5173C71.6563 54.4768 71.5969 54.3947 71.5787 54.271C71.5696 54.2092 71.5607 54.175 71.5518 54.1684L71.4658 54.2284C71.3976 54.3016 71.3709 54.3884 71.3856 54.4889C71.3981 54.5739 71.4132 54.623 71.4309 54.6362C71.4564 54.6483 71.4791 54.6686 71.4991 54.6973C71.5393 54.8098 71.58 54.8986 71.6211 54.9636C71.6623 55.0286 71.7017 55.0821 71.7394 55.1239C71.7771 55.1658 71.8017 55.2253 71.813 55.3026C71.8266 55.3954 71.8199 55.5109 71.7928 55.6491C71.7507 55.9 71.6516 56.1396 71.4956 56.3678C71.4703 56.411 71.449 56.4536 71.4314 56.4957C71.4217 56.5366 71.419 56.5725 71.4236 56.6034C71.4281 56.6344 71.4146 56.7035 71.3829 56.8108C71.359 56.9169 71.3274 57.0242 71.288 57.1326C71.2475 57.2333 71.2075 57.3103 71.1679 57.3635C71.0865 57.4544 70.984 57.5089 70.8603 57.527C70.783 57.5384 70.704 57.5381 70.6233 57.5263C70.3812 57.4908 70.2073 57.3821 70.1017 57.2002C70.0426 57.0667 69.9566 56.9648 69.8436 56.8945C69.7993 56.8616 69.7583 56.8242 69.7206 56.7823C69.6906 56.7393 69.6733 56.7024 69.6688 56.6715C69.6631 56.6328 69.597 56.532 69.4704 56.369C69.4149 56.3139 69.3622 56.2506 69.3122 56.179C69.2268 56.081 69.1373 55.9559 69.0439 55.8038C68.8274 55.5118 68.6973 55.298 68.6537 55.1623C68.6235 55.064 68.5452 54.961 68.4188 54.8532C68.2924 54.7455 68.1787 54.6161 68.0776 54.4651C67.9842 54.313 67.919 54.1646 67.882 54.02C67.845 53.8754 67.7783 53.7707 67.6819 53.7059C67.5855 53.6411 67.5118 53.569 67.4606 53.4897C67.4172 53.4092 67.3878 53.3701 67.3724 53.3723C67.3569 53.3746 67.3309 53.3587 67.2943 53.3246C67.2566 53.2827 67.221 53.2287 67.1876 53.1626C67.0597 52.9365 66.9725 52.8269 66.9261 52.8338C66.8566 52.844 66.857 53.0887 66.9273 53.5679C66.9715 53.8694 66.9923 54.0914 66.9895 54.2339C66.9809 54.2826 66.9639 54.3285 66.9387 54.3717C66.9123 54.4071 66.9019 54.4442 66.9076 54.4828C66.9167 54.5447 66.9562 54.6257 67.0262 54.726C67.1273 54.877 67.1915 55.0452 67.2187 55.2307C67.2675 55.5631 67.2269 55.7704 67.0968 55.8527C67.0152 55.8884 66.9761 55.9178 66.9795 55.941C66.9829 55.9642 67.0211 55.9822 67.094 55.9952C67.167 56.0082 67.2063 56.034 67.212 56.0727C67.2177 56.1113 67.1897 56.1628 67.1281 56.2271C67.073 56.2826 67.0501 56.3412 67.0591 56.4031C67.0814 56.4472 67.1362 56.4707 67.2235 56.4737C67.2633 56.4757 67.2959 56.4828 67.3213 56.4949C67.3745 56.5344 67.431 56.7038 67.4907 57.003C67.5583 57.3563 67.6608 58.0006 67.7981 58.9359L68.2654 61.9587C68.2901 62.0735 68.3121 62.169 68.3311 62.2451C68.3579 62.3201 68.3855 62.4543 68.4139 62.6475C68.4661 63.0031 68.4686 63.2356 68.4215 63.3452C68.4029 63.3795 68.3958 63.4122 68.4004 63.4431C68.406 63.4817 68.4211 63.5308 68.4457 63.5904C68.5493 63.8121 68.613 64.0041 68.6368 64.1664L68.6794 64.4563C68.7134 64.6882 68.7241 64.8958 68.7116 65.0793C68.6958 65.2948 68.6454 65.4088 68.5604 65.4213C68.5372 65.4247 68.4827 65.4564 68.3967 65.5164C68.3108 65.5764 68.233 65.6115 68.1634 65.6217ZM68.2486 63.6193C68.2772 63.5993 68.2842 63.5391 68.2694 63.4386C68.2524 63.3227 68.2168 63.2687 68.1627 63.2766C68.1473 63.2789 68.1341 63.2966 68.1232 63.3298C68.12 63.3618 68.1206 63.3933 68.1252 63.4242C68.1354 63.4938 68.1511 63.5468 68.1722 63.5832C68.1999 63.6107 68.2254 63.6227 68.2486 63.6193ZM67.5813 60.768C67.6277 60.7612 67.6724 60.7428 67.7154 60.7128C67.7363 60.694 67.7456 60.6768 67.7434 60.6613C67.7399 60.6381 67.7194 60.6056 67.6817 60.5638C67.6428 60.5142 67.5886 60.4945 67.519 60.5048C67.4804 60.5104 67.4473 60.5271 67.4198 60.5549C67.4 60.5814 67.3929 60.6141 67.3986 60.6527C67.4111 60.7377 67.4411 60.7807 67.4886 60.7816C67.535 60.7748 67.5659 60.7703 67.5813 60.768ZM80.6628 63.4673C80.5777 63.4798 80.5081 63.4624 80.4537 63.4151C80.4006 63.3755 80.3711 63.3364 80.3655 63.2978C80.3587 63.2514 80.3321 63.2316 80.2857 63.2384C80.2161 63.2486 80.1329 63.3003 80.036 63.3935C79.9787 63.4335 79.9114 63.4592 79.8341 63.4705C79.695 63.4909 79.5164 63.4579 79.2984 63.3715C78.9211 63.2216 78.6146 62.9625 78.379 62.5944C77.9581 62.0403 77.7017 61.4502 77.6098 60.8241C77.5803 60.6231 77.578 60.4458 77.6028 60.2921C77.6277 60.1384 77.6367 60.0384 77.6299 59.992C77.6253 59.9611 77.6131 59.9313 77.5931 59.9027C77.5353 59.8322 77.498 59.739 77.4809 59.623C77.4628 59.4993 77.4503 59.4143 77.4435 59.3679C77.3834 58.9583 77.3827 58.6307 77.4414 58.3852C77.5088 58.091 77.551 57.8677 77.5681 57.7151C77.6038 57.5283 77.6672 57.3413 77.7582 57.1542C77.8569 56.966 77.9242 56.8061 77.9602 56.6745C77.9962 56.5429 78.0878 56.3873 78.2352 56.2078L78.448 55.9633C78.6361 55.7383 78.7968 55.5686 78.93 55.4543C79.2484 55.2023 79.4578 55.0689 79.5583 55.0542C79.6587 55.0394 79.7591 54.9971 79.8594 54.9271C79.9244 54.8859 79.984 54.8614 80.0381 54.8535C80.0767 54.8478 80.1165 54.8498 80.1574 54.8596C80.2713 54.8824 80.4028 54.8907 80.552 54.8846C80.7088 54.8774 80.8266 54.8996 80.9052 54.9512C80.9905 54.994 81.0931 55.1013 81.2131 55.2732C81.4085 55.5288 81.5176 55.7339 81.5403 55.8885C81.5527 55.9735 81.5398 56.0465 81.5013 56.1074C81.4618 56.1606 81.4454 56.2104 81.4522 56.2567L81.4706 56.3014C81.5094 56.351 81.5328 56.4028 81.5408 56.4569C81.5533 56.542 81.52 56.6653 81.4411 56.8269C81.3808 56.9542 81.3459 57.0659 81.3363 57.1621C81.3267 57.2582 81.2901 57.3584 81.2264 57.4625C81.1705 57.5654 81.1124 57.6806 81.0521 57.8078C80.9984 57.9263 80.9044 58.0388 80.77 58.1454C80.6422 58.2431 80.5355 58.3772 80.45 58.5476C80.3645 58.7181 80.3063 58.8056 80.2753 58.8102C80.2444 58.8147 80.2004 58.8646 80.1433 58.9598C80.1138 59.0273 80.0796 59.0639 80.041 59.0696C80.0255 59.0719 79.9813 59.0665 79.9084 59.0535C79.842 59.0317 79.7856 59.0242 79.7392 59.031C79.7083 59.0355 79.6818 59.0434 79.6598 59.0545C79.5638 59.1002 79.5221 59.1655 79.5346 59.2505C79.5402 59.2892 79.5569 59.3223 79.5847 59.3498C79.6201 59.3762 79.6395 59.4009 79.643 59.4241C79.6498 59.4705 79.6223 59.5259 79.5607 59.5902C79.465 59.6911 79.3057 59.7895 79.0829 59.8854C78.9142 59.9733 78.8537 60.1796 78.9013 60.5042C78.9478 60.8211 79.0623 61.1439 79.2448 61.4724C79.435 61.7998 79.6535 62.0244 79.9003 62.1461C80.0087 62.1854 80.1557 62.1915 80.3412 62.1643C80.4572 62.1473 80.5598 62.1204 80.6492 62.0835C80.7683 62.0345 80.825 61.9906 80.8194 61.952C80.8137 61.9133 80.8709 61.8457 80.991 61.7491C81.1176 61.6437 81.1792 61.5794 81.1758 61.5562C81.1724 61.533 81.1928 61.5103 81.2369 61.488C81.2876 61.4569 81.3157 61.433 81.3211 61.4164C81.32 61.4087 81.31 61.3943 81.2911 61.3734C81.2723 61.3525 81.2611 61.3304 81.2577 61.3073C81.2475 61.2377 81.2902 61.1248 81.3857 60.9687L81.5751 60.6448C81.7286 60.3459 81.8379 60.1759 81.9029 60.1347C81.9679 60.0936 82.0198 60.0702 82.0584 60.0645C82.1512 60.0509 82.2684 60.0693 82.41 60.1195C82.5516 60.1698 82.6551 60.2296 82.7206 60.299C82.786 60.3683 82.8295 60.4765 82.8511 60.6233C82.8733 60.9359 82.7538 61.3325 82.4927 61.813C82.2393 62.2923 81.949 62.6548 81.6218 62.9002L81.3094 63.1119C81.0406 63.325 80.8251 63.4435 80.6628 63.4673ZM78.8275 58.5489C78.8584 58.5444 78.9477 58.4799 79.0953 58.3556C79.256 58.2136 79.3556 58.1121 79.3941 58.0512C79.4314 57.9825 79.4682 57.9377 79.5046 57.9165C79.5487 57.8943 79.6094 57.8775 79.6867 57.8661C79.9031 57.8343 80.0023 57.7566 79.9841 57.6329C79.9784 57.5943 79.9612 57.5574 79.9323 57.5221C79.9112 57.4857 79.8984 57.4521 79.8938 57.4212C79.8904 57.398 79.9161 57.331 79.9709 57.2203C80.0949 56.9889 80.1594 56.8097 80.1644 56.6826C80.1761 56.5467 80.1785 56.4555 80.1717 56.4091C80.1513 56.27 80.0947 56.2073 80.0019 56.2209C79.9323 56.2311 79.8448 56.3071 79.7393 56.4489C79.6811 56.5364 79.598 56.6434 79.4903 56.7697C79.334 56.9427 79.1591 57.2842 78.9655 57.7943C78.8276 58.1462 78.7678 58.3839 78.7859 58.5076C78.7905 58.5385 78.8043 58.5523 78.8275 58.5489ZM89.034 62.2387C88.9567 62.25 88.8639 62.236 88.7554 62.1967C88.6559 62.1639 88.5772 62.1123 88.5195 62.0418C88.4618 61.9713 88.4088 61.8527 88.3607 61.6861C88.3203 61.5183 88.2735 61.2804 88.2204 60.9723L88.0897 60.1624L88.1872 60.1007C88.2534 60.0673 88.2881 60.0346 88.2913 60.0025C88.2879 59.9793 88.2579 59.9364 88.2013 59.8736C88.1436 59.8031 88.094 59.7077 88.0527 59.5875C88.0191 59.4661 87.9949 59.3551 87.9801 59.2546L87.9611 59.0442C87.9271 58.8123 87.871 58.5916 87.7928 58.3819C87.7794 58.3444 87.76 58.3196 87.7346 58.3076C87.7168 58.2944 87.6809 58.2918 87.6268 58.2997C87.5109 58.3167 87.4608 58.3794 87.4767 58.4876C87.4835 58.5339 87.503 58.5864 87.5353 58.6448C87.5753 58.7021 87.6015 58.7733 87.614 58.8583C87.6188 58.9444 87.6008 59.0102 87.5601 59.0557C87.5271 59.1 87.5231 59.2072 87.5481 59.3773C87.573 59.5473 87.5641 59.675 87.5214 59.7602C87.4338 59.9705 87.3763 60.1171 87.349 60.2C87.2439 60.4524 87.1755 60.6045 87.1436 60.6566C87.1184 60.6998 87.0811 60.7684 87.0317 60.8625C86.9824 60.9566 86.9297 61.0552 86.8737 61.1581C86.7245 61.4327 86.5509 61.6753 86.3528 61.886C86.0513 62.1987 85.8078 62.3687 85.6223 62.3959C85.5372 62.4084 85.4703 62.3827 85.4214 62.3188C85.3792 62.2461 85.331 62.2137 85.2769 62.2216L85.2653 62.2233C85.2057 62.2478 85.1744 62.3037 85.1715 62.391C85.1685 62.4783 85.1521 62.5281 85.1223 62.5404C85.0141 62.5563 84.8876 62.5551 84.7428 62.5369C84.5582 62.5166 84.4382 62.4789 84.3827 62.4239C84.3261 62.3611 84.2859 62.2486 84.2621 62.0863L84.2516 61.9338C84.2345 61.8179 84.199 61.7639 84.1449 61.7718C84.1062 61.7775 84.0627 61.8036 84.0142 61.8502C83.9658 61.8968 83.9261 61.9224 83.8952 61.9269C83.8102 61.9394 83.7313 61.8325 83.6587 61.6063C83.6441 61.5611 83.6146 61.4943 83.57 61.4061C83.3965 61.0842 83.2916 60.8271 83.2555 60.635C83.2183 60.4352 83.1946 60.3005 83.1844 60.2309C83.1379 59.914 83.1228 59.5964 83.1393 59.2781C83.1377 59.1599 83.1329 59.0462 83.1247 58.9368C83.1243 58.8263 83.1283 58.7191 83.1367 58.6152C83.1518 58.5025 83.1669 58.4174 83.1822 58.3598C83.219 58.1807 83.2361 58.0282 83.2334 57.9022C83.2317 57.7288 83.2648 57.5778 83.3328 57.4494C83.3997 57.3133 83.4263 57.1988 83.4127 57.106C83.3979 57.0056 83.4492 56.8164 83.5663 56.5387C83.6944 56.2277 83.8782 55.8928 84.1177 55.5339L84.3268 55.1834C84.6311 54.7281 84.9327 54.443 85.2317 54.3281C85.5384 54.212 85.7613 54.1437 85.9005 54.1233C86.2097 54.0779 86.512 54.1204 86.8075 54.2508C86.9271 54.3122 87.0178 54.3384 87.0796 54.3293C87.1646 54.3168 87.1895 54.1908 87.1544 53.9511L87.0611 53.3963C87.0339 53.2108 87.0306 53.081 87.0513 53.0069C87.0709 52.925 87.0778 52.8648 87.0722 52.8261C87.0588 52.7886 87.0221 52.7269 86.9621 52.641C86.9098 52.5539 86.857 52.3287 86.8037 51.9654C86.7504 51.6021 86.7265 51.2779 86.732 50.9928C86.7384 50.9287 86.7371 50.8657 86.728 50.8039C86.7189 50.7421 86.7032 50.6891 86.681 50.645C86.6062 50.4586 86.5314 50.1103 86.4566 49.6001C86.4039 49.134 86.3774 48.6839 86.3768 48.2497C86.384 47.8144 86.4293 47.5313 86.5128 47.4007C86.604 47.2688 86.7037 47.195 86.8119 47.1791C86.8892 47.1677 86.9727 47.1989 87.0625 47.2726C87.2609 47.4409 87.4078 47.8497 87.5031 48.499C87.2789 48.5319 87.1525 48.5583 87.1238 48.5783C87.1018 48.5894 87.0959 48.6298 87.1061 48.6994C87.1095 48.7225 87.1156 48.7374 87.1245 48.744C87.1411 48.7495 87.1841 48.7471 87.2537 48.7369C87.416 48.7131 87.528 48.8033 87.5895 49.0074C87.6577 49.2027 87.6997 49.3545 87.7156 49.4627C87.7485 49.6869 87.7477 49.9238 87.7133 50.1737C87.6972 50.2787 87.693 50.3583 87.701 50.4124C87.7078 50.4588 87.7262 50.5034 87.7562 50.5464C87.8873 50.7404 87.9863 51.0654 88.0533 51.5214C88.0771 51.6837 88.0954 51.8627 88.1084 52.0582C88.1292 52.3078 88.151 52.5099 88.1737 52.6645C88.1895 52.7727 88.2059 52.8572 88.2227 52.9179C88.274 53.0525 88.3133 53.2125 88.3405 53.398C88.3544 53.546 88.3371 53.6433 88.2886 53.6899C88.2391 53.7288 88.2182 53.7753 88.2262 53.8294C88.233 53.8757 88.2724 53.9292 88.3445 53.9897C88.3699 54.0017 88.3921 54.0182 88.4109 54.0391C88.4366 54.1064 88.4685 54.2162 88.5067 54.3686C88.5713 54.8092 88.6268 55.1603 88.6731 55.422C88.7537 55.9708 88.8055 56.3777 88.8286 56.6428C88.8517 56.9079 88.8425 57.0869 88.8008 57.1799C88.7581 57.2651 88.6799 57.324 88.5662 57.3564C88.5055 57.3732 88.4614 57.3955 88.4339 57.4232C88.4052 57.4432 88.3949 57.4803 88.4028 57.5344C88.4119 57.5962 88.4435 57.6232 88.4976 57.6152C88.5208 57.6118 88.5411 57.5891 88.5586 57.5471C88.5839 57.5039 88.6622 57.4726 88.7936 57.4533C88.8488 57.4531 88.8931 57.4585 88.9262 57.4694C89.0017 57.5531 89.1381 58.2674 89.3355 59.6124C89.5284 60.9264 89.6031 61.6774 89.5596 61.8654C89.5137 61.9827 89.4719 62.0481 89.4344 62.0615L89.3781 62.0816C89.324 62.0895 89.2913 62.0548 89.28 61.9775C89.2777 61.9621 89.2727 61.9549 89.265 61.9561C89.2572 61.9572 89.2424 61.991 89.2206 62.0573C89.1967 62.1635 89.1345 62.2239 89.034 62.2387ZM84.96 61.2732C85.0218 61.2641 85.1078 61.2041 85.2179 61.0932C85.3918 60.9334 85.5672 60.7024 85.7439 60.4001C85.9283 60.0967 86.0724 59.7873 86.1762 59.472C86.315 59.0726 86.4254 58.7761 86.5076 58.5824C86.5569 58.4883 86.5983 58.3401 86.6318 58.1378C86.6423 57.9941 86.6928 57.7735 86.7834 57.476C86.8817 57.1773 86.928 57.0086 86.9223 56.97C86.9155 56.9236 86.9459 56.7809 87.0135 56.542C87.0877 56.2943 87.1163 56.1124 87.0992 55.9964C87.0756 55.8894 86.9973 55.7864 86.8644 55.6874C86.6039 55.473 86.4179 55.3621 86.3062 55.3548C86.2012 55.3386 86.1255 55.3339 86.0791 55.3408C85.9246 55.3634 85.7613 55.4348 85.5894 55.5548C85.4462 55.6548 85.2559 55.7301 85.0185 55.7807C84.7812 55.8313 84.6487 55.8705 84.6212 55.8982C84.6014 55.9248 84.5761 55.9404 84.5452 55.9449C84.5142 55.9495 84.4744 55.9474 84.4258 55.9387C84.3772 55.9301 84.3451 55.9269 84.3296 55.9292C84.313 55.9237 84.3009 55.9215 84.2932 55.9227C84.27 55.9261 84.2623 55.9548 84.2703 56.0089C84.2771 56.0553 84.3114 56.074 84.3733 56.0649L84.6034 56.0193C84.8508 55.983 84.9841 56.0305 85.0034 56.1619C85.017 56.2547 84.9334 56.3578 84.7527 56.4711C84.7086 56.4934 84.6933 56.5509 84.7069 56.6437L84.7154 56.7016C84.7381 56.8562 84.7277 57.0275 84.6843 57.2155C84.6397 57.3958 84.5783 57.543 84.5003 57.6571C84.4387 57.7214 84.3997 57.7784 84.3833 57.8282C84.3747 57.8769 84.3777 57.9514 84.3925 58.0519C84.4118 58.1833 84.4043 58.4016 84.3701 58.7066C84.3603 59.016 84.3582 59.1901 84.3638 59.2287L84.3958 59.3661L84.3829 59.4391C84.3599 59.4978 84.3614 59.616 84.3875 59.7938C84.4261 60.0566 84.4913 60.3392 84.583 60.6415C84.6514 60.8921 84.7161 61.0642 84.7773 61.1579C84.8373 61.2438 84.8982 61.2823 84.96 61.2732ZM87.3284 58.2843C87.3659 58.2709 87.3836 58.2565 87.3813 58.241C87.3722 58.1792 87.3206 58.1236 87.2265 58.0742C87.1856 58.0644 87.1497 58.0618 87.1188 58.0663C87.0681 58.0975 87.0478 58.1478 87.058 58.2174C87.0626 58.2483 87.0781 58.2736 87.1047 58.2934C87.1302 58.3055 87.1854 58.3053 87.2705 58.2928L87.3284 58.2843ZM92.6168 61.3101L92.5241 61.3237C92.4357 61.313 92.3605 61.3122 92.2987 61.3213C92.2291 61.3315 92.1568 61.35 92.0818 61.3768L92.0023 61.4003C91.9482 61.4083 91.9029 61.3952 91.8663 61.3611C91.812 61.3138 91.7284 61.2826 91.6157 61.2676C91.4697 61.2416 91.3871 61.1629 91.3678 61.0315C91.3599 60.9774 91.3641 60.9255 91.3805 60.8757C91.4035 60.817 91.4082 60.7413 91.3945 60.6486C91.331 60.2157 91.2742 59.9635 91.2243 59.8919L91.2089 59.7875C91.2076 59.7245 91.2123 59.6488 91.223 59.5604C91.2358 59.4322 91.2376 59.3372 91.2285 59.2753C91.2228 59.2367 91.1962 59.1893 91.1484 59.1331C91.0762 59.0174 91.0219 58.8358 90.9856 58.5885C90.9538 58.372 90.9483 58.2268 90.969 58.1527C90.9897 58.0786 90.9972 58.0222 90.9915 57.9835C90.9859 57.9449 90.9619 57.8892 90.9196 57.8164C90.8774 57.7437 90.8506 57.6686 90.8392 57.5913C90.8336 57.5527 90.8345 57.5052 90.842 57.4488C90.8495 57.3924 90.8493 57.3372 90.8414 57.2831C90.8334 57.229 90.815 57.1843 90.7862 57.1491C90.765 57.1127 90.7465 57.0404 90.7306 56.9322C90.7159 56.8317 90.7038 56.6953 90.6943 56.5229C90.688 56.3186 90.678 56.17 90.6644 56.0772C90.6442 55.9934 90.6129 55.915 90.5707 55.8423C90.5361 55.7684 90.5087 55.6619 90.4882 55.5227L90.3929 54.8734C90.3242 54.2439 90.3858 53.8835 90.5777 53.7922C90.7035 53.7342 90.7934 53.7013 90.8475 53.6934C90.9866 53.6729 91.1293 53.7033 91.2754 53.7845C91.4748 53.9053 91.606 54.1269 91.6691 54.4493C91.6872 54.5729 91.7076 54.6844 91.73 54.7838C91.7525 54.8831 91.7693 54.9438 91.7805 54.9659C91.7916 54.988 91.7989 55.0106 91.8023 55.0338C91.8102 55.0879 91.8005 55.1564 91.7732 55.2394C91.7459 55.3223 91.7362 55.3909 91.7442 55.445C91.7487 55.4759 91.766 55.5129 91.796 55.5558C91.926 55.7421 92.0715 56.384 92.2326 57.4816C92.354 58.3087 92.4373 58.8492 92.4824 59.1031L92.62 59.9594C92.5804 60.0126 92.5381 60.0741 92.4931 60.1439C92.4469 60.2059 92.4266 60.2563 92.4323 60.2949C92.4391 60.3413 92.5005 60.356 92.6164 60.339C92.6705 60.331 92.7089 60.4043 92.7316 60.5589C92.76 60.7522 92.7552 60.9345 92.7172 61.1059C92.6812 61.2375 92.6478 61.3056 92.6168 61.3101ZM90.4247 52.3459C90.3474 52.3573 90.2723 52.3565 90.1993 52.3435C89.8563 52.2122 89.6661 52.019 89.6286 51.764L89.6181 51.6115C89.64 51.2767 89.864 51.0543 90.2901 50.9444C90.6379 50.8933 90.8767 50.9333 91.0065 51.0643C91.1351 51.1875 91.2057 51.2917 91.2181 51.3767C91.2352 51.4926 91.1936 51.6132 91.0936 51.7385C91.0188 51.8205 90.9677 51.903 90.9404 51.986C90.8671 52.1863 90.6952 52.3062 90.4247 52.3459ZM99.2348 60.9666C99.1111 60.9847 98.9889 60.9592 98.8682 60.8901C98.7718 60.8253 98.6998 60.7648 98.6521 60.7086C98.6109 60.6436 98.5763 60.5421 98.5481 60.4041C98.52 60.2661 98.4844 60.0502 98.4413 59.7565C98.4061 59.5168 98.3833 59.3346 98.3729 59.2098C98.3613 59.0773 98.356 58.9873 98.3569 58.9397C98.3644 58.8834 98.3808 58.8336 98.4061 58.7904C98.4302 58.7395 98.4394 58.6947 98.4337 58.6561C98.4303 58.6329 98.4236 58.6141 98.4136 58.5998C98.3691 58.5116 98.3283 58.3952 98.2913 58.2506C98.2497 58.075 98.2135 57.9896 98.1826 57.9941C98.1517 57.9986 98.1115 58.048 98.0622 58.1421L97.8135 58.5457C97.5794 58.888 97.4653 59.0785 97.4709 59.1172C97.4766 59.1558 97.3431 59.3491 97.0704 59.6971C96.8055 60.0439 96.6498 60.2207 96.6035 60.2276C96.5571 60.2344 96.5092 60.2848 96.4599 60.3789C96.3841 60.5085 96.2851 60.6138 96.1628 60.6949C96.0393 60.7683 95.9312 60.8118 95.8384 60.8255C95.7998 60.8311 95.7567 60.8335 95.7092 60.8326C95.6605 60.8239 95.6169 60.8224 95.5782 60.8281C95.5164 60.8372 95.432 60.8811 95.3252 60.96C95.226 61.0377 95.1069 61.0868 94.9678 61.1072C94.8441 61.1254 94.7087 61.1176 94.5616 61.0839C94.2675 61.0165 94.0686 60.872 93.965 60.6503C93.9359 60.5598 93.8554 60.4414 93.7233 60.2949C93.5979 60.1396 93.5261 60.0001 93.5079 59.8765C93.4966 59.7992 93.509 59.7223 93.5452 59.646C93.5691 59.5398 93.5771 59.4597 93.5691 59.4056C93.56 59.3437 93.5621 59.3039 93.5753 59.2862C93.5962 59.2674 93.6337 59.2539 93.6878 59.246C93.8192 59.2267 93.8798 59.1823 93.8696 59.1127C93.8617 59.0586 93.8041 59.0158 93.6968 58.9841C93.6559 58.9743 93.6238 58.9711 93.6006 58.9745C93.5774 58.9779 93.5624 58.9565 93.5556 58.9101C93.5375 58.7864 93.5989 58.5326 93.74 58.1487C93.9345 57.5911 94.1122 57.2413 94.2729 57.0992C94.3445 57.0492 94.4265 56.9622 94.5189 56.8381C94.5759 56.7429 94.6899 56.6314 94.8606 56.5037C95.0193 56.4014 95.1223 56.3231 95.1696 56.2688C95.2169 56.2145 95.3365 56.1417 95.5284 56.0503C95.7281 55.9579 95.9073 55.8881 96.0663 55.8411C96.2925 55.7684 96.4232 55.7176 96.4585 55.6888C96.571 55.6486 96.8089 55.6018 97.1722 55.5485L97.2882 55.5315C97.5819 55.4884 97.7485 55.4402 97.7881 55.387C97.8354 55.3327 97.8528 55.263 97.8403 55.178C97.8279 55.093 97.7926 54.9876 97.7347 54.8619C97.5896 54.4647 97.4382 54.1868 97.2807 54.0283C97.1221 53.8621 96.9074 53.7712 96.6367 53.7557C96.4764 53.7397 96.3426 53.7159 96.2353 53.6843C96.1346 53.6438 96.0329 53.6232 95.9301 53.6225C95.7733 53.6297 95.6666 53.602 95.61 53.5392C95.5313 53.4876 95.4649 53.4657 95.4108 53.4737C95.3335 53.485 95.2941 53.5658 95.2924 53.7161C95.3038 53.7934 95.3013 53.8569 95.2849 53.9067C95.2685 53.9565 95.2295 54.0135 95.1679 54.0779C95.0655 54.1876 95.0047 54.3111 94.9853 54.4481C94.9648 54.5775 94.9309 54.6693 94.8836 54.7236C94.8429 54.7691 94.7723 54.7992 94.6719 54.8139C94.5791 54.8276 94.535 54.8498 94.5395 54.8807L94.5749 55.0414C94.5954 55.1805 94.5283 55.2614 94.3737 55.2841C94.2887 55.2966 94.1875 55.2798 94.0702 55.2339C93.8179 55.1288 93.673 54.9487 93.6356 54.6936C93.6174 54.5699 93.6213 54.4351 93.6473 54.2892C93.6894 54.0382 93.7771 53.8556 93.9104 53.7413C94.0106 53.6713 94.0678 53.6037 94.0819 53.5384C94.1047 53.4245 94.2081 53.2949 94.392 53.1494C94.5826 52.9951 94.803 52.8562 95.0533 52.7326C95.3555 52.5856 95.6496 52.4911 95.9356 52.4491C97.01 52.2914 97.7912 52.5834 98.279 53.3251C98.3668 53.4386 98.4239 53.5052 98.4505 53.525C98.5812 53.6085 98.7184 53.9516 98.8622 54.5543C99.0048 55.1492 99.1237 55.7714 99.219 56.4207L99.3197 57.1876C99.3855 57.6359 99.4427 57.9987 99.4913 58.2758C99.5752 58.8478 99.6329 59.3486 99.6644 59.7783C99.7036 60.2068 99.7118 60.478 99.6891 60.5919C99.6267 60.759 99.5432 60.8621 99.4384 60.9011C99.3413 60.9391 99.2734 60.9609 99.2348 60.9666ZM95.1219 59.8172C95.1915 59.807 95.2808 59.7702 95.39 59.7068C95.498 59.6357 95.6488 59.4794 95.8423 59.2378C96.0435 58.995 96.2315 58.7424 96.4062 58.4799C96.5886 58.2162 96.6983 58.0224 96.7354 57.8985C96.7725 57.7747 96.8272 57.6363 96.8995 57.4836C96.971 57.3784 97.0296 57.2671 97.0756 57.1498C97.1281 57.0236 97.1516 56.9412 97.1459 56.9026C97.1414 56.8717 97.0889 56.8636 96.9884 56.8783C96.5091 56.9487 96.0752 57.1663 95.6866 57.5313C95.4917 57.71 95.3498 57.8729 95.2609 58.0202C95.0339 58.4641 94.8981 58.7762 94.8535 58.9565C94.8077 59.129 94.7939 59.2771 94.8121 59.4008C94.8234 59.4781 94.8458 59.5498 94.8792 59.616C94.9217 59.744 94.9634 59.8129 95.0043 59.8227C95.0518 59.8236 95.091 59.8218 95.1219 59.8172Z" fill="#333333"/>
<defs>
<clipPath id="clip0_2003_14">
<rect width="59.4209" height="17.4767" fill="white" transform="matrix(-0.706913 -0.7073 -0.7073 0.706913 54.6856 42.3492)"/>
</clipPath>
</defs>
</svg>
